<svg xmlns="http://www.w3.org/2000/svg" xmlns:xlink="http://www.w3.org/1999/xlink" width="1080" zoomAndPan="magnify" viewBox="0 0 810 809.999993" height="1080" preserveAspectRatio="xMidYMid meet" version="1.0"><defs><g/><clipPath id="9617587f2c"><path d="M 288.933594 322.101562 L 344.210938 322.101562 L 344.210938 377.296875 L 288.933594 377.296875 Z M 288.933594 322.101562 " clip-rule="nonzero"/></clipPath><clipPath id="e0b556090f"><path d="M 283.820312 354 L 300 354 L 300 371 L 283.820312 371 Z M 283.820312 354 " clip-rule="nonzero"/></clipPath><clipPath id="ee349f4995"><path d="M 323.234375 317.566406 L 347.515625 317.566406 L 347.515625 341.804688 L 323.234375 341.804688 Z M 323.234375 317.566406 " clip-rule="nonzero"/></clipPath></defs><g clip-path="url(#9617587f2c)"><path fill="#000000" d="M 316.535156 322.160156 C 315.820312 348.429688 315.238281 349.011719 288.96875 349.726562 C 315.238281 350.445312 315.820312 351.027344 316.535156 377.296875 C 317.253906 351.027344 317.835938 350.445312 344.101562 349.726562 C 317.835938 349.011719 317.253906 348.429688 316.535156 322.160156 " fill-opacity="1" fill-rule="nonzero"/></g><g clip-path="url(#e0b556090f)"><path fill="#000000" d="M 291.78125 354.382812 C 291.574219 361.957031 291.40625 362.125 283.832031 362.332031 C 291.40625 362.539062 291.574219 362.707031 291.78125 370.28125 C 291.988281 362.707031 292.15625 362.539062 299.730469 362.332031 C 292.15625 362.125 291.988281 361.957031 291.78125 354.382812 " fill-opacity="1" fill-rule="nonzero"/></g><g clip-path="url(#ee349f4995)"><path fill="#000000" d="M 335.4375 341.722656 C 335.753906 330.214844 336.007812 329.957031 347.515625 329.644531 C 336.007812 329.328125 335.753906 329.074219 335.4375 317.566406 C 335.125 329.074219 334.871094 329.328125 323.359375 329.644531 C 334.871094 329.957031 335.125 330.214844 335.4375 341.722656 " fill-opacity="1" fill-rule="nonzero"/></g><g fill="#000000" fill-opacity="1"><g transform="translate(43.485516, 451.676958)"><g><path d="M 29.625 -84.4375 L 1.34375 -84.4375 C 0 -84.4375 -0.53125 -82.828125 0.8125 -81.75 C 5.515625 -78.25 6.328125 -75.140625 6.328125 -70.296875 L 6.328125 -30.171875 C 6.328125 -25.1875 5.515625 -22.21875 0.8125 -18.71875 C -0.53125 -17.640625 0 -15.890625 1.34375 -15.890625 L 29.625 -15.890625 C 50.375 -15.890625 67.34375 -31.375 67.34375 -50.234375 C 67.34375 -69.09375 50.375 -84.4375 29.625 -84.4375 Z M 26.9375 -19.796875 C 23.703125 -48.34375 25.71875 -71.78125 26.796875 -80.671875 C 39.0625 -79.59375 46.46875 -66.65625 46.46875 -50.234375 C 46.46875 -33.796875 39.1875 -20.875 26.9375 -19.796875 Z M 26.9375 -19.796875 "/></g></g></g><g fill="#000000" fill-opacity="1"><g transform="translate(113.515519, 451.676958)"><g><path d="M 47.9375 -31.375 C 44.171875 -26.390625 35.953125 -24.640625 30.96875 -25.984375 C 25.59375 -27.609375 22.625 -31.375 21.28125 -35.828125 C 24.109375 -34.609375 27.203125 -33.796875 30.703125 -33.796875 C 41.203125 -33.796875 49.828125 -40.9375 49.828125 -49.6875 C 49.828125 -58.578125 38.515625 -65.71875 28.015625 -65.71875 C 11.84375 -65.71875 0 -54.546875 0 -40.8125 C 0 -27.0625 11.984375 -15.890625 26.9375 -15.890625 C 37.296875 -15.890625 46.328125 -21.40625 50.765625 -29.359375 C 51.578125 -30.84375 49.296875 -33.125 47.9375 -31.375 Z M 27.34375 -61.953125 C 30.96875 -61.953125 33.53125 -56.421875 33.53125 -49.6875 C 33.53125 -43.09375 30.96875 -37.578125 27.34375 -37.578125 C 24.109375 -37.578125 20.734375 -42.015625 20.734375 -49.15625 C 20.734375 -57.78125 25.1875 -61.953125 27.34375 -61.953125 Z M 27.34375 -61.953125 "/></g></g></g><g fill="#000000" fill-opacity="1"><g transform="translate(167.250082, 451.676958)"><g><path d="M 18.578125 -58.453125 C 19.265625 -63.03125 25.71875 -63.5625 25.1875 -56.15625 C 24.109375 -44.3125 46.859375 -46.328125 42.15625 -56.703125 C 39.1875 -63.296875 29.09375 -65.859375 20.609375 -65.71875 L 20.328125 -65.71875 C 8.34375 -65.3125 -1.078125 -58.984375 0.140625 -49.015625 C 1.75 -35.546875 26.9375 -34.609375 24.234375 -23.15625 C 23.296875 -18.71875 17.109375 -18.046875 17.78125 -25.453125 C 18.71875 -37.296875 -4.046875 -35.28125 0.671875 -24.921875 C 3.640625 -18.453125 13.609375 -15.75 22.21875 -15.890625 L 22.484375 -16.03125 C 34.203125 -16.296875 44.03125 -24.375 42.828125 -31.921875 C 40.8125 -44.3125 16.5625 -46.859375 18.578125 -58.453125 Z M 18.578125 -58.453125 "/></g></g></g><g fill="#000000" fill-opacity="1"><g transform="translate(212.904256, 451.676958)"><g><path d="M 27.609375 -15.890625 C 30.4375 -15.890625 30.4375 -18.1875 28.953125 -19.265625 C 23.96875 -23.03125 22.359375 -38.25 25.984375 -62.21875 C 26.265625 -63.96875 27.609375 -66.125 24.78125 -65.578125 C 19.65625 -64.515625 14.28125 -55.75 1.34375 -55.75 C 0 -55.75 -0.53125 -54.140625 0.8125 -53.0625 C 5.515625 -49.421875 6.328125 -46.46875 6.328125 -41.484375 L 6.328125 -30.171875 C 6.328125 -25.1875 5.515625 -22.21875 0.8125 -18.71875 C -0.53125 -17.640625 0 -15.890625 1.34375 -15.890625 Z M 10.09375 -64.78125 C 15.625 -64.78125 21.015625 -69.21875 22.21875 -74.609375 C 23.4375 -80.125 19.9375 -84.4375 14.546875 -84.4375 C 9.015625 -84.4375 3.640625 -80.125 2.421875 -74.609375 C 1.21875 -69.21875 4.71875 -64.78125 10.09375 -64.78125 Z M 10.09375 -64.78125 "/></g></g></g><g fill="#000000" fill-opacity="1"><g transform="translate(246.168516, 451.676958)"><g><path d="M 49.828125 -23.15625 C 38.65625 -29.09375 18.3125 -18.453125 14.671875 -23.15625 C 13.328125 -24.78125 14.953125 -26.265625 16.828125 -27.75 C 20.609375 -26.53125 24.921875 -25.71875 29.5 -25.71875 C 45.78125 -25.71875 58.984375 -34.75 58.984375 -45.78125 C 58.984375 -54.140625 51.3125 -61.28125 40.53125 -64.234375 C 43.09375 -65.859375 48.34375 -64.78125 53.328125 -63.96875 C 60.609375 -62.890625 61.28125 -75.421875 52.390625 -75.8125 C 44.84375 -76.09375 38.375 -70.96875 37.03125 -65.046875 C 34.609375 -65.453125 32.046875 -65.71875 29.5 -65.71875 C 13.203125 -65.71875 0 -56.703125 0 -45.78125 C 0 -39.0625 4.84375 -33.125 12.390625 -29.5 C 9.5625 -27.203125 6.875 -23.96875 7.671875 -21.8125 C 9.421875 -16.296875 16.296875 -18.046875 23.96875 -17.109375 C 45.78125 -14.40625 52.515625 8.75 41.078125 13.0625 C 30.703125 17.109375 14 7.265625 16.828125 -5.796875 C 19.265625 -16.703125 -9.5625 -14.140625 -4.71875 -0.9375 C -1.078125 9.015625 11.84375 18.1875 28.953125 18.1875 C 53.328125 18.1875 71.109375 -11.84375 49.828125 -23.15625 Z M 29.5 -61.953125 C 33.796875 -61.953125 37.296875 -54.671875 37.296875 -45.78125 C 37.296875 -36.765625 33.796875 -29.5 29.5 -29.5 C 25.1875 -29.5 21.6875 -36.765625 21.6875 -45.78125 C 21.6875 -54.671875 25.1875 -61.953125 29.5 -61.953125 Z M 29.5 -61.953125 "/></g></g></g><g fill="#000000" fill-opacity="1"><g transform="translate(308.118131, 451.676958)"><g><path d="M 65.453125 -18.71875 C 60.734375 -22.21875 59.921875 -25.1875 59.921875 -30.171875 L 59.921875 -39.0625 C 59.921875 -53.875 50.640625 -65.71875 36.09375 -65.71875 C 31.78125 -65.71875 28.28125 -62.890625 25.59375 -59.390625 L 25.984375 -62.21875 C 26.265625 -63.96875 27.609375 -66.125 24.78125 -65.578125 C 19.65625 -64.515625 14.28125 -55.75 1.34375 -55.75 C 0 -55.75 -0.53125 -54.140625 0.8125 -53.0625 C 5.515625 -49.421875 6.328125 -46.46875 6.328125 -41.484375 L 6.328125 -30.171875 C 6.328125 -25.1875 5.515625 -22.21875 0.8125 -18.71875 C -0.53125 -17.640625 0 -15.890625 1.34375 -15.890625 L 27.609375 -15.890625 C 30.4375 -15.890625 30.4375 -18.1875 28.953125 -19.265625 C 24.921875 -22.359375 23.03125 -33.265625 24.515625 -50.375 C 26.796875 -55.484375 29.5 -59.53125 32.1875 -59.53125 C 41.484375 -59.53125 45.390625 -27.0625 36.765625 -19.265625 C 35.421875 -18.046875 35.28125 -15.890625 38.109375 -15.890625 L 64.90625 -15.890625 C 66.265625 -15.890625 66.796875 -17.640625 65.453125 -18.71875 Z M 65.453125 -18.71875 "/></g></g></g><g fill="#000000" fill-opacity="1"><g transform="translate(371.923168, 437.382187)"><g/></g></g><g fill="#000000" fill-opacity="1"><g transform="translate(388.97639, 437.382187)"><g><path d="M 43.1875 -79.5625 L 36.03125 -79.5625 L 23.078125 -53.765625 L 10.109375 -79.5625 L 2.84375 -79.5625 L 19.546875 -46.9375 L 19.546875 0 L 26.484375 0 L 26.484375 -46.9375 Z M 43.1875 -79.5625 "/></g></g></g><g fill="#000000" fill-opacity="1"><g transform="translate(435.007747, 437.382187)"><g><path d="M 24.890625 1.140625 C 38.875 1.140625 45.796875 -11.59375 45.796875 -40 C 45.796875 -68.421875 38.875 -81.15625 24.890625 -81.15625 C 11.03125 -81.15625 3.984375 -68.421875 3.984375 -40 C 3.984375 -11.59375 11.03125 1.140625 24.890625 1.140625 Z M 24.890625 -5.453125 C 12.84375 -5.453125 11.03125 -25.90625 11.03125 -40 C 11.03125 -54.09375 12.84375 -74.5625 24.890625 -74.5625 C 36.9375 -74.5625 38.75 -54.09375 38.75 -40 C 38.75 -25.90625 36.9375 -5.453125 24.890625 -5.453125 Z M 24.890625 -5.453125 "/></g></g></g><g fill="#000000" fill-opacity="1"><g transform="translate(484.789808, 437.382187)"><g><path d="M 46.375 -19.09375 L 46.375 -79.5625 L 39.4375 -79.5625 L 39.4375 -19.203125 C 39.4375 -9.09375 34.546875 -5.34375 27.953125 -5.34375 C 20.109375 -5.34375 14.890625 -9.09375 14.890625 -19.203125 L 14.890625 -79.5625 L 7.953125 -79.5625 L 7.953125 -18.40625 C 7.953125 -6.03125 14.78125 1.015625 27.28125 1.015625 C 40.125 1.015625 46.375 -6.9375 46.375 -19.09375 Z M 46.375 -19.09375 "/></g></g></g><g fill="#000000" fill-opacity="1"><g transform="translate(539.231833, 437.382187)"><g><path d="M 22.734375 -37.84375 L 39.4375 1.015625 L 45.6875 -2.15625 L 27.734375 -43.875 L 32.84375 -50.125 C 39.4375 -58.1875 41.9375 -61.375 41.9375 -67.390625 C 41.9375 -75.015625 37.171875 -79.5625 27.046875 -79.5625 L 8.75 -79.5625 L 8.75 0 L 15.6875 0 L 15.6875 -29.328125 Z M 15.6875 -38.640625 L 15.6875 -72.96875 L 27.15625 -72.96875 C 32.171875 -72.96875 34.78125 -71.15625 34.78125 -67.0625 C 34.78125 -62.859375 33.640625 -60.578125 28.75 -54.5625 Z M 15.6875 -38.640625 "/></g></g></g><g fill="#000000" fill-opacity="1"><g transform="translate(588.104634, 437.382187)"><g/></g></g><g fill="#000000" fill-opacity="1"><g transform="translate(605.153281, 437.382187)"><g><path d="M 40.796875 -9.546875 L 35.125 -12.734375 C 32.84375 -8.40625 30.453125 -5.5625 25.34375 -5.5625 C 12.734375 -5.5625 10.90625 -25.796875 10.90625 -41.828125 C 10.90625 -56.03125 12.734375 -74.5625 24.78125 -74.5625 C 27.734375 -74.5625 31.828125 -73.53125 35.578125 -66.71875 L 40.796875 -70.359375 C 37.5 -77.515625 30.921875 -81.15625 25.90625 -81.15625 C 11.25 -81.15625 3.75 -67.390625 3.75 -40.125 C 3.75 -11.9375 10.796875 1.140625 24.78125 1.140625 C 31.828125 1.140625 37.5 -2.734375 40.796875 -9.546875 Z M 40.796875 -9.546875 "/></g></g></g><g fill="#000000" fill-opacity="1"><g transform="translate(647.661251, 437.382187)"><g><path d="M 36.25 -12.390625 L 38.75 0 L 45.6875 0 L 28.75 -79.5625 L 20.34375 -79.5625 L 4.3125 0 L 11.03125 0 L 17.390625 -32.953125 Z M 33.875 -24.328125 L 18.984375 -40.578125 L 24.546875 -69.4375 Z M 33.875 -24.328125 "/></g></g></g><g fill="#000000" fill-opacity="1"><g transform="translate(697.443304, 437.382187)"><g><path d="M 23.875 -45.6875 C 17.84375 -51.71875 13.078125 -57.0625 12.953125 -65.015625 C 12.84375 -70.578125 15.234375 -74.109375 19.4375 -74.109375 C 22.625 -74.109375 24.203125 -72.625 26.484375 -67.96875 L 33.078125 -70.6875 C 29.890625 -77.96875 25.90625 -81.15625 19.4375 -81.15625 C 11.9375 -81.15625 5.796875 -75.015625 5.90625 -64.890625 C 6.03125 -54.09375 11.703125 -47.171875 19.328125 -39.78125 C 26.9375 -32.390625 30 -27.734375 30 -19.65625 C 30 -14.890625 28.875 -5.90625 19.328125 -5.90625 C 14.546875 -5.90625 11.703125 -7.28125 7.84375 -12.609375 L 1.703125 -9.203125 C 6.484375 -2.046875 11.03125 1.140625 18.984375 1.140625 C 29.78125 1.140625 37.046875 -7.609375 37.046875 -20.453125 C 37.046875 -31.59375 31.375 -38.1875 23.875 -45.6875 Z M 23.875 -45.6875 "/></g></g></g><g fill="#000000" fill-opacity="1"><g transform="translate(736.655187, 437.382187)"><g><path d="M 8.75 -79.5625 L 8.75 0 L 33.1875 0 L 33.1875 -6.703125 L 15.6875 -6.703125 L 15.6875 -53.078125 L 26.484375 -53.078125 L 26.484375 -59.21875 L 15.6875 -59.21875 L 15.6875 -72.96875 L 33.1875 -72.96875 L 33.1875 -79.5625 Z M 8.75 -79.5625 "/></g></g></g><g fill="#9883fd" fill-opacity="1"><g transform="translate(327.065158, 474.765914)"><g><path d="M 7.46875 1.359375 C 7.3125 1.875 7.59375 2.421875 8.109375 2.578125 C 8.609375 2.734375 9.140625 2.421875 9.296875 1.90625 L 10.96875 -3.640625 L 19.40625 -10.109375 C 19.59375 -10.265625 19.8125 -10.484375 19.875 -10.71875 C 20.015625 -11.1875 19.75 -11.71875 19.234375 -11.875 C 18.84375 -12 18.5625 -11.84375 18.234375 -11.59375 L 10.5625 -5.546875 L 7.5625 -14.796875 C 7.4375 -15.203125 7.234375 -15.484375 6.84375 -15.609375 C 6.34375 -15.765625 5.78125 -15.46875 5.640625 -15 C 5.578125 -14.765625 5.609375 -14.53125 5.65625 -14.3125 L 9.125 -4.140625 Z M 7.46875 1.359375 "/></g></g></g><g fill="#9883fd" fill-opacity="1"><g transform="translate(343.581982, 479.720958)"><g><path d="M 7.40625 2.203125 C 11.03125 3.140625 14.453125 0.953125 15.328125 -2.421875 L 15.34375 -2.46875 C 16.21875 -5.875 14.296875 -9.375 10.703125 -10.3125 C 7.078125 -11.25 3.6875 -9.0625 2.796875 -5.65625 L 2.796875 -5.609375 C 1.90625 -2.234375 3.8125 1.265625 7.40625 2.203125 Z M 7.875 0.625 C 5.328125 -0.03125 3.96875 -2.625 4.625 -5.1875 L 4.640625 -5.234375 C 5.296875 -7.78125 7.65625 -9.421875 10.25 -8.75 C 12.78125 -8.09375 14.171875 -5.484375 13.5 -2.890625 L 13.5 -2.84375 C 12.84375 -0.328125 10.484375 1.296875 7.875 0.625 Z M 7.875 0.625 "/></g></g></g><g fill="#9883fd" fill-opacity="1"><g transform="translate(358.82086, 483.657133)"><g><path d="M 14.90625 -8.59375 C 15.015625 -9.109375 14.703125 -9.59375 14.203125 -9.703125 C 13.6875 -9.8125 13.234375 -9.5 13.125 -8.984375 L 11.765625 -2.828125 C 11.265625 -0.5625 9.359375 0.609375 7.296875 0.15625 C 5.171875 -0.328125 4.234375 -2 4.734375 -4.234375 L 6.125 -10.53125 C 6.234375 -11.046875 5.90625 -11.53125 5.421875 -11.640625 C 4.90625 -11.75 4.4375 -11.4375 4.328125 -10.921875 L 2.84375 -4.1875 C 2.203125 -1.296875 3.484375 1.046875 6.40625 1.6875 C 8.5 2.15625 9.96875 1.359375 11.09375 0.234375 L 10.796875 1.546875 C 10.6875 2.0625 10.984375 2.546875 11.46875 2.65625 C 12 2.78125 12.46875 2.421875 12.578125 1.9375 Z M 14.90625 -8.59375 "/></g></g></g><g fill="#9883fd" fill-opacity="1"><g transform="translate(373.433529, 486.822868)"><g/></g></g><g fill="#9883fd" fill-opacity="1"><g transform="translate(380.688664, 488.310924)"><g><path d="M 2.5 -0.5625 C 2.40625 -0.0625 2.78125 0.453125 3.265625 0.53125 L 8.09375 1.296875 C 13.3125 2.140625 17.5 -0.90625 18.25 -5.578125 L 18.265625 -5.625 C 19.015625 -10.28125 15.96875 -14.4375 10.75 -15.28125 L 5.921875 -16.046875 C 5.4375 -16.125 4.9375 -15.796875 4.859375 -15.265625 Z M 4.5 -1.0625 L 6.609375 -14.1875 L 10.484375 -13.5625 C 14.6875 -12.890625 16.90625 -9.5625 16.3125 -5.890625 L 16.3125 -5.84375 C 15.71875 -2.15625 12.578125 0.234375 8.375 -0.4375 Z M 4.5 -1.0625 "/></g></g></g><g fill="#9883fd" fill-opacity="1"><g transform="translate(399.478757, 491.275413)"><g><path d="M 3.984375 -6.46875 C 4.484375 -8.84375 6.34375 -10.4375 8.484375 -10.171875 C 10.9375 -9.875 11.984375 -7.765625 11.90625 -5.515625 Z M 12.265625 -0.109375 C 12.46875 -0.265625 12.59375 -0.46875 12.625 -0.6875 C 12.671875 -1.109375 12.359375 -1.515625 11.921875 -1.5625 C 11.703125 -1.59375 11.515625 -1.515625 11.359375 -1.421875 C 10.359375 -0.6875 9.171875 -0.21875 7.640625 -0.40625 C 5.453125 -0.65625 3.75 -2.40625 3.8125 -5.09375 L 12.703125 -4.015625 C 13.15625 -3.96875 13.625 -4.28125 13.6875 -4.796875 C 14.078125 -8.0625 12.359375 -11.28125 8.71875 -11.71875 C 5.296875 -12.125 2.453125 -9.578125 2.015625 -6.015625 L 2.015625 -5.96875 C 1.5625 -2.15625 4.015625 0.765625 7.40625 1.171875 C 9.5 1.421875 10.953125 0.859375 12.265625 -0.109375 Z M 12.265625 -0.109375 "/></g></g></g><g fill="#9883fd" fill-opacity="1"><g transform="translate(413.788683, 492.970686)"><g><path d="M 6.125 0.78125 C 8.59375 1 10.625 -0.203125 10.84375 -2.546875 L 10.84375 -2.59375 C 11.03125 -4.828125 9.0625 -5.71875 7.1875 -6.46875 C 5.59375 -7.109375 4.09375 -7.71875 4.203125 -8.890625 L 4.203125 -8.9375 C 4.296875 -9.953125 5.296875 -10.640625 6.765625 -10.5 C 7.796875 -10.40625 8.890625 -9.953125 9.90625 -9.28125 C 10 -9.234375 10.125 -9.171875 10.296875 -9.15625 C 10.75 -9.109375 11.125 -9.421875 11.171875 -9.84375 C 11.203125 -10.203125 11.03125 -10.484375 10.796875 -10.65625 C 9.65625 -11.421875 8.25 -11.953125 6.953125 -12.0625 C 4.5 -12.28125 2.609375 -11.015625 2.421875 -8.90625 L 2.421875 -8.859375 C 2.21875 -6.578125 4.3125 -5.71875 6.203125 -5 C 7.78125 -4.40625 9.203125 -3.78125 9.09375 -2.546875 L 9.078125 -2.484375 C 8.984375 -1.296875 7.828125 -0.625 6.34375 -0.765625 C 5.015625 -0.875 3.734375 -1.46875 2.546875 -2.421875 C 2.421875 -2.53125 2.28125 -2.59375 2.125 -2.59375 C 1.671875 -2.640625 1.28125 -2.3125 1.234375 -1.890625 C 1.203125 -1.59375 1.34375 -1.328125 1.5 -1.1875 C 2.75 -0.125 4.5 0.625 6.125 0.78125 Z M 6.125 0.78125 "/></g></g></g><g fill="#9883fd" fill-opacity="1"><g transform="translate(425.836406, 493.999297)"><g><path d="M 3.109375 -15.8125 C 3.078125 -15.234375 3.53125 -14.796875 4.125 -14.765625 C 4.734375 -14.71875 5.25 -15.09375 5.28125 -15.671875 L 5.3125 -15.984375 C 5.34375 -16.578125 4.890625 -17 4.28125 -17.046875 C 3.6875 -17.078125 3.171875 -16.71875 3.140625 -16.125 Z M 2.28125 -0.671875 C 2.25 -0.140625 2.625 0.296875 3.15625 0.328125 C 3.671875 0.375 4.078125 -0.015625 4.109375 -0.546875 L 4.828125 -11.296875 C 4.859375 -11.828125 4.484375 -12.265625 3.96875 -12.296875 C 3.46875 -12.328125 3.03125 -11.921875 3 -11.421875 Z M 2.28125 -0.671875 "/></g></g></g><g fill="#9883fd" fill-opacity="1"><g transform="translate(432.305719, 494.488293)"><g><path d="M 7.40625 4.1875 C 9.375 4.265625 11.046875 3.78125 12.171875 2.71875 C 13.234375 1.734375 13.875 0.3125 13.9375 -1.609375 L 14.3125 -11.03125 C 14.328125 -11.53125 13.9375 -11.984375 13.40625 -12.015625 C 12.875 -12.03125 12.484375 -11.609375 12.46875 -11.109375 L 12.40625 -9.703125 C 11.453125 -11.0625 10 -12.28125 7.671875 -12.375 C 4.71875 -12.484375 1.75 -10.375 1.609375 -6.765625 L 1.609375 -6.71875 C 1.46875 -3.140625 4.234375 -0.796875 7.203125 -0.671875 C 9.484375 -0.578125 11.03125 -1.71875 12.171875 -3.109375 L 12.109375 -1.640625 C 12 1.265625 10.15625 2.703125 7.4375 2.59375 C 5.828125 2.53125 4.359375 2 3.109375 1.078125 C 3 1.015625 2.875 0.953125 2.703125 0.953125 C 2.265625 0.9375 1.84375 1.328125 1.828125 1.734375 C 1.8125 2.0625 2 2.359375 2.28125 2.515625 C 3.8125 3.546875 5.5 4.109375 7.40625 4.1875 Z M 7.625 -2.296875 C 5.328125 -2.390625 3.40625 -4.1875 3.5 -6.6875 L 3.5 -6.734375 C 3.59375 -9.28125 5.625 -10.828125 7.96875 -10.734375 C 10.328125 -10.640625 12.4375 -8.921875 12.34375 -6.375 L 12.34375 -6.328125 C 12.25 -3.828125 9.984375 -2.203125 7.625 -2.296875 Z M 7.625 -2.296875 "/></g></g></g><g fill="#9883fd" fill-opacity="1"><g transform="translate(448.46812, 495.104592)"><g><path d="M 2.0625 -0.8125 C 2.0625 -0.28125 2.46875 0.125 3 0.125 C 3.53125 0.125 3.90625 -0.265625 3.90625 -0.796875 L 3.921875 -7.09375 C 3.921875 -9.421875 5.515625 -10.96875 7.640625 -10.96875 C 9.828125 -10.96875 11.078125 -9.53125 11.078125 -7.234375 L 11.0625 -0.796875 C 11.0625 -0.265625 11.46875 0.140625 12 0.15625 C 12.5 0.15625 12.90625 -0.25 12.90625 -0.78125 L 12.921875 -7.671875 C 12.921875 -10.625 11.1875 -12.65625 8.1875 -12.65625 C 6.0625 -12.65625 4.75 -11.578125 3.921875 -10.234375 L 3.921875 -11.578125 C 3.9375 -12.109375 3.53125 -12.53125 3 -12.53125 C 2.5 -12.53125 2.09375 -12.09375 2.078125 -11.59375 Z M 2.0625 -0.8125 "/></g></g></g><g fill="#9883fd" fill-opacity="1"><g transform="translate(463.409264, 495.077491)"><g><path d="M 1.140625 2.375 C 1.140625 2.65625 1.328125 2.84375 1.640625 2.84375 C 2.03125 2.828125 2.78125 2.453125 3.265625 1.9375 C 3.796875 1.375 4.09375 0.484375 4.0625 -0.953125 L 4.046875 -1.40625 C 4.03125 -2.203125 3.53125 -2.71875 2.84375 -2.703125 C 2.1875 -2.6875 1.75 -2.203125 1.765625 -1.578125 L 1.765625 -1.203125 C 1.78125 -0.546875 2.234375 -0.171875 2.734375 -0.0625 C 2.796875 0.875 2.40625 1.484375 1.4375 1.9375 C 1.25 2.015625 1.125 2.171875 1.140625 2.375 Z M 1.140625 2.375 "/></g></g></g><g fill="#9883fd" fill-opacity="1"><g transform="translate(469.389169, 494.945175)"><g/></g></g><g fill="#9883fd" fill-opacity="1"><g transform="translate(476.861146, 494.845457)"><g><path d="M 6.6875 -1.125 C 6.890625 -0.640625 7.25 -0.359375 7.71875 -0.390625 L 7.859375 -0.40625 C 8.34375 -0.4375 8.640625 -0.8125 8.78125 -1.296875 L 12.09375 -14.515625 L 17.453125 -1.984375 C 17.65625 -1.53125 18.03125 -1.203125 18.5 -1.25 L 18.65625 -1.265625 C 19.125 -1.296875 19.4375 -1.671875 19.578125 -2.15625 L 23.75 -17.46875 C 23.796875 -17.609375 23.84375 -17.78125 23.828125 -17.921875 C 23.796875 -18.40625 23.296875 -18.828125 22.796875 -18.796875 C 22.34375 -18.75 22.0625 -18.421875 21.9375 -17.96875 L 18.359375 -4.234375 L 12.921875 -17.25 C 12.75 -17.671875 12.40625 -17.96875 11.921875 -17.921875 L 11.8125 -17.921875 C 11.3125 -17.875 11.0625 -17.546875 10.953125 -17.09375 L 7.625 -3.390625 L 1.9375 -16.328125 C 1.765625 -16.765625 1.375 -17.09375 0.90625 -17.046875 C 0.390625 -17.015625 -0.03125 -16.515625 0 -16 C 0.015625 -15.859375 0.078125 -15.734375 0.140625 -15.59375 Z M 6.6875 -1.125 "/></g></g></g><g fill="#9883fd" fill-opacity="1"><g transform="translate(503.499651, 492.574427)"><g><path d="M 2.265625 -7.234375 C 2.1875 -9.671875 3.578125 -11.65625 5.71875 -11.9375 C 8.171875 -12.25 9.703125 -10.46875 10.1875 -8.25 Z M 11.875 -3.125 C 12.046875 -3.3125 12.09375 -3.546875 12.0625 -3.765625 C 12.015625 -4.1875 11.625 -4.484375 11.171875 -4.421875 C 10.953125 -4.390625 10.78125 -4.28125 10.65625 -4.171875 C 9.875 -3.203125 8.828125 -2.453125 7.296875 -2.265625 C 5.109375 -1.984375 3.046875 -3.25 2.4375 -5.875 L 11.34375 -7.015625 C 11.78125 -7.078125 12.15625 -7.484375 12.09375 -8 C 11.671875 -11.25 9.203125 -13.953125 5.5625 -13.484375 C 2.15625 -13.046875 0.03125 -9.890625 0.484375 -6.34375 L 0.5 -6.296875 C 0.984375 -2.484375 4.078125 -0.234375 7.453125 -0.671875 C 9.546875 -0.9375 10.828125 -1.859375 11.875 -3.125 Z M 11.875 -3.125 "/></g></g></g><g fill="#9883fd" fill-opacity="1"><g transform="translate(517.747184, 490.691797)"><g/></g></g><g fill="#9883fd" fill-opacity="1"><g transform="translate(525.051942, 489.6182)"><g><path d="M 2.171875 -1.25 C 2.265625 -0.734375 2.78125 -0.390625 3.265625 -0.46875 C 3.796875 -0.578125 4.125 -1.078125 4.03125 -1.59375 L 3.109375 -6.59375 L 7.140625 -7.34375 C 10.640625 -7.984375 13.296875 -10.375 12.640625 -13.9375 L 12.625 -13.984375 C 12.03125 -17.234375 9.21875 -18.765625 5.484375 -18.078125 L 0.21875 -17.109375 C -0.265625 -17.03125 -0.640625 -16.53125 -0.53125 -16 Z M 2.796875 -8.296875 L 1.46875 -15.5625 L 5.65625 -16.34375 C 8.328125 -16.828125 10.3125 -15.921875 10.75 -13.578125 L 10.75 -13.53125 C 11.15625 -11.34375 9.625 -9.5625 6.890625 -9.0625 Z M 2.796875 -8.296875 "/></g></g></g><g fill="#9883fd" fill-opacity="1"><g transform="translate(541.004092, 486.631248)"><g><path d="M 1.84375 -1.234375 C 1.953125 -0.71875 2.4375 -0.390625 2.96875 -0.515625 C 3.484375 -0.625 3.75 -1.140625 3.640625 -1.625 L 2.75 -5.765625 C 2 -9.25 3.546875 -11.421875 5.828125 -12.21875 C 6.28125 -12.390625 6.53125 -12.8125 6.4375 -13.296875 C 6.3125 -13.8125 5.875 -14.140625 5.34375 -14.03125 C 3.8125 -13.703125 2.328125 -12.09375 1.859375 -9.890625 L 1.359375 -12.15625 C 1.25 -12.671875 0.765625 -12.984375 0.25 -12.875 C -0.25 -12.765625 -0.546875 -12.265625 -0.4375 -11.765625 Z M 1.84375 -1.234375 "/></g></g></g><g fill="#9883fd" fill-opacity="1"><g transform="translate(550.62086, 484.533352)"><g><path d="M -1.671875 -16.03125 C -1.546875 -15.46875 -0.96875 -15.1875 -0.390625 -15.3125 C 0.21875 -15.453125 0.59375 -15.984375 0.46875 -16.546875 L 0.390625 -16.84375 C 0.25 -17.421875 -0.3125 -17.671875 -0.921875 -17.53125 C -1.5 -17.40625 -1.890625 -16.90625 -1.75 -16.328125 Z M 1.984375 -1.3125 C 2.109375 -0.796875 2.59375 -0.484375 3.125 -0.609375 C 3.640625 -0.734375 3.90625 -1.21875 3.78125 -1.734375 L 1.296875 -12.21875 C 1.171875 -12.734375 0.6875 -13.03125 0.171875 -12.90625 C -0.328125 -12.796875 -0.609375 -12.28125 -0.5 -11.796875 Z M 1.984375 -1.3125 "/></g></g></g><g fill="#9883fd" fill-opacity="1"><g transform="translate(556.936752, 483.09162)"><g><path d="M 1.796875 -1.3125 C 1.921875 -0.796875 2.421875 -0.5 2.9375 -0.640625 C 3.453125 -0.78125 3.703125 -1.265625 3.578125 -1.78125 L 1.96875 -7.875 C 1.375 -10.125 2.515625 -12.03125 4.578125 -12.5625 C 6.6875 -13.125 8.265625 -12.046875 8.859375 -9.828125 L 10.5 -3.59375 C 10.625 -3.078125 11.125 -2.796875 11.640625 -2.9375 C 12.125 -3.0625 12.40625 -3.5625 12.28125 -4.078125 L 10.515625 -10.75 C 9.765625 -13.59375 7.546875 -15.09375 4.65625 -14.328125 C 2.59375 -13.78125 1.625 -12.40625 1.171875 -10.90625 L 0.828125 -12.203125 C 0.6875 -12.71875 0.203125 -13.015625 -0.3125 -12.875 C -0.796875 -12.75 -1.078125 -12.21875 -0.953125 -11.734375 Z M 1.796875 -1.3125 "/></g></g></g><g fill="#9883fd" fill-opacity="1"><g transform="translate(571.403957, 479.236863)"><g><path d="M 6.03125 -1.5625 C 6.71875 -1.765625 7.234375 -2.03125 7.6875 -2.40625 C 7.953125 -2.59375 8.078125 -2.90625 7.984375 -3.234375 C 7.859375 -3.640625 7.40625 -3.890625 7.015625 -3.765625 C 6.859375 -3.71875 6.578125 -3.46875 5.953125 -3.28125 C 4.765625 -2.9375 3.796875 -3.234375 3.375 -4.6875 L 1.328125 -11.640625 L 4.421875 -12.546875 C 4.84375 -12.671875 5.09375 -13.125 4.96875 -13.5625 C 4.84375 -13.96875 4.375 -14.21875 3.953125 -14.09375 L 0.859375 -13.1875 L 0.03125 -16.015625 C -0.109375 -16.484375 -0.65625 -16.765625 -1.140625 -16.625 C -1.640625 -16.46875 -1.875 -15.953125 -1.734375 -15.484375 L -0.90625 -12.65625 L -1.875 -12.375 C -2.296875 -12.25 -2.546875 -11.796875 -2.421875 -11.375 C -2.296875 -10.953125 -1.828125 -10.703125 -1.40625 -10.828125 L -0.4375 -11.109375 L 1.6875 -3.90625 C 2.390625 -1.5 4.109375 -0.984375 6.03125 -1.5625 Z M 6.03125 -1.5625 "/></g></g></g><g fill="#9883fd" fill-opacity="1"><g transform="translate(580.811909, 476.439062)"><g><path d="M 1.265625 -1.984375 L 1.40625 -1.53125 C 1.59375 -0.921875 2.203125 -0.5625 2.84375 -0.765625 C 3.453125 -0.953125 3.765625 -1.609375 3.578125 -2.21875 L 3.4375 -2.671875 C 3.234375 -3.296875 2.625 -3.59375 2.015625 -3.40625 C 1.375 -3.203125 1.0625 -2.609375 1.265625 -1.984375 Z M 1.265625 -1.984375 "/></g></g></g></svg>