<svg version="1.1" id="Layer_1" xmlns="http://www.w3.org/2000/svg" xmlns:xlink="http://www.w3.org/1999/xlink" x="0px" y="0px"
	 width="100%" viewBox="0 0 1080 309" enable-background="new 0 0 1080 309" xml:space="preserve">
<path fill="#FEFEFE" opacity="1.000000" stroke="none" 
	d="
M791.000000,310.000000 
	C527.333374,310.000000 264.166748,310.000000 1.000106,310.000000 
	C1.000071,207.000061 1.000071,104.000130 1.000035,1.000147 
	C360.999878,1.000098 720.999756,1.000098 1080.999756,1.000049 
	C1080.999756,103.999847 1080.999756,206.999695 1080.999878,309.999756 
	C984.500000,310.000000 888.000000,310.000000 791.000000,310.000000 
M374.790466,181.271912 
	C384.253204,180.196259 393.005737,177.260574 400.178558,170.786987 
	C410.572449,161.406357 410.595093,148.150543 399.858826,139.174240 
	C395.365143,135.417160 389.846405,132.886093 383.508148,129.011795 
	C389.489044,129.595901 394.473053,129.974716 399.426910,130.594696 
	C405.200897,131.317307 409.093201,126.974152 407.468079,121.359634 
	C406.250732,117.153870 403.313873,115.001259 398.993530,114.984711 
	C388.917297,114.946121 382.113007,119.908401 378.348999,129.112610 
	C375.763947,128.877304 373.449158,128.555817 371.125885,128.473709 
	C359.137207,128.050049 347.873871,130.509323 338.342987,138.109131 
	C326.175934,147.811005 326.192413,161.778061 338.126709,171.734421 
	C340.335419,173.577057 342.822327,175.086182 345.936523,177.282089 
	C344.707489,178.105865 343.482452,178.477646 343.114838,179.254913 
	C341.856812,181.914993 339.365417,185.413376 340.216278,187.289505 
	C341.280823,189.636673 345.007874,191.373383 347.911102,192.138504 
	C351.545044,193.096191 355.509155,192.808945 359.331848,193.041336 
	C373.889496,193.926376 386.632233,203.260239 390.389435,215.799240 
	C392.916992,224.234528 390.132202,231.464432 383.266327,233.656097 
	C368.330566,238.423737 348.252838,224.393417 351.505707,208.601334 
	C351.959015,206.400497 350.088867,202.627426 348.122620,201.226471 
	C342.165710,196.982086 329.365570,199.378815 324.610779,204.961594 
	C320.702576,209.550339 321.886597,216.021484 327.988190,223.347763 
	C328.520294,223.986679 329.105865,224.582123 329.681030,225.183960 
	C337.731323,233.607407 347.927277,237.635040 359.135040,239.681030 
	C378.585510,243.231720 398.949127,232.493622 406.178070,214.796967 
	C411.007080,202.975586 407.532104,192.076904 397.012970,185.884644 
	C389.738403,181.602325 381.940613,182.535660 374.164856,183.579559 
	C367.085663,184.529938 360.057007,185.945938 352.954498,186.557663 
	C351.535400,186.679901 348.414948,183.749557 348.632324,182.830994 
	C349.147583,180.653656 350.668945,178.953171 354.152985,179.584442 
	C360.635651,180.759079 367.314209,180.852737 374.790466,181.271912 
M115.365776,106.051193 
	C96.762161,101.052803 77.956276,104.106941 58.159447,103.348244 
	C59.320145,105.475456 59.522404,106.410973 60.097713,106.814072 
	C66.653099,111.407242 67.509575,118.078705 67.429276,125.376770 
	C67.251541,141.529282 67.275009,157.685959 67.419739,173.839127 
	C67.480858,180.660767 66.374710,186.755524 60.311806,190.974686 
	C59.625473,191.452316 59.400284,192.592606 58.622875,194.067642 
	C60.484173,194.402817 61.850143,194.857697 63.217663,194.862396 
	C75.374733,194.904160 87.543320,195.168289 99.684334,194.716888 
	C105.255463,194.509750 110.989685,193.501816 116.276566,191.737915 
	C138.840744,184.209656 152.190933,163.055237 147.880768,141.060822 
	C144.403915,123.318817 132.592651,112.508667 115.365776,106.051193 
M465.950073,154.799484 
	C466.049957,155.626358 466.157074,156.452438 466.248657,157.280243 
	C467.541229,168.961655 468.465057,180.518097 460.612579,190.740387 
	C458.265350,193.795975 460.614380,194.857880 463.418182,194.869492 
	C474.580994,194.915756 485.744263,194.915329 496.906891,194.849030 
	C497.937958,194.842911 498.965576,194.247787 500.494293,193.770081 
	C499.606659,192.395920 499.213531,191.205353 498.390076,190.606689 
	C492.949585,186.651642 491.648682,181.137054 491.702271,174.795090 
	C491.754272,168.647339 491.872406,162.395096 490.881927,156.366119 
	C489.006897,144.953094 483.444061,135.704819 472.331757,130.937775 
	C462.793823,126.846115 453.711029,126.754692 446.049500,136.569611 
	C446.442444,133.168854 446.695801,130.976059 447.124725,127.263763 
	C434.890015,133.289413 425.470490,142.871689 411.188904,141.587875 
	C412.211121,143.689636 412.396484,144.834747 413.062836,145.321884 
	C419.319550,149.895920 420.538147,156.316971 420.143646,163.489807 
	C419.933533,167.310364 419.986237,171.156464 420.131866,174.982971 
	C420.366577,181.150085 418.922821,186.485092 413.700836,190.404160 
	C412.831635,191.056503 412.623077,192.589081 412.109222,193.714890 
	C413.138794,194.107071 414.165802,194.832260 415.198303,194.840134 
	C426.027466,194.922775 436.857880,194.932571 447.686737,194.830902 
	C448.879761,194.819687 450.554352,194.296906 451.095764,193.437927 
	C451.512207,192.777206 450.573700,191.183640 450.106873,190.059204 
	C448.415222,185.984482 445.713379,182.060211 445.150146,177.844391 
	C444.120209,170.135132 443.653534,162.201462 444.294250,154.472656 
	C444.695312,149.634979 446.899811,144.605911 449.469330,140.376053 
	C452.606232,135.212265 457.478333,135.390457 460.526337,140.624893 
	C462.905701,144.711044 464.098907,149.487885 465.950073,154.799484 
M176.881287,130.192276 
	C175.334396,130.797211 173.759369,131.339233 172.245041,132.016953 
	C159.285172,137.817108 151.068634,150.898788 152.279358,163.757141 
	C153.669388,178.519867 164.617630,190.634888 179.496902,193.875366 
	C194.916092,197.233459 211.579315,190.791199 218.780106,178.510818 
	C219.449951,177.368439 219.071777,175.611557 219.180222,174.139969 
	C217.816864,174.538239 216.083191,174.537323 215.151810,175.401276 
	C210.088715,180.097931 204.079865,182.091171 197.350952,181.867447 
	C189.381546,181.602493 182.680328,175.894852 181.785965,168.800125 
	C191.706894,172.283707 201.220398,171.749573 209.887970,165.582581 
	C221.509308,157.313980 221.747406,144.033890 210.396194,135.474762 
	C200.510468,128.020630 189.403458,126.897682 176.881287,130.192276 
M226.751999,185.612991 
	C239.328308,198.237030 264.971466,197.812881 276.994385,184.781952 
	C282.404816,178.917923 282.748627,171.836075 277.283234,166.013260 
	C274.369446,162.908905 270.689331,160.478516 267.181610,157.988327 
	C262.718506,154.819901 257.946167,152.078369 253.560028,148.813080 
	C250.217957,146.325012 247.922501,142.782089 249.044601,138.466812 
	C249.512863,136.666061 251.751556,135.325668 253.185272,133.775970 
	C254.552109,135.173737 256.233978,136.389893 257.179688,138.030441 
	C257.857605,139.206421 257.544983,140.950745 257.683807,142.440628 
	C258.190277,147.876389 261.441162,150.974152 267.519562,151.818832 
	C273.048859,152.587189 278.889923,150.155624 280.508118,146.411819 
	C282.026367,142.899277 279.919403,137.948578 275.202698,134.554581 
	C273.333435,133.209503 271.262360,131.991226 269.101593,131.232010 
	C260.453339,128.193329 251.593735,127.354599 242.615082,129.599594 
	C233.589600,131.856308 225.789597,135.974670 224.248962,146.146973 
	C222.720932,156.235992 229.663101,161.488327 237.244156,165.984619 
	C238.100769,166.492691 238.994278,166.939072 239.845703,167.455261 
	C243.817276,169.863068 248.105316,171.896667 251.627762,174.843842 
	C253.848343,176.701782 255.650711,179.766144 256.301086,182.597092 
	C256.961700,185.472549 255.849167,189.004639 251.980591,189.225555 
	C247.991318,189.453384 247.963455,186.131454 247.813721,183.222794 
	C247.352158,174.256744 241.641495,169.850876 232.740891,171.562088 
	C224.474686,173.151352 222.276230,177.739761 226.751999,185.612991 
M623.888550,196.626114 
	C633.020935,192.214447 636.669556,183.906219 638.913330,174.845367 
	C642.675293,159.653183 642.960327,144.140533 641.346985,128.710587 
	C640.475647,120.376976 638.397034,112.059540 635.884155,104.041603 
	C633.784546,97.342361 629.000061,92.334763 622.021240,89.999893 
	C610.031372,85.988518 598.726807,90.914421 592.986084,102.756195 
	C588.012756,113.014999 586.952393,124.124146 586.508728,135.276672 
	C585.878784,151.111328 585.972229,166.960205 591.907471,181.995071 
	C597.555908,196.303604 608.728760,201.446014 623.888550,196.626114 
M742.810974,155.686066 
	C745.221863,152.818756 747.632690,149.951447 750.342102,146.729111 
	C754.316650,155.899765 758.006897,164.384857 761.672546,172.880569 
	C765.309570,181.310074 768.921936,189.750229 772.624084,198.369690 
	C775.718994,196.775116 778.177002,195.508682 780.901672,194.104858 
	C773.437744,176.702133 766.231873,159.625259 758.738770,142.675400 
	C757.329651,139.487976 757.666626,137.477493 759.845520,134.846283 
	C764.607361,129.096054 769.580688,123.365005 773.316833,116.955353 
	C780.048035,105.407593 774.848145,93.238853 762.114502,91.659874 
	C752.189941,90.429214 741.990784,91.413559 731.996643,91.413559 
	C731.996643,126.589409 731.996643,161.633728 731.996643,196.642029 
	C735.129517,196.642029 737.997070,196.642029 740.966553,196.642029 
	C740.966553,184.798325 740.909302,173.320007 741.024048,161.843445 
	C741.042725,159.972260 741.821716,158.108688 742.810974,155.686066 
M887.170593,112.553513 
	C881.573486,140.560074 875.976318,168.566635 870.332336,196.807831 
	C873.322937,196.807831 876.114136,196.807831 879.215759,196.807831 
	C881.997620,182.538300 884.777405,168.279282 887.727356,153.147415 
	C891.722046,157.495926 894.902527,161.318192 898.455444,164.755447 
	C907.634949,173.636154 915.795471,183.011414 916.341614,196.741287 
	C919.261719,196.741287 922.175232,196.741287 925.393921,196.741287 
	C917.855957,161.344467 910.386597,126.269821 902.943359,91.317856 
	C898.926453,91.317856 895.197510,91.317856 891.547607,91.317856 
	C890.100464,98.378670 888.732910,105.051323 887.170593,112.553513 
M658.054749,117.500000 
	C658.055298,135.494263 657.999939,153.488785 658.080811,171.482697 
	C658.119385,180.074600 659.647522,188.366348 667.327087,193.570435 
	C676.442871,199.747787 686.546509,199.907501 696.365417,195.665375 
	C705.469910,191.731903 708.959595,183.586441 709.039856,174.180084 
	C709.271606,147.025009 709.208862,119.867409 709.247986,92.710793 
	C709.248657,92.251884 709.076355,91.792732 708.970825,91.263985 
	C705.981628,91.263985 703.112671,91.263985 700.045166,91.263985 
	C700.045166,93.573212 700.046997,95.554123 700.044983,97.535027 
	C700.019714,122.859978 700.124146,148.186066 699.904541,173.509338 
	C699.815918,183.734818 694.434143,189.458206 685.506836,189.877670 
	C675.014709,190.370651 668.870239,185.172775 667.670288,174.692795 
	C667.405762,172.382782 667.307495,170.042450 667.302979,167.715744 
	C667.272034,151.887466 667.286621,136.059097 667.286560,120.230766 
	C667.286560,110.611389 667.286560,100.992004 667.286560,91.253853 
	C664.020386,91.253853 661.149902,91.253853 658.054749,91.253853 
	C658.054749,99.881081 658.054749,108.190536 658.054749,117.500000 
M953.631897,140.864410 
	C957.584045,145.133713 961.855225,149.154678 965.415222,153.729172 
	C971.083130,161.012283 972.244202,169.433701 970.038025,178.308884 
	C968.205505,185.680618 963.478455,189.001953 955.984558,189.073013 
	C949.226746,189.137100 945.177429,184.910049 941.251770,180.304413 
	C938.530151,181.813629 936.112488,183.154266 933.707214,184.488068 
	C939.613953,195.652298 949.915710,200.475403 961.830933,197.925751 
	C971.435303,195.870575 978.853699,186.220779 980.082275,174.845322 
	C981.444153,162.236267 977.431335,151.633774 968.947632,142.492401 
	C964.307617,137.492630 959.434448,132.686478 955.084961,127.445694 
	C949.658997,120.907883 946.529602,113.300346 949.215637,104.819244 
	C950.045410,102.199226 953.252075,99.163673 955.851624,98.620262 
	C958.178955,98.133743 961.315918,100.586365 963.803528,102.194099 
	C965.049194,102.999184 965.643555,104.811935 966.601624,106.274513 
	C969.537720,105.023315 972.251221,103.866943 975.040588,102.678261 
	C971.848145,95.574493 967.808105,89.852936 959.619995,88.993912 
	C948.254456,87.801559 939.872498,95.506042 939.003113,107.586220 
	C938.037842,120.997231 944.270264,131.228607 953.631897,140.864410 
M295.486206,140.312683 
	C291.978882,140.956543 288.471588,141.600388 283.969482,142.426865 
	C285.434357,144.241379 286.161163,145.486130 287.197845,146.365524 
	C291.443939,149.967422 293.296234,154.505829 293.099762,160.027695 
	C292.981415,163.354095 293.047485,166.689835 293.116608,170.019592 
	C293.280487,177.917419 293.644562,185.769760 285.979645,191.142212 
	C283.982117,192.542343 284.565521,194.763458 287.223724,194.801056 
	C298.713501,194.963654 310.208893,194.981583 321.697754,194.786453 
	C324.580353,194.737503 325.048492,193.194733 323.535492,190.375427 
	C321.236450,186.091461 318.464050,181.539474 318.013184,176.895432 
	C317.102173,167.512619 317.311340,157.980576 317.647736,148.531036 
	C317.881165,141.973953 319.098877,135.451920 320.037750,127.561790 
	C316.610931,129.290497 314.043823,130.526581 311.531403,131.865295 
	C306.432251,134.582336 301.362671,137.354858 295.486206,140.312683 
M825.229919,171.945862 
	C821.942078,156.661896 821.267212,141.177200 823.217529,125.752930 
	C824.137085,118.480301 826.072021,110.937660 829.392883,104.464317 
	C833.899048,95.680046 844.511719,95.240036 851.233093,102.532944 
	C852.758240,104.187790 854.063721,106.045151 855.497498,107.843437 
	C857.861755,106.168625 859.984070,104.665184 862.195251,103.098763 
	C857.677917,94.988007 851.907349,89.335037 842.615601,88.921410 
	C832.623535,88.476593 825.334412,93.231750 820.692444,101.837128 
	C818.664795,105.595947 817.076355,109.705544 815.995056,113.840630 
	C811.979614,129.196594 811.838379,144.902695 813.758789,160.471191 
	C814.820801,169.080399 817.151184,177.772751 820.435913,185.803406 
	C824.000732,194.518860 831.662415,198.703598 841.271851,198.443298 
	C851.061401,198.178101 857.661316,193.062149 862.101624,184.264786 
	C859.543518,182.829346 857.137756,181.479401 854.653442,180.085388 
	C853.988770,181.098068 853.534729,181.786148 853.084351,182.476578 
	C846.869873,192.003937 835.544556,192.021118 829.559204,182.314987 
	C827.756897,179.392334 826.810303,175.942078 825.229919,171.945862 
M1017.958862,118.198936 
	C1013.383911,118.198936 1008.809021,118.198936 1004.421875,118.198936 
	C1004.421875,111.505920 1004.421875,105.745667 1004.421875,99.635620 
	C1012.169434,99.635620 1019.605896,99.635620 1027.191895,99.635620 
	C1027.191895,96.552071 1027.191895,93.841957 1027.191895,91.258858 
	C1016.265259,91.258858 1005.689148,91.258858 995.246338,91.258858 
	C995.246338,126.650108 995.246338,161.716400 995.246338,196.699203 
	C1006.106934,196.699203 1016.672241,196.699203 1027.181641,196.699203 
	C1027.181641,193.653458 1027.181641,190.927155 1027.181641,187.883011 
	C1019.382507,187.883011 1011.937744,187.883011 1004.446167,187.883011 
	C1004.446167,167.180389 1004.446167,146.807449 1004.446167,125.892319 
	C1009.329651,125.892319 1013.882874,125.892319 1018.527466,125.892319 
	C1018.527466,123.198441 1018.527466,121.048561 1017.958862,118.198936 
M574.684387,96.189629 
	C575.431519,94.569305 576.178711,92.948982 576.967651,91.238136 
	C567.960938,90.456398 567.957581,90.454720 564.259033,97.825020 
	C559.760620,106.789032 555.268677,115.756233 550.512390,125.243942 
	C545.650757,115.563332 541.110779,106.518333 536.566345,97.475517 
	C532.786438,89.953918 532.784180,89.955048 523.878296,91.575989 
	C530.504333,104.485725 537.209595,117.249435 543.572449,130.181610 
	C544.969116,133.020142 545.750427,136.450714 545.787781,139.620743 
	C545.995850,157.275681 545.882019,174.934372 545.898254,192.591751 
	C545.899597,194.017853 546.051514,195.443817 546.125916,196.738190 
	C549.293518,196.738190 552.045410,196.738190 555.040894,196.738190 
	C555.040894,177.671677 554.917847,158.873444 555.151611,140.079620 
	C555.194946,136.597336 556.092773,132.852158 557.601318,129.711029 
	C562.920410,118.635674 568.676636,107.770279 574.684387,96.189629 
M294.671234,129.011307 
	C302.345612,130.364426 309.073059,127.240875 312.761993,120.611763 
	C315.427185,115.822357 315.339905,110.411919 312.343597,107.022621 
	C308.789429,103.002251 304.152863,102.636040 299.497284,104.221237 
	C293.260132,106.344917 289.035095,110.641693 287.953064,117.384613 
	C287.117859,122.589340 289.090607,126.496574 294.671234,129.011307 
M444.025604,79.523392 
	C442.704956,79.358330 441.384033,79.195511 440.063690,79.027855 
	C429.559326,77.694054 425.956879,74.231567 424.168152,63.759586 
	C423.953400,62.502335 423.716766,61.248825 423.665283,60.963558 
	C421.084808,65.825691 419.504150,72.272049 415.395844,75.563286 
	C411.338226,78.813980 404.725281,78.875069 400.248566,80.065445 
	C405.055664,81.500114 411.673950,81.787445 415.716431,85.161163 
	C419.681244,88.470055 421.026123,94.918274 423.235046,99.407890 
	C424.013428,96.802452 424.365204,92.535851 426.466858,89.468048 
	C428.526093,86.462135 432.083313,84.020874 435.505951,82.541191 
	C438.883148,81.081161 442.915222,81.135941 446.660004,80.526146 
	C446.655945,80.321281 446.651886,80.116417 446.647827,79.911545 
	C446.048889,79.812225 445.449921,79.712906 444.025604,79.523392 
M658.873535,268.638977 
	C659.595459,269.826904 660.317383,271.014832 661.039246,272.202759 
	C661.545654,272.173523 662.052002,272.144287 662.558411,272.115051 
	C664.548889,264.642731 666.539429,257.170410 668.529968,249.698120 
	C667.800232,249.492569 667.070496,249.287018 666.340698,249.081467 
	C664.719666,254.704834 663.098572,260.328186 661.135254,267.138916 
	C658.152710,260.440552 655.772827,255.095703 653.393005,249.750839 
	C652.848633,249.797974 652.304260,249.845108 651.759949,249.892242 
	C650.178772,255.748550 648.597656,261.604889 646.798157,268.269897 
	C643.805542,261.854309 641.241455,256.357452 638.677429,250.860596 
	C637.902405,251.241364 637.127380,251.622116 636.352417,252.002884 
	C639.623840,259.100220 642.895203,266.197571 646.166626,273.294922 
	C646.778320,273.224182 647.390015,273.153473 648.001648,273.082733 
	C648.803101,270.323608 649.637024,267.573425 650.396851,264.802887 
	C651.163757,262.006836 651.857056,259.190582 652.925720,255.055588 
	C655.162292,260.174225 656.860779,264.061310 658.873535,268.638977 
M513.552856,252.994736 
	C513.278931,254.800888 513.050110,256.615234 512.723328,258.411804 
	C511.378998,265.803436 511.367035,265.808167 518.640259,266.833191 
	C519.461548,266.948944 520.300781,266.972504 521.132019,266.976471 
	C527.312988,267.006165 531.885071,263.356506 532.892883,257.607025 
	C533.870728,252.027969 530.559387,246.962936 524.664551,245.021271 
	C516.065735,242.188950 514.637573,243.123795 513.552856,252.994736 
M589.931396,276.015930 
	C586.764038,275.813965 583.596680,275.612000 580.249023,275.398529 
	C586.117920,281.632965 594.660950,278.853394 595.603577,273.507568 
	C596.481201,268.530884 596.479797,263.399231 596.825684,258.856628 
	C594.109863,258.200958 592.157288,257.233246 590.303955,257.395813 
	C587.357849,257.654297 583.292908,257.759949 581.883850,259.600830 
	C580.287415,261.686646 579.952698,266.232391 581.207275,268.552490 
	C582.290466,270.555542 586.320374,271.109924 589.153442,271.945984 
	C590.191101,272.252258 591.532959,271.527496 594.183533,270.966949 
	C592.495605,273.293213 591.608704,274.515533 589.931396,276.015930 
M702.539856,257.969910 
	C703.146362,260.599792 703.752869,263.229645 704.359314,265.859528 
	C704.889709,265.751221 705.420044,265.642914 705.950378,265.534637 
	C705.950378,263.152466 705.950378,260.770325 705.950378,258.553772 
	C717.195679,254.366608 719.631226,251.764114 717.350647,246.668640 
	C714.985962,241.385361 708.280579,240.712860 700.228210,245.067764 
	C700.904419,249.054459 701.591980,253.108414 702.539856,257.969910 
M536.844849,265.404907 
	C541.143677,271.915955 546.624207,272.783386 550.488831,267.062439 
	C545.908936,267.946167 541.033020,269.872925 539.065247,262.736298 
	C542.392212,262.985565 545.247620,262.833984 547.908569,263.481476 
	C552.288025,264.547180 552.451355,262.170166 551.840881,259.161316 
	C551.016357,255.097290 546.622498,252.361923 542.809448,253.330505 
	C538.198975,254.501633 535.833862,258.805817 536.844849,265.404907 
M672.922913,260.624146 
	C673.383606,266.583618 675.841736,269.633972 680.459290,269.976135 
	C684.163086,270.250610 686.567444,268.607666 687.290527,265.308197 
	C680.710266,268.381317 678.763794,268.084473 676.111328,263.155609 
	C679.177307,262.721405 682.056946,262.271942 684.948059,261.915161 
	C688.268433,261.505402 688.723450,259.674652 687.379639,257.039093 
	C685.777771,253.897308 683.172791,252.391968 679.636108,252.927780 
	C675.725281,253.520309 673.550781,255.927704 672.922913,260.624146 
M469.806793,239.925110 
	C464.335907,241.588882 461.565674,245.408157 462.532135,249.954590 
	C463.488281,254.452393 467.515869,257.457489 471.954803,256.985107 
	C476.196716,256.533691 480.000000,252.299561 479.876587,248.165894 
	C479.732758,243.348572 476.422089,240.387344 469.806793,239.925110 
M459.083313,236.509827 
	C460.549805,235.128769 462.016327,233.747711 463.482849,232.366653 
	C463.057037,231.912445 462.631256,231.458237 462.205475,231.004028 
	C458.687622,233.576004 455.169769,236.147964 451.279755,238.992004 
	C449.612701,234.514893 448.064545,230.357132 446.516418,226.199356 
	C445.854858,226.406403 445.193268,226.613449 444.531708,226.820480 
	C445.653992,230.565933 447.220490,234.247101 447.774506,238.074814 
	C448.336487,241.957565 447.898560,245.985031 447.898560,248.947586 
	C451.227997,245.190247 454.874054,241.075592 459.083313,236.509827 
M483.072357,256.090454 
	C484.745819,263.841156 491.682312,259.482269 496.372040,262.260956 
	C497.382843,256.726593 498.299011,251.710526 499.215179,246.694458 
	C498.582092,246.558853 497.949036,246.423248 497.315948,246.287643 
	C496.645447,248.754120 495.907928,251.204788 495.320740,253.690964 
	C494.517212,257.092957 493.105103,259.993561 488.974945,258.799408 
	C485.039978,257.661682 485.805908,254.316467 486.338104,251.324921 
	C486.760498,248.950806 487.238739,246.586609 487.692139,244.218018 
	C486.956604,244.063553 486.221069,243.909103 485.485535,243.754639 
	C484.669739,247.592819 483.853943,251.430984 483.072357,256.090454 
M747.027527,250.463181 
	C745.837463,246.779190 744.965942,242.650177 749.802917,241.456161 
	C754.568298,240.279831 755.058472,244.692612 756.041199,248.016769 
	C756.641296,250.046997 757.475159,252.008118 758.204041,254.000275 
	C758.879578,253.775269 759.555176,253.550262 760.230713,253.325272 
	C758.857056,249.154465 758.341919,244.377640 755.920105,240.946732 
	C751.678772,234.938263 747.085022,242.480652 741.923645,241.127991 
	C743.384094,246.909241 744.096619,252.199707 746.530334,256.892853 
	C747.065491,256.736450 747.600586,256.580078 748.135742,256.423676 
	C747.817261,254.702805 747.498840,252.981934 747.027527,250.463181 
M564.168823,269.054779 
	C561.168152,269.054779 558.167480,269.054779 553.963684,269.054779 
	C556.405090,270.320343 558.133911,271.998047 559.656555,271.828156 
	C562.126648,271.552551 565.562744,270.714569 566.605957,268.944275 
	C568.346252,265.991119 565.895935,263.802002 562.832092,262.788696 
	C562.206970,262.581940 561.452393,262.389893 561.061401,261.931702 
	C560.295776,261.034637 559.744324,259.954865 559.104187,258.950714 
	C560.262756,258.574554 561.421692,257.894897 562.579834,257.896332 
	C564.152283,257.898285 565.724060,258.421356 567.296143,258.720917 
	C566.678528,257.120819 565.835632,256.366882 564.850891,255.941147 
	C561.465027,254.477402 557.995422,254.374847 556.354492,258.163910 
	C554.739319,261.893524 558.001221,263.208191 560.673706,264.740234 
	C562.186646,265.607574 563.291077,267.187408 564.168823,269.054779 
M601.900513,260.247681 
	C601.997437,264.748108 602.094299,269.248566 602.191223,273.748993 
	C602.675049,273.717224 603.158813,273.685455 603.642639,273.653687 
	C603.793701,272.866638 603.963806,272.082672 604.092651,271.291962 
	C604.793823,266.990936 601.984741,260.008362 609.432556,260.226624 
	C615.964905,260.417999 613.162415,266.969666 613.901672,270.955200 
	C614.079712,271.915039 614.420349,272.844727 614.686218,273.788300 
	C615.349915,273.675568 616.013611,273.562836 616.677246,273.450104 
	C615.876465,268.654510 616.345032,263.051849 613.943176,259.274261 
	C611.144104,254.872040 606.041321,258.864594 601.900513,260.247681 
M763.354004,233.103561 
	C762.718689,232.362503 762.083313,231.621460 761.008789,230.368057 
	C759.108826,238.122925 763.916748,243.240265 765.819031,249.049835 
	C766.805725,252.063034 769.948914,251.717316 773.142944,248.472260 
	C764.711426,249.008163 766.940491,242.102081 764.867188,238.136261 
	C766.490540,237.065445 767.758606,236.229034 769.518066,235.068466 
	C767.077332,234.512161 765.385681,234.126572 763.354004,233.103561 
M455.815826,53.500816 
	C452.946838,51.480721 450.077850,49.460621 448.255493,48.177467 
	C445.487549,50.175674 442.692169,52.193695 440.900940,53.486790 
	C442.826477,54.942829 445.716736,57.128368 448.057404,58.898327 
	C450.208588,57.434647 452.738708,55.713104 455.815826,53.500816 
M726.672729,257.697754 
	C724.704346,252.414108 726.178101,248.149445 731.560669,245.041946 
	C731.168823,244.791122 730.776978,244.540283 730.385132,244.289459 
	C727.695557,245.176910 725.005920,246.064362 721.549377,247.204865 
	C722.652405,251.918259 723.824158,256.925201 724.995911,261.932159 
	C725.527832,261.841217 726.059753,261.750275 726.591675,261.659332 
	C726.680420,260.604675 726.769226,259.550049 726.672729,257.697754 
M572.220093,260.163452 
	C572.220093,264.316162 572.220093,268.468872 572.220093,272.621582 
	C572.911194,272.644196 573.602295,272.666809 574.293396,272.689423 
	C574.583435,267.384857 574.873474,262.080322 575.163513,256.775757 
	C574.667419,256.682434 574.171326,256.589081 573.675232,256.495758 
	C573.217163,257.441833 572.759094,258.387939 572.220093,260.163452 
M737.469543,256.807709 
	C737.993164,257.501251 738.516724,258.194794 739.040344,258.888336 
	C739.488708,258.722443 739.937073,258.556549 740.385498,258.390656 
	C739.199585,253.300034 738.013611,248.209412 736.827698,243.118774 
	C736.106079,243.266708 735.384399,243.414658 734.662781,243.562592 
	C735.508972,247.725540 736.355164,251.888489 737.469543,256.807709 
M392.057526,98.392105 
	C391.644928,96.804787 391.232361,95.217468 390.723053,93.258011 
	C388.484070,94.991959 387.236389,95.958199 386.136047,96.810364 
	C387.429504,98.371452 388.637024,99.828827 389.947449,101.410370 
	C390.505768,100.543541 391.034515,99.722641 392.057526,98.392105 
z"/>
<path fill="#040404" opacity="1.000000" stroke="none" 
	d="
M374.350830,181.334137 
	C367.314209,180.852737 360.635651,180.759079 354.152985,179.584442 
	C350.668945,178.953171 349.147583,180.653656 348.632324,182.830994 
	C348.414948,183.749557 351.535400,186.679901 352.954498,186.557663 
	C360.057007,185.945938 367.085663,184.529938 374.164856,183.579559 
	C381.940613,182.535660 389.738403,181.602325 397.012970,185.884644 
	C407.532104,192.076904 411.007080,202.975586 406.178070,214.796967 
	C398.949127,232.493622 378.585510,243.231720 359.135040,239.681030 
	C347.927277,237.635040 337.731323,233.607407 329.681030,225.183960 
	C329.105865,224.582123 328.520294,223.986679 327.988190,223.347763 
	C321.886597,216.021484 320.702576,209.550339 324.610779,204.961594 
	C329.365570,199.378815 342.165710,196.982086 348.122620,201.226471 
	C350.088867,202.627426 351.959015,206.400497 351.505707,208.601334 
	C348.252838,224.393417 368.330566,238.423737 383.266327,233.656097 
	C390.132202,231.464432 392.916992,224.234528 390.389435,215.799240 
	C386.632233,203.260239 373.889496,193.926376 359.331848,193.041336 
	C355.509155,192.808945 351.545044,193.096191 347.911102,192.138504 
	C345.007874,191.373383 341.280823,189.636673 340.216278,187.289505 
	C339.365417,185.413376 341.856812,181.914993 343.114838,179.254913 
	C343.482452,178.477646 344.707489,178.105865 345.936523,177.282089 
	C342.822327,175.086182 340.335419,173.577057 338.126709,171.734421 
	C326.192413,161.778061 326.175934,147.811005 338.342987,138.109131 
	C347.873871,130.509323 359.137207,128.050049 371.125885,128.473709 
	C373.449158,128.555817 375.763947,128.877304 378.348999,129.112610 
	C382.113007,119.908401 388.917297,114.946121 398.993530,114.984711 
	C403.313873,115.001259 406.250732,117.153870 407.468079,121.359634 
	C409.093201,126.974152 405.200897,131.317307 399.426910,130.594696 
	C394.473053,129.974716 389.489044,129.595901 383.508148,129.011795 
	C389.846405,132.886093 395.365143,135.417160 399.858826,139.174240 
	C410.595093,148.150543 410.572449,161.406357 400.178558,170.786987 
	C393.005737,177.260574 384.253204,180.196259 374.350830,181.334137 
M358.789398,161.561966 
	C359.827667,164.857773 360.419434,168.386780 361.994324,171.402344 
	C365.613434,178.331955 371.511261,178.493973 375.045074,171.609161 
	C380.618256,160.751282 380.653320,149.495239 375.151611,138.596222 
	C371.649139,131.657700 365.752350,131.708099 362.012085,138.490585 
	C358.190002,145.421326 357.459137,152.953613 358.789398,161.561966 
z"/>
<path fill="#050505" opacity="1.000000" stroke="none" 
	d="
M115.748062,106.162834 
	C132.592651,112.508667 144.403915,123.318817 147.880768,141.060822 
	C152.190933,163.055237 138.840744,184.209656 116.276566,191.737915 
	C110.989685,193.501816 105.255463,194.509750 99.684334,194.716888 
	C87.543320,195.168289 75.374733,194.904160 63.217663,194.862396 
	C61.850143,194.857697 60.484173,194.402817 58.622875,194.067642 
	C59.400284,192.592606 59.625473,191.452316 60.311806,190.974686 
	C66.374710,186.755524 67.480858,180.660767 67.419739,173.839127 
	C67.275009,157.685959 67.251541,141.529282 67.429276,125.376770 
	C67.509575,118.078705 66.653099,111.407242 60.097713,106.814072 
	C59.522404,106.410973 59.320145,105.475456 58.159447,103.348244 
	C77.956276,104.106941 96.762161,101.052803 115.748062,106.162834 
M94.166588,112.863441 
	C92.032219,138.383408 91.978111,163.866104 95.032738,189.343842 
	C103.726776,188.310669 110.315498,184.004990 114.356445,176.256500 
	C122.864342,159.942596 123.032654,143.074905 116.500244,126.158829 
	C113.329041,117.946823 107.664742,111.759216 98.842506,109.150017 
	C96.321938,108.404549 94.161949,108.382240 94.166588,112.863441 
z"/>
<path fill="#040404" opacity="1.000000" stroke="none" 
	d="
M465.884644,154.378662 
	C464.098907,149.487885 462.905701,144.711044 460.526337,140.624893 
	C457.478333,135.390457 452.606232,135.212265 449.469330,140.376053 
	C446.899811,144.605911 444.695312,149.634979 444.294250,154.472656 
	C443.653534,162.201462 444.120209,170.135132 445.150146,177.844391 
	C445.713379,182.060211 448.415222,185.984482 450.106873,190.059204 
	C450.573700,191.183640 451.512207,192.777206 451.095764,193.437927 
	C450.554352,194.296906 448.879761,194.819687 447.686737,194.830902 
	C436.857880,194.932571 426.027466,194.922775 415.198303,194.840134 
	C414.165802,194.832260 413.138794,194.107071 412.109222,193.714890 
	C412.623077,192.589081 412.831635,191.056503 413.700836,190.404160 
	C418.922821,186.485092 420.366577,181.150085 420.131866,174.982971 
	C419.986237,171.156464 419.933533,167.310364 420.143646,163.489807 
	C420.538147,156.316971 419.319550,149.895920 413.062836,145.321884 
	C412.396484,144.834747 412.211121,143.689636 411.188904,141.587875 
	C425.470490,142.871689 434.890015,133.289413 447.124725,127.263763 
	C446.695801,130.976059 446.442444,133.168854 446.049500,136.569611 
	C453.711029,126.754692 462.793823,126.846115 472.331757,130.937775 
	C483.444061,135.704819 489.006897,144.953094 490.881927,156.366119 
	C491.872406,162.395096 491.754272,168.647339 491.702271,174.795090 
	C491.648682,181.137054 492.949585,186.651642 498.390076,190.606689 
	C499.213531,191.205353 499.606659,192.395920 500.494293,193.770081 
	C498.965576,194.247787 497.937958,194.842911 496.906891,194.849030 
	C485.744263,194.915329 474.580994,194.915756 463.418182,194.869492 
	C460.614380,194.857880 458.265350,193.795975 460.612579,190.740387 
	C468.465057,180.518097 467.541229,168.961655 466.248657,157.280243 
	C466.157074,156.452438 466.049957,155.626358 465.884644,154.378662 
z"/>
<path fill="#040404" opacity="1.000000" stroke="none" 
	d="
M177.275589,130.100845 
	C189.403458,126.897682 200.510468,128.020630 210.396194,135.474762 
	C221.747406,144.033890 221.509308,157.313980 209.887970,165.582581 
	C201.220398,171.749573 191.706894,172.283707 181.785965,168.800125 
	C182.680328,175.894852 189.381546,181.602493 197.350952,181.867447 
	C204.079865,182.091171 210.088715,180.097931 215.151810,175.401276 
	C216.083191,174.537323 217.816864,174.538239 219.180222,174.139984 
	C219.071777,175.611557 219.449951,177.368439 218.780106,178.510818 
	C211.579315,190.791199 194.916092,197.233459 179.496902,193.875366 
	C164.617630,190.634888 153.669388,178.519867 152.279358,163.757141 
	C151.068634,150.898788 159.285172,137.817108 172.245041,132.016953 
	C173.759369,131.339233 175.334396,130.797211 177.275589,130.100845 
M192.816101,135.457336 
	C189.123245,131.998047 186.041962,133.470459 183.766571,137.003708 
	C179.022934,144.369629 178.427780,152.373260 182.143707,160.198608 
	C183.292007,162.616837 186.549026,165.327225 188.960693,165.445053 
	C190.909653,165.540268 193.939926,162.311447 194.924057,159.914139 
	C198.227173,151.867783 197.893738,143.754257 192.816101,135.457336 
z"/>
<path fill="#040404" opacity="1.000000" stroke="none" 
	d="
M226.516602,185.328583 
	C222.276230,177.739761 224.474686,173.151352 232.740891,171.562088 
	C241.641495,169.850876 247.352158,174.256744 247.813721,183.222794 
	C247.963455,186.131454 247.991318,189.453384 251.980591,189.225555 
	C255.849167,189.004639 256.961700,185.472549 256.301086,182.597092 
	C255.650711,179.766144 253.848343,176.701782 251.627762,174.843842 
	C248.105316,171.896667 243.817276,169.863068 239.845703,167.455261 
	C238.994278,166.939072 238.100769,166.492691 237.244156,165.984619 
	C229.663101,161.488327 222.720932,156.235992 224.248962,146.146973 
	C225.789597,135.974670 233.589600,131.856308 242.615082,129.599594 
	C251.593735,127.354599 260.453339,128.193329 269.101593,131.232010 
	C271.262360,131.991226 273.333435,133.209503 275.202698,134.554581 
	C279.919403,137.948578 282.026367,142.899277 280.508118,146.411819 
	C278.889923,150.155624 273.048859,152.587189 267.519562,151.818832 
	C261.441162,150.974152 258.190277,147.876389 257.683807,142.440628 
	C257.544983,140.950745 257.857605,139.206421 257.179688,138.030441 
	C256.233978,136.389893 254.552109,135.173737 253.185272,133.775970 
	C251.751556,135.325668 249.512863,136.666061 249.044601,138.466812 
	C247.922501,142.782089 250.217957,146.325012 253.560028,148.813080 
	C257.946167,152.078369 262.718506,154.819901 267.181610,157.988327 
	C270.689331,160.478516 274.369446,162.908905 277.283234,166.013260 
	C282.748627,171.836075 282.404816,178.917923 276.994385,184.781952 
	C264.971466,197.812881 239.328308,198.237030 226.516602,185.328583 
z"/>
<path fill="#070707" opacity="1.000000" stroke="none" 
	d="
M623.533508,196.775238 
	C608.728760,201.446014 597.555908,196.303604 591.907471,181.995071 
	C585.972229,166.960205 585.878784,151.111328 586.508728,135.276672 
	C586.952393,124.124146 588.012756,113.014999 592.986084,102.756195 
	C598.726807,90.914421 610.031372,85.988518 622.021240,89.999893 
	C629.000061,92.334763 633.784546,97.342361 635.884155,104.041603 
	C638.397034,112.059540 640.475647,120.376976 641.346985,128.710587 
	C642.960327,144.140533 642.675293,159.653183 638.913330,174.845367 
	C636.669556,183.906219 633.020935,192.214447 623.533508,196.775238 
M617.443909,189.169373 
	C625.616272,186.546188 628.049377,179.468124 629.728333,172.338654 
	C633.464478,156.473694 633.703857,140.327728 631.344910,124.276466 
	C630.371887,117.655663 628.641724,110.793655 625.583740,104.910500 
	C620.389465,94.917336 608.623291,95.099747 602.763428,104.752014 
	C601.070740,107.540352 599.808472,110.716576 598.977661,113.880135 
	C594.950928,129.212952 594.972656,144.857239 596.753967,160.418915 
	C597.570618,167.552933 599.604004,174.724243 602.247314,181.420059 
	C604.612061,187.410339 609.722839,190.631027 617.443909,189.169373 
z"/>
<path fill="#050505" opacity="1.000000" stroke="none" 
	d="
M742.530151,155.963837 
	C741.821716,158.108688 741.042725,159.972260 741.024048,161.843445 
	C740.909302,173.320007 740.966553,184.798325 740.966553,196.642029 
	C737.997070,196.642029 735.129517,196.642029 731.996643,196.642029 
	C731.996643,161.633728 731.996643,126.589409 731.996643,91.413559 
	C741.990784,91.413559 752.189941,90.429214 762.114502,91.659874 
	C774.848145,93.238853 780.048035,105.407593 773.316833,116.955353 
	C769.580688,123.365005 764.607361,129.096054 759.845520,134.846283 
	C757.666626,137.477493 757.329651,139.487976 758.738770,142.675400 
	C766.231873,159.625259 773.437744,176.702133 780.901672,194.104858 
	C778.177002,195.508682 775.718994,196.775116 772.624084,198.369690 
	C768.921936,189.750229 765.309570,181.310074 761.672546,172.880569 
	C758.006897,164.384857 754.316650,155.899765 750.342102,146.729111 
	C747.632690,149.951447 745.221863,152.818756 742.530151,155.963837 
M765.407532,113.410461 
	C767.718323,102.908928 765.364990,99.872734 754.798340,99.787125 
	C750.337830,99.750977 745.876770,99.781105 741.244629,99.781105 
	C741.244629,114.814934 741.244629,129.498184 741.244629,144.181427 
	C741.567383,144.356277 741.890076,144.531128 742.212830,144.705978 
	C749.841675,134.521988 757.470459,124.337990 765.407532,113.410461 
z"/>
<path fill="#070707" opacity="1.000000" stroke="none" 
	d="
M887.267944,112.138748 
	C888.732910,105.051323 890.100464,98.378670 891.547607,91.317856 
	C895.197510,91.317856 898.926453,91.317856 902.943359,91.317856 
	C910.386597,126.269821 917.855957,161.344467 925.393921,196.741287 
	C922.175232,196.741287 919.261719,196.741287 916.341614,196.741287 
	C915.795471,183.011414 907.634949,173.636154 898.455444,164.755447 
	C894.902527,161.318192 891.722046,157.495926 887.727356,153.147415 
	C884.777405,168.279282 881.997620,182.538300 879.215759,196.807831 
	C876.114136,196.807831 873.322937,196.807831 870.332336,196.807831 
	C875.976318,168.566635 881.573486,140.560074 887.267944,112.138748 
M907.888306,155.617905 
	C904.509827,139.463577 901.131348,123.309258 897.661133,106.716461 
	C897.066589,107.413902 896.728210,107.628944 896.673950,107.900703 
	C894.464172,118.976051 892.254883,130.051712 890.142334,141.145737 
	C889.979431,142.000748 890.223389,143.257095 890.779846,143.875320 
	C896.625916,150.369858 902.574219,156.772293 909.483154,164.273849 
	C908.796387,160.647125 908.398621,158.546555 907.888306,155.617905 
z"/>
<path fill="#040404" opacity="1.000000" stroke="none" 
	d="
M658.054749,117.000000 
	C658.054749,108.190536 658.054749,99.881081 658.054749,91.253853 
	C661.149902,91.253853 664.020386,91.253853 667.286560,91.253853 
	C667.286560,100.992004 667.286560,110.611389 667.286560,120.230766 
	C667.286621,136.059097 667.272034,151.887466 667.302979,167.715744 
	C667.307495,170.042450 667.405762,172.382782 667.670288,174.692795 
	C668.870239,185.172775 675.014709,190.370651 685.506836,189.877670 
	C694.434143,189.458206 699.815918,183.734818 699.904541,173.509338 
	C700.124146,148.186066 700.019714,122.859978 700.044983,97.535027 
	C700.046997,95.554123 700.045166,93.573212 700.045166,91.263985 
	C703.112671,91.263985 705.981628,91.263985 708.970825,91.263985 
	C709.076355,91.792732 709.248657,92.251884 709.247986,92.710793 
	C709.208862,119.867409 709.271606,147.025009 709.039856,174.180084 
	C708.959595,183.586441 705.469910,191.731903 696.365417,195.665375 
	C686.546509,199.907501 676.442871,199.747787 667.327087,193.570435 
	C659.647522,188.366348 658.119385,180.074600 658.080811,171.482697 
	C657.999939,153.488785 658.055298,135.494263 658.054749,117.000000 
z"/>
<path fill="#060606" opacity="1.000000" stroke="none" 
	d="
M953.384521,140.612350 
	C944.270264,131.228607 938.037842,120.997231 939.003113,107.586220 
	C939.872498,95.506042 948.254456,87.801559 959.619995,88.993912 
	C967.808105,89.852936 971.848145,95.574493 975.040588,102.678261 
	C972.251221,103.866943 969.537720,105.023315 966.601624,106.274513 
	C965.643555,104.811935 965.049194,102.999184 963.803528,102.194099 
	C961.315918,100.586365 958.178955,98.133743 955.851624,98.620262 
	C953.252075,99.163673 950.045410,102.199226 949.215637,104.819244 
	C946.529602,113.300346 949.658997,120.907883 955.084961,127.445694 
	C959.434448,132.686478 964.307617,137.492630 968.947632,142.492401 
	C977.431335,151.633774 981.444153,162.236267 980.082275,174.845322 
	C978.853699,186.220779 971.435303,195.870575 961.830933,197.925751 
	C949.915710,200.475403 939.613953,195.652298 933.707214,184.488068 
	C936.112488,183.154266 938.530151,181.813629 941.251770,180.304413 
	C945.177429,184.910049 949.226746,189.137100 955.984558,189.073013 
	C963.478455,189.001953 968.205505,185.680618 970.038025,178.308884 
	C972.244202,169.433701 971.083130,161.012283 965.415222,153.729172 
	C961.855225,149.154678 957.584045,145.133713 953.384521,140.612350 
z"/>
<path fill="#040404" opacity="1.000000" stroke="none" 
	d="
M295.883545,140.208588 
	C301.362671,137.354858 306.432251,134.582336 311.531403,131.865295 
	C314.043823,130.526581 316.610931,129.290497 320.037750,127.561790 
	C319.098877,135.451920 317.881165,141.973953 317.647736,148.531036 
	C317.311340,157.980576 317.102173,167.512619 318.013184,176.895432 
	C318.464050,181.539474 321.236450,186.091461 323.535492,190.375427 
	C325.048492,193.194733 324.580353,194.737503 321.697754,194.786453 
	C310.208893,194.981583 298.713501,194.963654 287.223724,194.801056 
	C284.565521,194.763458 283.982117,192.542343 285.979645,191.142212 
	C293.644562,185.769760 293.280487,177.917419 293.116608,170.019592 
	C293.047485,166.689835 292.981415,163.354095 293.099762,160.027695 
	C293.296234,154.505829 291.443939,149.967422 287.197845,146.365524 
	C286.161163,145.486130 285.434357,144.241379 283.969482,142.426865 
	C288.471588,141.600388 291.978882,140.956543 295.883545,140.208588 
z"/>
<path fill="#070707" opacity="1.000000" stroke="none" 
	d="
M825.350830,172.339691 
	C826.810303,175.942078 827.756897,179.392334 829.559204,182.314987 
	C835.544556,192.021118 846.869873,192.003937 853.084351,182.476578 
	C853.534729,181.786148 853.988770,181.098068 854.653442,180.085388 
	C857.137756,181.479401 859.543518,182.829346 862.101624,184.264786 
	C857.661316,193.062149 851.061401,198.178101 841.271851,198.443298 
	C831.662415,198.703598 824.000732,194.518860 820.435913,185.803406 
	C817.151184,177.772751 814.820801,169.080399 813.758789,160.471191 
	C811.838379,144.902695 811.979614,129.196594 815.995056,113.840630 
	C817.076355,109.705544 818.664795,105.595947 820.692444,101.837128 
	C825.334412,93.231750 832.623535,88.476593 842.615601,88.921410 
	C851.907349,89.335037 857.677917,94.988007 862.195251,103.098763 
	C859.984070,104.665184 857.861755,106.168625 855.497498,107.843437 
	C854.063721,106.045151 852.758240,104.187790 851.233093,102.532944 
	C844.511719,95.240036 833.899048,95.680046 829.392883,104.464317 
	C826.072021,110.937660 824.137085,118.480301 823.217529,125.752930 
	C821.267212,141.177200 821.942078,156.661896 825.350830,172.339691 
z"/>
<path fill="#030303" opacity="1.000000" stroke="none" 
	d="
M1018.243164,118.548813 
	C1018.527466,121.048561 1018.527466,123.198441 1018.527466,125.892319 
	C1013.882874,125.892319 1009.329651,125.892319 1004.446167,125.892319 
	C1004.446167,146.807449 1004.446167,167.180389 1004.446167,187.883011 
	C1011.937744,187.883011 1019.382507,187.883011 1027.181641,187.883011 
	C1027.181641,190.927155 1027.181641,193.653458 1027.181641,196.699203 
	C1016.672241,196.699203 1006.106934,196.699203 995.246338,196.699203 
	C995.246338,161.716400 995.246338,126.650108 995.246338,91.258858 
	C1005.689148,91.258858 1016.265259,91.258858 1027.191895,91.258858 
	C1027.191895,93.841957 1027.191895,96.552071 1027.191895,99.635620 
	C1019.605896,99.635620 1012.169434,99.635620 1004.421875,99.635620 
	C1004.421875,105.745667 1004.421875,111.505920 1004.421875,118.198936 
	C1008.809021,118.198936 1013.383911,118.198936 1018.243164,118.548813 
z"/>
<path fill="#050505" opacity="1.000000" stroke="none" 
	d="
M574.475708,96.507439 
	C568.676636,107.770279 562.920410,118.635674 557.601318,129.711029 
	C556.092773,132.852158 555.194946,136.597336 555.151611,140.079620 
	C554.917847,158.873444 555.040894,177.671677 555.040894,196.738190 
	C552.045410,196.738190 549.293518,196.738190 546.125916,196.738190 
	C546.051514,195.443817 545.899597,194.017853 545.898254,192.591751 
	C545.882019,174.934372 545.995850,157.275681 545.787781,139.620743 
	C545.750427,136.450714 544.969116,133.020142 543.572449,130.181610 
	C537.209595,117.249435 530.504333,104.485725 523.878296,91.575989 
	C532.784180,89.955048 532.786438,89.953918 536.566345,97.475517 
	C541.110779,106.518333 545.650757,115.563332 550.512390,125.243942 
	C555.268677,115.756233 559.760620,106.789032 564.259033,97.825020 
	C567.957581,90.454720 567.960938,90.456398 576.967651,91.238136 
	C576.178711,92.948982 575.431519,94.569305 574.475708,96.507439 
z"/>
<path fill="#040404" opacity="1.000000" stroke="none" 
	d="
M294.298950,128.917786 
	C289.090607,126.496574 287.117859,122.589340 287.953064,117.384613 
	C289.035095,110.641693 293.260132,106.344917 299.497284,104.221237 
	C304.152863,102.636040 308.789429,103.002251 312.343597,107.022621 
	C315.339905,110.411919 315.427185,115.822357 312.761993,120.611763 
	C309.073059,127.240875 302.345612,130.364426 294.298950,128.917786 
z"/>
<path fill="#080808" opacity="1.000000" stroke="none" 
	d="
M444.438293,79.568481 
	C445.449921,79.712906 446.048889,79.812225 446.647827,79.911545 
	C446.651886,80.116417 446.655945,80.321281 446.660004,80.526146 
	C442.915222,81.135941 438.883148,81.081161 435.505951,82.541191 
	C432.083313,84.020874 428.526093,86.462135 426.466858,89.468048 
	C424.365204,92.535851 424.013428,96.802452 423.235046,99.407890 
	C421.026123,94.918274 419.681244,88.470055 415.716431,85.161163 
	C411.673950,81.787445 405.055664,81.500114 400.248566,80.065445 
	C404.725281,78.875069 411.338226,78.813980 415.395844,75.563286 
	C419.504150,72.272049 421.084808,65.825691 423.665283,60.963558 
	C423.716766,61.248825 423.953400,62.502335 424.168152,63.759586 
	C425.956879,74.231567 429.559326,77.694054 440.063690,79.027855 
	C441.384033,79.195511 442.704956,79.358330 444.438293,79.568481 
z"/>
<path fill="#A390FD" opacity="1.000000" stroke="none" 
	d="
M658.716370,268.293701 
	C656.860779,264.061310 655.162292,260.174225 652.925720,255.055588 
	C651.857056,259.190582 651.163757,262.006836 650.396851,264.802887 
	C649.637024,267.573425 648.803101,270.323608 648.001648,273.082733 
	C647.390015,273.153473 646.778320,273.224182 646.166626,273.294922 
	C642.895203,266.197571 639.623840,259.100220 636.352417,252.002884 
	C637.127380,251.622116 637.902405,251.241364 638.677429,250.860596 
	C641.241455,256.357452 643.805542,261.854309 646.798157,268.269897 
	C648.597656,261.604889 650.178772,255.748550 651.759949,249.892242 
	C652.304260,249.845108 652.848633,249.797974 653.393005,249.750839 
	C655.772827,255.095703 658.152710,260.440552 661.135254,267.138916 
	C663.098572,260.328186 664.719666,254.704834 666.340698,249.081467 
	C667.070496,249.287018 667.800232,249.492569 668.529968,249.698120 
	C666.539429,257.170410 664.548889,264.642731 662.558411,272.115051 
	C662.052002,272.144287 661.545654,272.173523 661.039246,272.202759 
	C660.317383,271.014832 659.595459,269.826904 658.716370,268.293701 
z"/>
<path fill="#A390FD" opacity="1.000000" stroke="none" 
	d="
M513.664429,252.571655 
	C514.637573,243.123795 516.065735,242.188950 524.664551,245.021271 
	C530.559387,246.962936 533.870728,252.027969 532.892883,257.607025 
	C531.885071,263.356506 527.312988,267.006165 521.132019,266.976471 
	C520.300781,266.972504 519.461548,266.948944 518.640259,266.833191 
	C511.367035,265.808167 511.378998,265.803436 512.723328,258.411804 
	C513.050110,256.615234 513.278931,254.800888 513.664429,252.571655 
M515.947815,255.450516 
	C515.579407,258.028534 515.210999,260.606567 514.794617,263.520416 
	C519.881836,264.069855 524.990295,266.023468 528.036255,261.193390 
	C529.565369,258.768646 530.094788,254.642960 529.154480,251.960083 
	C527.343079,246.791641 522.101990,246.946930 517.403442,246.470993 
	C516.906128,249.381714 516.461182,251.985794 515.947815,255.450516 
z"/>
<path fill="#A28FFD" opacity="1.000000" stroke="none" 
	d="
M590.326538,275.876892 
	C591.608704,274.515533 592.495605,273.293213 594.183533,270.966949 
	C591.532959,271.527496 590.191101,272.252258 589.153442,271.945984 
	C586.320374,271.109924 582.290466,270.555542 581.207275,268.552490 
	C579.952698,266.232391 580.287415,261.686646 581.883850,259.600830 
	C583.292908,257.759949 587.357849,257.654297 590.303955,257.395813 
	C592.157288,257.233246 594.109863,258.200958 596.825684,258.856628 
	C596.479797,263.399231 596.481201,268.530884 595.603577,273.507568 
	C594.660950,278.853394 586.117920,281.632965 580.249023,275.398529 
	C583.596680,275.612000 586.764038,275.813965 590.326538,275.876892 
M588.340576,269.978760 
	C591.913574,269.383820 594.536377,267.272278 593.540466,263.722565 
	C593.002380,261.804626 589.969849,259.420258 588.032959,259.393524 
	C586.148865,259.367493 583.110718,261.762848 582.566589,263.663788 
	C581.595703,267.055695 583.769470,269.528992 588.340576,269.978760 
z"/>
<path fill="#A390FD" opacity="1.000000" stroke="none" 
	d="
M702.409668,257.566132 
	C701.591980,253.108414 700.904419,249.054459 700.228210,245.067764 
	C708.280579,240.712860 714.985962,241.385361 717.350647,246.668640 
	C719.631226,251.764114 717.195679,254.366608 705.950378,258.553772 
	C705.950378,260.770325 705.950378,263.152466 705.950378,265.534637 
	C705.420044,265.642914 704.889709,265.751221 704.359314,265.859528 
	C703.752869,263.229645 703.146362,260.599792 702.409668,257.566132 
M704.558899,253.879333 
	C708.294922,256.414642 711.547058,254.645325 714.078857,252.116226 
	C714.999329,251.196747 714.996582,247.867340 714.076416,246.858505 
	C710.799561,243.266052 706.968933,245.208954 703.316162,246.522339 
	C703.653015,248.888840 703.953308,250.998108 704.558899,253.879333 
z"/>
<path fill="#A897FD" opacity="1.000000" stroke="none" 
	d="
M536.705688,265.048462 
	C535.833862,258.805817 538.198975,254.501633 542.809448,253.330505 
	C546.622498,252.361923 551.016357,255.097290 551.840881,259.161316 
	C552.451355,262.170166 552.288025,264.547180 547.908569,263.481476 
	C545.247620,262.833984 542.392212,262.985565 539.065247,262.736298 
	C541.033020,269.872925 545.908936,267.946167 550.488831,267.062439 
	C546.624207,272.783386 541.143677,271.915955 536.705688,265.048462 
M545.490662,261.010834 
	C546.638489,260.501465 547.786316,259.992096 548.934143,259.482727 
	C547.924438,258.334442 547.114563,256.567444 545.864380,256.163513 
	C543.048279,255.253693 540.797546,256.286224 539.908386,260.117828 
	C541.608826,260.425232 543.131775,260.700531 545.490662,261.010834 
z"/>
<path fill="#A391FD" opacity="1.000000" stroke="none" 
	d="
M672.939758,260.215088 
	C673.550781,255.927704 675.725281,253.520309 679.636108,252.927780 
	C683.172791,252.391968 685.777771,253.897308 687.379639,257.039093 
	C688.723450,259.674652 688.268433,261.505402 684.948059,261.915161 
	C682.056946,262.271942 679.177307,262.721405 676.111328,263.155609 
	C678.763794,268.084473 680.710266,268.381317 687.290527,265.308197 
	C686.567444,268.607666 684.163086,270.250610 680.459290,269.976135 
	C675.841736,269.633972 673.383606,266.583618 672.939758,260.215088 
M675.434265,259.731445 
	C678.548523,259.897552 681.662720,260.063660 684.776978,260.229767 
	C685.025635,259.592773 685.274231,258.955780 685.522888,258.318817 
	C684.044189,257.225372 682.331726,255.031540 681.139282,255.284897 
	C679.125488,255.712738 677.440918,257.690277 675.434265,259.731445 
z"/>
<path fill="#A28FFD" opacity="1.000000" stroke="none" 
	d="
M470.216339,239.908310 
	C476.422089,240.387344 479.732758,243.348572 479.876587,248.165894 
	C480.000000,252.299561 476.196716,256.533691 471.954803,256.985107 
	C467.515869,257.457489 463.488281,254.452393 462.532135,249.954590 
	C461.565674,245.408157 464.335907,241.588882 470.216339,239.908310 
M475.847961,252.123428 
	C475.669220,249.368332 476.158752,246.286621 475.037415,243.992188 
	C474.453094,242.796539 470.541901,242.027466 469.014862,242.802460 
	C467.200104,243.723495 465.577179,246.410889 465.298523,248.521332 
	C465.084045,250.145691 466.750977,253.175766 468.162903,253.587814 
	C470.309784,254.214340 472.960205,253.115372 475.847961,252.123428 
z"/>
<path fill="#A391FD" opacity="1.000000" stroke="none" 
	d="
M458.801727,236.735382 
	C454.874054,241.075592 451.227997,245.190247 447.898560,248.947586 
	C447.898560,245.985031 448.336487,241.957565 447.774506,238.074814 
	C447.220490,234.247101 445.653992,230.565933 444.531708,226.820480 
	C445.193268,226.613449 445.854858,226.406403 446.516418,226.199356 
	C448.064545,230.357132 449.612701,234.514893 451.279755,238.992004 
	C455.169769,236.147964 458.687622,233.576004 462.205475,231.004028 
	C462.631256,231.458237 463.057037,231.912445 463.482849,232.366653 
	C462.016327,233.747711 460.549805,235.128769 458.801727,236.735382 
z"/>
<path fill="#A391FD" opacity="1.000000" stroke="none" 
	d="
M483.055237,255.679810 
	C483.853943,251.430984 484.669739,247.592819 485.485535,243.754639 
	C486.221069,243.909103 486.956604,244.063553 487.692139,244.218018 
	C487.238739,246.586609 486.760498,248.950806 486.338104,251.324921 
	C485.805908,254.316467 485.039978,257.661682 488.974945,258.799408 
	C493.105103,259.993561 494.517212,257.092957 495.320740,253.690964 
	C495.907928,251.204788 496.645447,248.754120 497.315948,246.287643 
	C497.949036,246.423248 498.582092,246.558853 499.215179,246.694458 
	C498.299011,251.710526 497.382843,256.726593 496.372040,262.260956 
	C491.682312,259.482269 484.745819,263.841156 483.055237,255.679810 
z"/>
<path fill="#A390FD" opacity="1.000000" stroke="none" 
	d="
M747.103943,250.862122 
	C747.498840,252.981934 747.817261,254.702805 748.135742,256.423676 
	C747.600586,256.580078 747.065491,256.736450 746.530334,256.892853 
	C744.096619,252.199707 743.384094,246.909241 741.923645,241.127991 
	C747.085022,242.480652 751.678772,234.938263 755.920105,240.946732 
	C758.341919,244.377640 758.857056,249.154465 760.230713,253.325272 
	C759.555176,253.550262 758.879578,253.775269 758.204041,254.000275 
	C757.475159,252.008118 756.641296,250.046997 756.041199,248.016769 
	C755.058472,244.692612 754.568298,240.279831 749.802917,241.456161 
	C744.965942,242.650177 745.837463,246.779190 747.103943,250.862122 
z"/>
<path fill="#A391FD" opacity="1.000000" stroke="none" 
	d="
M564.374146,268.750549 
	C563.291077,267.187408 562.186646,265.607574 560.673706,264.740234 
	C558.001221,263.208191 554.739319,261.893524 556.354492,258.163910 
	C557.995422,254.374847 561.465027,254.477402 564.850891,255.941147 
	C565.835632,256.366882 566.678528,257.120819 567.296143,258.720917 
	C565.724060,258.421356 564.152283,257.898285 562.579834,257.896332 
	C561.421692,257.894897 560.262756,258.574554 559.104187,258.950714 
	C559.744324,259.954865 560.295776,261.034637 561.061401,261.931702 
	C561.452393,262.389893 562.206970,262.581940 562.832092,262.788696 
	C565.895935,263.802002 568.346252,265.991119 566.605957,268.944275 
	C565.562744,270.714569 562.126648,271.552551 559.656555,271.828156 
	C558.133911,271.998047 556.405090,270.320343 553.963684,269.054779 
	C558.167480,269.054779 561.168152,269.054779 564.374146,268.750549 
z"/>
<path fill="#9D89FD" opacity="1.000000" stroke="none" 
	d="
M601.922729,259.842773 
	C606.041321,258.864594 611.144104,254.872040 613.943176,259.274261 
	C616.345032,263.051849 615.876465,268.654510 616.677246,273.450104 
	C616.013611,273.562836 615.349915,273.675568 614.686218,273.788300 
	C614.420349,272.844727 614.079712,271.915039 613.901672,270.955200 
	C613.162415,266.969666 615.964905,260.417999 609.432556,260.226624 
	C601.984741,260.008362 604.793823,266.990936 604.092651,271.291962 
	C603.963806,272.082672 603.793701,272.866638 603.642639,273.653687 
	C603.158813,273.685455 602.675049,273.717224 602.191223,273.748993 
	C602.094299,269.248566 601.997437,264.748108 601.922729,259.842773 
z"/>
<path fill="#A390FD" opacity="1.000000" stroke="none" 
	d="
M763.523987,233.422272 
	C765.385681,234.126572 767.077332,234.512161 769.518066,235.068466 
	C767.758606,236.229034 766.490540,237.065445 764.867188,238.136261 
	C766.940491,242.102081 764.711426,249.008163 773.142944,248.472260 
	C769.948914,251.717316 766.805725,252.063034 765.819031,249.049835 
	C763.916748,243.240265 759.108826,238.122925 761.008789,230.368057 
	C762.083313,231.621460 762.718689,232.362503 763.523987,233.422272 
z"/>
<path fill="#0E0E0E" opacity="1.000000" stroke="none" 
	d="
M455.542358,53.746189 
	C452.738708,55.713104 450.208588,57.434647 448.057404,58.898327 
	C445.716736,57.128368 442.826477,54.942829 440.900940,53.486790 
	C442.692169,52.193695 445.487549,50.175674 448.255493,48.177467 
	C450.077850,49.460621 452.946838,51.480721 455.542358,53.746189 
z"/>
<path fill="#A391FD" opacity="1.000000" stroke="none" 
	d="
M726.765381,258.096558 
	C726.769226,259.550049 726.680420,260.604675 726.591675,261.659332 
	C726.059753,261.750275 725.527832,261.841217 724.995911,261.932159 
	C723.824158,256.925201 722.652405,251.918259 721.549377,247.204865 
	C725.005920,246.064362 727.695557,245.176910 730.385132,244.289459 
	C730.776978,244.540283 731.168823,244.791122 731.560669,245.041946 
	C726.178101,248.149445 724.704346,252.414108 726.765381,258.096558 
z"/>
<path fill="#A391FD" opacity="1.000000" stroke="none" 
	d="
M572.260559,259.748718 
	C572.759094,258.387939 573.217163,257.441833 573.675232,256.495758 
	C574.171326,256.589081 574.667419,256.682434 575.163513,256.775757 
	C574.873474,262.080322 574.583435,267.384857 574.293396,272.689423 
	C573.602295,272.666809 572.911194,272.644196 572.220093,272.621582 
	C572.220093,268.468872 572.220093,264.316162 572.260559,259.748718 
z"/>
<path fill="#A390FD" opacity="1.000000" stroke="none" 
	d="
M737.335449,256.429565 
	C736.355164,251.888489 735.508972,247.725540 734.662781,243.562592 
	C735.384399,243.414658 736.106079,243.266708 736.827698,243.118774 
	C738.013611,248.209412 739.199585,253.300034 740.385498,258.390656 
	C739.937073,258.556549 739.488708,258.722443 739.040344,258.888336 
	C738.516724,258.194794 737.993164,257.501251 737.335449,256.429565 
z"/>
<path fill="#222222" opacity="1.000000" stroke="none" 
	d="
M391.810364,98.646927 
	C391.034515,99.722641 390.505768,100.543541 389.947449,101.410370 
	C388.637024,99.828827 387.429504,98.371452 386.136047,96.810364 
	C387.236389,95.958199 388.484070,94.991959 390.723053,93.258011 
	C391.232361,95.217468 391.644928,96.804787 391.810364,98.646927 
z"/>
<path fill="#FAFAFA" opacity="1.000000" stroke="none" 
	d="
M358.710724,161.136597 
	C357.459137,152.953613 358.190002,145.421326 362.012085,138.490585 
	C365.752350,131.708099 371.649139,131.657700 375.151611,138.596222 
	C380.653320,149.495239 380.618256,160.751282 375.045074,171.609161 
	C371.511261,178.493973 365.613434,178.331955 361.994324,171.402344 
	C360.419434,168.386780 359.827667,164.857773 358.710724,161.136597 
z"/>
<path fill="#FCFCFC" opacity="1.000000" stroke="none" 
	d="
M94.213409,112.414162 
	C94.161949,108.382240 96.321938,108.404549 98.842506,109.150017 
	C107.664742,111.759216 113.329041,117.946823 116.500244,126.158829 
	C123.032654,143.074905 122.864342,159.942596 114.356445,176.256500 
	C110.315498,184.004990 103.726776,188.310669 95.032738,189.343842 
	C91.978111,163.866104 92.032219,138.383408 94.213409,112.414162 
z"/>
<path fill="#F9F9F9" opacity="1.000000" stroke="none" 
	d="
M193.054291,135.774628 
	C197.893738,143.754257 198.227173,151.867783 194.924057,159.914139 
	C193.939926,162.311447 190.909653,165.540268 188.960693,165.445053 
	C186.549026,165.327225 183.292007,162.616837 182.143707,160.198608 
	C178.427780,152.373260 179.022934,144.369629 183.766571,137.003708 
	C186.041962,133.470459 189.123245,131.998047 193.054291,135.774628 
z"/>
<path fill="#FDFDFD" opacity="1.000000" stroke="none" 
	d="
M617.068481,189.265366 
	C609.722839,190.631027 604.612061,187.410339 602.247314,181.420059 
	C599.604004,174.724243 597.570618,167.552933 596.753967,160.418915 
	C594.972656,144.857239 594.950928,129.212952 598.977661,113.880135 
	C599.808472,110.716576 601.070740,107.540352 602.763428,104.752014 
	C608.623291,95.099747 620.389465,94.917336 625.583740,104.910500 
	C628.641724,110.793655 630.371887,117.655663 631.344910,124.276466 
	C633.703857,140.327728 633.464478,156.473694 629.728333,172.338654 
	C628.049377,179.468124 625.616272,186.546188 617.068481,189.265366 
z"/>
<path fill="#FDFDFD" opacity="1.000000" stroke="none" 
	d="
M765.253418,113.782227 
	C757.470459,124.337990 749.841675,134.521988 742.212830,144.705978 
	C741.890076,144.531128 741.567383,144.356277 741.244629,144.181427 
	C741.244629,129.498184 741.244629,114.814934 741.244629,99.781105 
	C745.876770,99.781105 750.337830,99.750977 754.798340,99.787125 
	C765.364990,99.872734 767.718323,102.908928 765.253418,113.782227 
z"/>
<path fill="#F7F7F7" opacity="1.000000" stroke="none" 
	d="
M907.944580,156.031952 
	C908.398621,158.546555 908.796387,160.647125 909.483154,164.273849 
	C902.574219,156.772293 896.625916,150.369858 890.779846,143.875320 
	C890.223389,143.257095 889.979431,142.000748 890.142334,141.145737 
	C892.254883,130.051712 894.464172,118.976051 896.673950,107.900703 
	C896.728210,107.628944 897.066589,107.413902 897.661133,106.716461 
	C901.131348,123.309258 904.509827,139.463577 907.944580,156.031952 
z"/>
<path fill="#FCFCFF" opacity="1.000000" stroke="none" 
	d="
M515.981995,255.020203 
	C516.461182,251.985794 516.906128,249.381714 517.403442,246.470993 
	C522.101990,246.946930 527.343079,246.791641 529.154480,251.960083 
	C530.094788,254.642960 529.565369,258.768646 528.036255,261.193390 
	C524.990295,266.023468 519.881836,264.069855 514.794617,263.520416 
	C515.210999,260.606567 515.579407,258.028534 515.981995,255.020203 
z"/>
<path fill="#FAF9FF" opacity="1.000000" stroke="none" 
	d="
M587.946838,269.987793 
	C583.769470,269.528992 581.595703,267.055695 582.566589,263.663788 
	C583.110718,261.762848 586.148865,259.367493 588.032959,259.393524 
	C589.969849,259.420258 593.002380,261.804626 593.540466,263.722565 
	C594.536377,267.272278 591.913574,269.383820 587.946838,269.987793 
z"/>
<path fill="#FCFCFF" opacity="1.000000" stroke="none" 
	d="
M704.406250,253.493347 
	C703.953308,250.998108 703.653015,248.888840 703.316162,246.522339 
	C706.968933,245.208954 710.799561,243.266052 714.076416,246.858505 
	C714.996582,247.867340 714.999329,251.196747 714.078857,252.116226 
	C711.547058,254.645325 708.294922,256.414642 704.406250,253.493347 
z"/>
<path fill="#FAF9FF" opacity="1.000000" stroke="none" 
	d="
M545.072632,260.993347 
	C543.131775,260.700531 541.608826,260.425232 539.908386,260.117828 
	C540.797546,256.286224 543.048279,255.253693 545.864380,256.163513 
	C547.114563,256.567444 547.924438,258.334442 548.934143,259.482727 
	C547.786316,259.992096 546.638489,260.501465 545.072632,260.993347 
z"/>
<path fill="#FAF9FF" opacity="1.000000" stroke="none" 
	d="
M675.526123,259.373779 
	C677.440918,257.690277 679.125488,255.712738 681.139282,255.284897 
	C682.331726,255.031540 684.044189,257.225372 685.522888,258.318817 
	C685.274231,258.955780 685.025635,259.592773 684.776978,260.229767 
	C681.662720,260.063660 678.548523,259.897552 675.526123,259.373779 
z"/>
<path fill="#FAF9FF" opacity="1.000000" stroke="none" 
	d="
M475.622375,252.436340 
	C472.960205,253.115372 470.309784,254.214340 468.162903,253.587814 
	C466.750977,253.175766 465.084045,250.145691 465.298523,248.521332 
	C465.577179,246.410889 467.200104,243.723495 469.014862,242.802460 
	C470.541901,242.027466 474.453094,242.796539 475.037415,243.992188 
	C476.158752,246.286621 475.669220,249.368332 475.622375,252.436340 
z"/>
</svg>