<svg version="1.1" id="Layer_1" xmlns="http://www.w3.org/2000/svg" xmlns:xlink="http://www.w3.org/1999/xlink" x="0px" y="0px"
	 width="100%" viewBox="0 0 3240 750" enable-background="new 0 0 3240 750" xml:space="preserve">
<path fill="#FFFFFF" opacity="1.000000" stroke="none" 
	d="
M2343.000000,751.000000 
	C1562.000000,751.000000 781.500000,751.000000 1.000000,751.000000 
	C1.000000,501.000000 1.000000,251.000000 1.000000,1.000000 
	C1081.000000,1.000000 2161.000000,1.000000 3241.000000,1.000000 
	C3241.000000,251.000000 3241.000000,501.000000 3241.000000,751.000000 
	C2941.833252,751.000000 2642.666748,751.000000 2343.000000,751.000000 
M1268.026611,46.135849 
	C1268.026611,40.811687 1268.026611,35.487526 1268.026611,30.163364 
	C1267.444946,30.160128 1266.863281,30.156893 1266.281616,30.153658 
	C1266.281616,35.838799 1266.281616,41.523937 1266.213013,48.115463 
	C1265.140991,61.868015 1264.970825,75.764191 1262.807983,89.342995 
	C1258.413452,116.933868 1248.772339,126.197945 1224.764160,130.831482 
	C1211.297729,133.430511 1197.385498,133.751190 1183.662109,134.963516 
	C1180.375000,135.253906 1177.040405,135.006638 1173.727661,135.006638 
	C1173.738647,135.498199 1173.749634,135.989777 1173.760620,136.481339 
	C1174.851562,136.613724 1175.939087,136.788635 1177.033691,136.872009 
	C1191.113525,137.944656 1205.299805,138.256927 1219.252319,140.227097 
	C1246.005127,144.004745 1257.666748,153.310242 1261.882080,179.251663 
	C1264.378906,194.617523 1264.773071,210.325104 1265.987671,226.826569 
	C1266.141968,232.151093 1266.296265,237.475601 1266.450439,242.800125 
	C1266.931030,242.771500 1267.411621,242.742874 1267.892212,242.714249 
	C1267.892212,236.786285 1267.892212,230.858322 1267.915283,224.005997 
	C1268.937988,210.751587 1269.510376,197.443665 1271.077393,184.253906 
	C1274.317749,156.979538 1284.240723,145.786514 1311.174194,140.975967 
	C1325.659424,138.388794 1340.574829,138.186539 1355.303955,137.006332 
	C1358.276978,136.768097 1361.285645,136.971878 1364.277832,136.971878 
	C1364.257812,136.353592 1364.237915,135.735321 1364.217896,135.117035 
	C1362.155518,135.117035 1360.080811,135.263702 1358.032593,135.093765 
	C1341.987183,133.762634 1325.835083,133.136612 1309.931885,130.813538 
	C1287.516113,127.539085 1275.787842,116.061600 1272.232300,93.701126 
	C1269.786621,78.320381 1269.281738,62.631035 1268.026611,46.135849 
M1204.080811,287.942322 
	C1213.561401,286.315918 1219.653076,280.177734 1220.980713,270.913422 
	C1223.204956,255.392990 1213.090454,242.331894 1197.502319,240.869675 
	C1183.584106,239.564072 1170.671387,243.106598 1158.905151,250.323547 
	C1146.425415,257.978027 1137.716675,268.841675 1133.631348,283.338196 
	C1132.335205,283.204559 1131.198975,283.139374 1130.080078,282.964264 
	C1111.997559,280.134552 1093.881348,279.936584 1075.853760,283.076721 
	C1049.986938,287.582367 1026.264282,296.782318 1006.870667,315.345734 
	C979.421631,341.619720 978.163147,377.081604 1004.865051,404.144867 
	C1013.352173,412.746826 1024.006958,419.209961 1033.242310,426.322449 
	C1031.513550,428.259918 1028.907593,431.020325 1026.488525,433.935852 
	C1023.944336,437.002197 1021.284302,440.033905 1019.192078,443.402039 
	C1013.525513,452.524292 1015.225830,461.245361 1024.192383,467.209198 
	C1027.681396,469.529785 1031.945312,471.427338 1036.050903,471.931030 
	C1045.947021,473.145081 1055.951904,473.543121 1065.923950,474.051392 
	C1082.484131,474.895416 1098.806152,477.095001 1113.991211,484.097351 
	C1144.625122,498.223877 1166.071289,520.132019 1171.525269,554.748596 
	C1175.220093,578.199219 1161.359619,596.385254 1137.851440,599.025818 
	C1114.381714,601.662170 1093.764648,594.399170 1075.889038,579.416687 
	C1057.642822,564.123596 1048.659790,545.063965 1052.901123,520.698303 
	C1055.050415,508.351166 1049.057861,499.909424 1036.476196,496.087097 
	C1019.450867,490.914795 1002.767639,492.626099 986.856201,499.901123 
	C964.453064,510.144226 959.147339,526.452393 970.441711,548.433289 
	C978.035400,563.211975 988.811584,575.323608 1002.078003,585.237244 
	C1025.596436,602.811890 1052.302979,611.773804 1081.242432,615.510742 
	C1133.412231,622.247498 1184.097412,598.118835 1210.451416,552.813232 
	C1222.087036,532.810303 1226.992554,511.538940 1219.417114,488.675232 
	C1211.803833,465.697479 1184.697632,441.436279 1149.030273,443.871552 
	C1129.678345,445.192841 1110.494751,448.930389 1091.221802,451.476715 
	C1079.206055,453.064148 1067.193970,454.837402 1055.121826,455.766174 
	C1050.091919,456.153168 1045.043091,453.974060 1043.002319,448.610962 
	C1040.930176,443.165375 1045.222534,440.067230 1048.357056,436.701111 
	C1049.030396,435.978027 1049.805664,435.153107 1050.692505,434.867706 
	C1052.393066,434.320465 1054.405762,433.441254 1055.944336,433.887695 
	C1081.986084,441.443848 1108.314453,443.214996 1134.975952,437.968109 
	C1162.018433,432.646179 1186.446777,422.190186 1205.281250,401.156311 
	C1225.813843,378.226105 1226.977783,348.356323 1208.149780,324.066711 
	C1195.845703,308.193451 1179.419434,298.087097 1160.854248,291.143768 
	C1156.883911,289.658905 1152.851074,288.341492 1147.903564,286.618347 
	C1158.311646,282.406403 1167.922607,283.533630 1177.494751,284.649078 
	C1186.076660,285.649139 1194.631592,286.881653 1204.080811,287.942322 
M441.975494,366.417175 
	C448.865234,326.589355 439.445435,290.929901 413.248322,260.308258 
	C381.801880,223.550781 340.929352,206.547089 292.977600,206.113464 
	C259.320312,205.809097 225.658035,206.054611 191.998001,206.054581 
	C188.332062,206.054581 184.612137,205.682098 181.021454,206.201996 
	C179.033051,206.489899 176.453613,207.866730 175.635132,209.501175 
	C174.922791,210.923630 176.004959,213.543320 176.874603,215.355392 
	C177.463531,216.582535 179.016724,217.381699 180.208664,218.279297 
	C193.307510,228.143402 200.123627,241.067261 200.106613,257.659393 
	C200.048721,314.147125 200.052139,370.635315 200.232010,427.122681 
	C200.286682,444.285736 193.535797,457.687469 179.722061,467.678131 
	C176.759506,469.820709 174.183472,472.292999 175.360641,476.368408 
	C176.670410,480.902802 180.588470,480.237793 184.051941,480.238586 
	C219.711594,480.246948 255.377121,480.614807 291.027802,480.048798 
	C304.088867,479.841431 317.512085,478.960968 330.088531,475.732513 
	C387.762360,460.927032 427.224487,426.720062 441.975494,366.417175 
M1305.499878,480.243347 
	C1318.663818,480.242188 1331.835205,480.474365 1344.985229,480.044891 
	C1347.645264,479.958038 1351.394409,477.948822 1352.479980,475.755859 
	C1353.395386,473.906158 1352.013916,469.566437 1350.202515,467.946045 
	C1340.563354,459.322906 1336.654419,447.955353 1334.075684,435.982544 
	C1328.300659,409.171204 1328.979858,382.028564 1330.544678,354.876160 
	C1330.802368,350.405273 1330.485718,345.592651 1332.049561,341.565094 
	C1336.335449,330.526825 1342.028442,320.152283 1350.583130,311.684143 
	C1358.406128,303.940094 1367.247437,303.932770 1375.188477,311.677887 
	C1382.532227,318.840393 1386.628296,327.917633 1389.915405,337.412842 
	C1397.415039,359.076599 1400.049072,381.571442 1399.514404,404.274994 
	C1398.960938,427.772980 1395.885132,450.777008 1378.681641,469.271240 
	C1374.222656,474.064880 1377.110474,479.419586 1383.725708,480.046448 
	C1385.711060,480.234619 1387.719116,480.234528 1389.716797,480.235687 
	C1411.212280,480.248047 1432.707642,480.243408 1454.203125,480.243347 
	C1466.700562,480.243347 1479.201172,480.388550 1491.692017,480.100433 
	C1493.781616,480.052216 1497.229614,478.450134 1497.571289,476.987152 
	C1498.106445,474.694916 1496.755493,471.815552 1495.742065,469.376556 
	C1495.303467,468.321136 1493.708130,467.752960 1492.650635,466.947174 
	C1481.676514,458.585480 1474.319336,448.030426 1473.792114,433.852325 
	C1473.290894,420.375488 1473.688721,406.861450 1473.042236,393.394928 
	C1472.492920,381.952118 1472.290405,370.259094 1469.725708,359.188507 
	C1460.456177,319.176270 1437.714478,291.577332 1395.910645,282.471527 
	C1372.830444,277.444153 1353.853516,283.666809 1339.010498,302.143372 
	C1338.229248,303.115845 1337.541870,304.163666 1336.810913,305.176392 
	C1336.870850,299.460419 1337.797241,294.401886 1338.907227,289.383942 
	C1340.622925,281.627441 1338.434570,279.579773 1330.645386,281.905273 
	C1328.907349,282.424194 1327.128662,283.027069 1325.591675,283.958923 
	C1320.906494,286.799713 1316.133423,289.555054 1311.744629,292.815216 
	C1289.961548,308.996552 1266.681152,321.105713 1238.612427,321.027740 
	C1237.133545,321.023621 1234.639893,322.498871 1234.392456,323.662598 
	C1233.964355,325.675873 1234.338013,328.373566 1235.456787,330.072021 
	C1236.863770,332.208008 1239.361450,333.623596 1241.381836,335.357819 
	C1251.132690,343.727325 1257.704712,353.969452 1258.114746,367.066254 
	C1258.698242,385.708099 1258.462891,404.374695 1258.966797,423.020203 
	C1259.475342,441.825439 1253.429932,457.282318 1237.528809,468.197662 
	C1234.509888,470.269958 1232.927979,473.107452 1234.069092,476.790771 
	C1235.226929,480.527893 1238.490234,480.243835 1241.513062,480.243713 
	C1262.508667,480.242920 1283.504150,480.243347 1305.499878,480.243347 
M639.513367,450.015503 
	C645.403748,442.623108 651.414307,435.320831 657.081299,427.760986 
	C658.190247,426.281708 658.869995,423.365631 658.151428,421.889252 
	C657.036255,419.598297 654.752197,416.777161 652.587158,416.411682 
	C650.506042,416.060364 647.231384,417.970825 645.707520,419.870941 
	C630.717163,438.562347 590.537598,449.554657 565.702087,434.090179 
	C553.130676,426.262207 544.998718,415.467560 540.603516,401.468048 
	C549.217407,403.552032 557.272827,406.252655 565.541931,407.365875 
	C594.782104,411.302368 620.339355,403.633453 640.466736,381.324707 
	C658.766785,361.041290 659.215759,333.010620 640.942383,312.903168 
	C634.347839,305.646729 626.343689,298.868134 617.671692,294.437653 
	C572.799500,271.512695 529.802246,276.956360 490.570984,307.225616 
	C450.877533,337.851440 443.579315,393.799744 472.292389,434.751251 
	C509.850830,488.318268 590.280151,495.918152 639.513367,450.015503 
M729.764526,283.217865 
	C713.264832,286.824921 698.031189,292.929382 685.494507,304.780182 
	C667.262451,322.014771 664.612488,350.425842 680.293823,369.956940 
	C685.220276,376.092834 691.313904,381.747040 697.923523,385.983032 
	C712.461609,395.300293 727.707947,403.507446 742.588318,412.297729 
	C750.663940,417.068207 758.197144,422.557343 763.370239,430.639374 
	C769.100342,439.591492 769.195984,450.852234 763.642212,458.386902 
	C760.410461,462.771362 756.075317,464.955780 750.637817,463.960449 
	C745.562317,463.031342 742.996155,459.113464 742.118469,454.559357 
	C741.247803,450.041168 741.159851,445.319305 741.192993,440.690094 
	C741.277161,428.938507 736.603516,419.864380 726.029541,414.620026 
	C711.343628,407.336304 696.325623,407.596405 681.927002,415.263977 
	C669.680237,421.785675 666.800110,433.090424 673.310730,445.381165 
	C679.728699,457.496826 690.289124,464.839722 702.469727,470.015594 
	C724.413330,479.340118 747.331360,482.129822 770.895874,478.823761 
	C792.347717,475.814117 811.656799,467.880737 827.152771,452.246765 
	C846.237366,432.992126 846.602234,410.814178 827.778748,391.408813 
	C821.919189,385.368225 815.104004,380.074524 808.107849,375.355988 
	C795.565857,366.897156 782.293335,359.513123 769.843628,350.929352 
	C762.930725,346.163147 756.377625,340.472656 750.896790,334.131744 
	C743.740723,325.852844 741.638184,315.801727 745.836182,305.204315 
	C748.040283,299.640564 752.976074,296.514893 758.205627,296.725677 
	C763.333374,296.932312 767.595276,300.040039 769.151794,306.067444 
	C770.336914,310.656586 770.795776,315.590179 770.636719,320.338959 
	C770.223022,332.684692 775.309204,341.696472 786.311218,346.971802 
	C800.066895,353.567474 814.222595,353.167633 827.781921,346.701385 
	C841.536621,340.141968 844.670837,328.029022 837.195862,314.588348 
	C831.355042,304.085968 822.429138,297.078888 811.729919,292.292725 
	C785.699219,280.648224 758.515930,278.522675 729.764526,283.217865 
M2266.360596,376.168640 
	C2282.741211,414.253754 2299.122070,452.338867 2315.667236,490.806396 
	C2324.234131,486.355560 2332.422363,482.101624 2340.643066,477.830780 
	C2339.785889,475.746552 2339.177490,474.202545 2338.520508,472.679626 
	C2315.829102,420.075256 2293.155029,367.463348 2270.376709,314.896545 
	C2269.166260,312.103271 2269.359863,310.312317 2271.335205,307.890350 
	C2284.593506,291.634277 2297.886475,275.395599 2310.689453,258.782379 
	C2319.571777,247.256516 2325.117920,234.279480 2325.677490,219.333893 
	C2326.459473,198.437820 2317.704834,182.151382 2299.681885,174.513580 
	C2292.613281,171.517960 2284.675293,169.303329 2277.065186,169.082336 
	C2249.430420,168.279892 2221.766846,168.470932 2194.114014,168.309998 
	C2193.836670,168.308380 2193.557617,168.614548 2193.291504,168.784531 
	C2193.291504,274.635803 2193.291504,380.487091 2193.291504,486.273621 
	C2202.568115,486.273621 2211.482422,486.273621 2220.726562,486.273621 
	C2220.726562,484.123413 2220.726807,482.315704 2220.726807,480.507996 
	C2220.727051,448.683289 2221.198242,416.847870 2220.473145,385.039703 
	C2220.217285,373.818390 2222.599121,364.928284 2230.656982,356.963043 
	C2237.169434,350.525574 2242.560059,342.953217 2248.852539,335.399048 
	C2254.805420,349.255951 2260.435059,362.359985 2266.360596,376.168640 
M1917.924927,406.442078 
	C1918.916870,400.196625 1920.188477,393.980896 1920.856201,387.700958 
	C1925.632324,342.788544 1926.055420,297.905029 1918.940796,253.176712 
	C1915.687134,232.721313 1910.448853,212.818665 1899.463745,194.906525 
	C1885.658081,172.395264 1865.547119,161.514771 1839.115112,161.904175 
	C1812.271118,162.299652 1792.912964,174.795166 1779.988159,197.852112 
	C1766.421509,222.054413 1761.754028,248.750595 1759.166382,275.838928 
	C1755.431152,314.940308 1755.771729,354.062988 1761.078735,393.026367 
	C1764.121948,415.369110 1769.574951,436.999481 1780.823975,456.944061 
	C1803.971313,497.984100 1853.548096,497.791870 1879.230591,479.972229 
	C1891.670044,471.341064 1900.460815,459.594238 1905.825562,445.751495 
	C1910.666626,433.259644 1913.868164,420.132477 1917.924927,406.442078 
M2005.956421,441.377319 
	C2000.715942,430.603729 1999.818848,419.080261 1999.826416,407.332153 
	C1999.876953,329.685913 1999.852783,252.039597 1999.853027,174.393295 
	C1999.853149,172.461411 1999.853149,170.529541 1999.853149,168.464569 
	C1990.278687,168.464569 1981.359619,168.464569 1971.996338,168.464569 
	C1971.996338,170.147934 1971.996338,171.604660 1971.996338,173.061371 
	C1971.996216,252.540512 1971.939697,332.019745 1972.084961,411.498657 
	C1972.099243,419.281494 1972.679688,427.193207 1974.159302,434.819672 
	C1979.073486,460.149414 1993.065186,478.067230 2018.246460,486.041290 
	C2036.096558,491.693817 2054.265381,492.319824 2072.474121,488.089142 
	C2094.957275,482.865387 2110.719727,469.638947 2119.199219,447.943817 
	C2124.322510,434.836243 2125.689453,421.159851 2125.696533,407.280365 
	C2125.736572,329.467438 2125.716553,251.654526 2125.716797,173.841614 
	C2125.716797,172.078064 2125.716797,170.314499 2125.716797,168.515594 
	C2116.092285,168.515594 2107.176025,168.515594 2097.927979,168.515594 
	C2097.927979,170.770370 2097.927979,172.745453 2097.927979,174.720520 
	C2097.927979,251.700333 2097.948975,328.680176 2097.886963,405.659912 
	C2097.882080,411.642761 2097.695068,417.678467 2096.903076,423.597321 
	C2094.911133,438.483368 2089.599121,451.623962 2075.796387,459.644501 
	C2066.621094,464.976074 2056.499756,465.694550 2046.267578,464.954224 
	C2029.343506,463.729645 2014.702393,458.231903 2005.956421,441.377319 
M2667.695068,195.042648 
	C2663.797852,214.272339 2659.880127,233.497955 2656.006836,252.732483 
	C2642.482178,319.894073 2628.969971,387.058228 2615.459229,454.222687 
	C2613.312744,464.893097 2611.197510,475.569702 2609.033936,486.412598 
	C2618.250000,486.412598 2626.880859,486.412598 2635.739502,486.412598 
	C2644.212402,442.729004 2652.655273,399.198334 2661.144287,355.430847 
	C2661.855713,355.866852 2662.342773,356.036957 2662.649902,356.371979 
	C2686.863770,382.771515 2711.077148,409.171417 2735.215820,435.639526 
	C2736.246094,436.769318 2736.860107,438.480652 2737.182617,440.022583 
	C2740.176758,454.345123 2743.018799,468.699677 2746.059570,483.011963 
	C2746.338623,484.325439 2747.661133,486.417267 2748.552246,486.445068 
	C2756.976807,486.708099 2765.413330,486.601593 2774.457520,486.601593 
	C2751.766846,380.135468 2729.220947,274.348999 2706.647949,168.433899 
	C2695.378174,168.433899 2684.413818,168.433899 2672.994629,168.433899 
	C2671.295410,176.978592 2669.582031,185.593460 2667.695068,195.042648 
M892.884216,314.496307 
	C883.141724,316.493347 873.386719,318.432434 863.663086,320.517365 
	C860.013000,321.300018 854.900208,319.058716 853.198242,324.170197 
	C851.430603,329.478851 856.148926,331.757080 859.406982,334.428009 
	C869.779602,342.931641 876.930115,353.442749 877.266663,367.106689 
	C877.807678,389.075104 877.868896,411.067139 877.535339,433.040161 
	C877.370483,443.896393 872.798462,453.385376 864.981812,461.051514 
	C862.020386,463.955841 858.276367,466.131958 855.638306,469.269897 
	C854.056580,471.151459 852.895813,474.525269 853.479797,476.711761 
	C853.909912,478.322021 857.465332,480.081970 859.638245,480.095093 
	C894.291565,480.304138 928.947388,480.340454 963.599670,480.056671 
	C966.391052,480.033844 970.179504,478.061829 971.688599,475.789551 
	C973.674805,472.798950 971.558228,469.407990 968.750061,467.135803 
	C962.854309,462.365204 959.356812,456.063873 956.811340,449.065186 
	C951.452698,434.332367 949.678101,418.956909 949.127441,403.476318 
	C947.737000,364.386505 951.044922,325.632812 958.451233,287.228546 
	C959.391052,282.355164 957.425354,280.199158 952.507751,281.236145 
	C949.776367,281.812042 946.949707,282.694733 944.590637,284.134735 
	C937.643616,288.375214 931.072388,293.243195 924.051270,297.347687 
	C914.042358,303.198853 903.764465,308.589691 892.884216,314.496307 
M2848.812744,255.571579 
	C2847.690674,252.448730 2846.286865,249.395523 2845.495361,246.191010 
	C2842.012451,232.085358 2840.346436,217.866776 2846.705322,204.153809 
	C2854.676025,186.964371 2876.760498,184.861679 2887.926758,200.107574 
	C2891.232910,204.621765 2893.888428,209.612656 2897.020508,214.673355 
	C2905.677734,211.056320 2914.333740,207.439743 2923.406982,203.648865 
	C2920.114746,197.764664 2917.308350,192.286636 2914.083496,187.067123 
	C2902.170410,167.785767 2884.517822,159.646103 2862.363037,162.248184 
	C2841.677246,164.677765 2827.463379,176.655960 2820.043213,195.810455 
	C2809.955566,221.850891 2813.455566,247.499771 2824.816162,272.295563 
	C2833.688721,291.660461 2847.766357,307.229614 2862.614502,322.179779 
	C2871.766357,331.394348 2880.993652,340.584381 2889.488281,350.390656 
	C2908.817383,372.703491 2914.377686,398.848450 2908.784180,427.400391 
	C2906.037354,441.420715 2899.905518,453.572144 2885.538818,459.499817 
	C2865.936279,467.587799 2844.264648,462.429535 2830.207031,446.196136 
	C2827.406738,442.962280 2824.795654,439.564423 2822.027100,436.155609 
	C2813.801514,440.757477 2805.876709,445.191010 2797.671631,449.781464 
	C2811.707764,471.735535 2829.089111,487.733612 2856.098633,490.827362 
	C2886.254150,494.281494 2915.020264,480.576050 2927.651611,454.015930 
	C2944.884033,417.780090 2943.031006,381.774445 2922.585938,347.171539 
	C2912.080078,329.391113 2897.380127,314.965088 2882.855225,300.493683 
	C2869.595947,287.282928 2857.220947,273.399384 2848.812744,255.571579 
M2465.498047,339.728638 
	C2466.396729,314.953705 2466.685059,290.136597 2468.394531,265.417725 
	C2469.672363,246.939178 2474.266602,228.990921 2483.227295,212.496323 
	C2493.199463,194.139801 2509.548584,185.666626 2528.608643,189.120331 
	C2542.603516,191.656204 2551.616211,201.045578 2559.152100,212.246002 
	C2560.779785,214.664871 2562.344238,217.126205 2564.048584,219.737793 
	C2571.156494,214.782867 2577.805908,210.147522 2585.308350,204.917557 
	C2580.794189,198.359589 2576.965820,191.712692 2572.097168,185.943726 
	C2560.987549,172.779785 2546.979980,163.586685 2529.598633,162.254593 
	C2500.847900,160.051147 2478.571289,172.005386 2462.995605,196.198792 
	C2448.973389,217.979065 2443.291016,242.565247 2440.135254,267.781158 
	C2434.855469,309.966370 2435.217041,352.191895 2441.061279,394.305450 
	C2443.952881,415.141815 2449.037842,435.418396 2459.273193,454.057159 
	C2478.496094,489.061615 2517.890869,501.295990 2552.898193,483.001160 
	C2567.554932,475.341461 2577.484131,463.250183 2584.611328,448.251862 
	C2576.982910,443.949280 2569.779541,439.886322 2562.481934,435.770233 
	C2559.445068,440.362610 2556.586670,444.809692 2553.604980,449.172577 
	C2540.599854,468.200836 2511.091064,468.150574 2496.509277,454.511383 
	C2484.949463,443.698730 2479.123047,429.979431 2475.000732,415.276306 
	C2468.164795,390.894531 2466.336426,365.848694 2465.498047,339.728638 
M3058.499512,194.615723 
	C3065.616455,194.615723 3072.733398,194.615723 3079.972412,194.615723 
	C3079.972412,185.561905 3079.972412,177.001816 3079.972412,168.367340 
	C3047.499756,168.367340 3015.360107,168.367340 2982.924805,168.367340 
	C2982.924805,274.391541 2982.924805,380.283386 2982.924805,486.358734 
	C3015.396973,486.358734 3047.627930,486.358734 3080.082031,486.358734 
	C3080.082031,477.496368 3080.082031,468.890076 3080.082031,459.789795 
	C3056.845215,459.789795 3033.770752,459.789795 3010.577148,459.789795 
	C3010.577148,397.745667 3010.577148,336.195190 3010.577148,274.174591 
	C3024.971680,274.174591 3039.052979,274.174591 3053.304443,274.174591 
	C3053.304443,265.931885 3053.304443,258.160675 3053.304443,249.740662 
	C3038.896484,249.740662 3024.699463,249.740662 3010.657227,249.740662 
	C3010.657227,231.036057 3010.657227,212.983704 3010.657227,194.615692 
	C3026.537598,194.615692 3042.018555,194.615692 3058.499512,194.615723 
M1636.008545,245.419144 
	C1623.730469,220.912979 1611.474609,196.395523 1599.117676,171.929123 
	C1598.389771,170.487976 1596.881958,168.440262 1595.678589,168.399490 
	C1586.808228,168.098831 1577.922974,168.236923 1568.372681,168.236923 
	C1569.537476,170.696899 1570.259399,172.336639 1571.075439,173.928070 
	C1591.546387,213.849915 1612.082520,253.738647 1632.403076,293.736816 
	C1634.046265,296.971375 1634.962402,300.948700 1634.972046,304.584137 
	C1635.127930,363.405121 1635.082275,422.226654 1635.082275,481.048065 
	C1635.082275,482.796509 1635.082275,484.544952 1635.082275,486.308411 
	C1644.706055,486.308411 1653.628906,486.308411 1662.880371,486.308411 
	C1662.880371,484.191010 1662.880371,482.383484 1662.880371,480.575958 
	C1662.880493,421.754547 1662.837280,362.933044 1662.989136,304.112030 
	C1662.998169,300.640411 1663.946167,296.852539 1665.520752,293.751892 
	C1685.834229,253.750488 1706.343872,213.848663 1726.790771,173.914993 
	C1727.660400,172.216705 1728.405762,170.454834 1729.436646,168.231369 
	C1721.010376,168.231369 1713.363403,168.399353 1705.729614,168.154953 
	C1702.313965,168.045593 1700.501709,169.028854 1698.902100,172.250595 
	C1683.090942,204.095444 1667.068970,235.835678 1651.093140,267.598755 
	C1650.563965,268.650787 1649.889404,269.629669 1648.961792,271.178253 
	C1644.516602,262.365021 1640.415161,254.233414 1636.008545,245.419144 
M888.217773,284.358795 
	C912.674438,286.354065 936.885498,268.282196 941.738281,244.409622 
	C946.075012,223.075317 931.718628,205.748276 909.978577,206.078125 
	C888.057983,206.410721 866.428345,224.354553 862.205994,245.826843 
	C858.343323,265.469818 869.029602,281.398743 888.217773,284.358795 
M1941.982788,690.430054 
	C1941.075439,694.076904 1940.168091,697.723694 1938.939941,702.659668 
	C1933.614868,690.554504 1928.836304,679.663147 1924.032349,668.782959 
	C1921.478149,662.997986 1919.083130,657.126465 1916.161865,651.531128 
	C1915.413452,650.097595 1912.940918,649.564270 1911.260498,648.617371 
	C1910.588257,650.604919 1909.361938,652.604675 1909.405151,654.576538 
	C1909.445557,656.425415 1910.804077,658.256042 1911.625122,660.075500 
	C1919.154175,676.761475 1926.598267,693.487427 1934.350098,710.069397 
	C1935.297974,712.096802 1937.912476,713.345032 1939.754761,714.954285 
	C1941.226562,712.978394 1943.454224,711.205444 1944.047852,708.993835 
	C1947.924561,694.551147 1951.440186,680.011597 1955.095215,665.509033 
	C1955.538574,663.749817 1956.110474,662.023010 1956.981689,659.061707 
	C1964.192505,675.864014 1970.723877,691.332275 1977.545166,706.671631 
	C1978.428101,708.657227 1980.810547,709.976135 1982.498413,711.603821 
	C1984.120117,709.731689 1986.611328,708.107666 1987.227417,705.948608 
	C1992.699707,686.770630 1997.810913,667.489868 2003.110229,648.262024 
	C2003.892212,645.424805 2004.314575,642.668945 2000.888062,641.722290 
	C1997.260254,640.720154 1996.521240,643.730225 1995.824951,646.377625 
	C1993.541992,655.057007 1991.263184,663.737488 1988.984985,672.418030 
	C1986.769287,680.859436 1984.556152,689.301514 1982.038818,698.899170 
	C1980.779785,696.363525 1980.048096,695.080627 1979.485596,693.727478 
	C1973.545776,679.439941 1967.681396,665.120911 1961.668823,650.864197 
	C1960.577759,648.277161 1959.960571,644.084229 1956.020752,645.296936 
	C1954.058472,645.901062 1952.185791,649.043762 1951.564087,651.381653 
	C1948.191162,664.065979 1945.221436,676.857483 1941.982788,690.430054 
M1574.309814,631.047852 
	C1565.688843,629.386536 1557.100830,627.488403 1548.416992,626.278625 
	C1546.824829,626.056824 1543.518433,628.397888 1543.243042,629.952820 
	C1539.914551,648.739929 1537.019043,667.603577 1533.980835,686.442444 
	C1533.285156,690.755737 1535.442627,692.469543 1539.402954,693.020081 
	C1544.985840,693.796143 1550.545654,694.752014 1556.099243,695.723328 
	C1571.057373,698.339661 1586.264526,691.566406 1592.870239,679.292786 
	C1603.015137,660.443542 1595.504639,640.181885 1574.309814,631.047852 
M1757.019775,731.698364 
	C1775.055176,733.432312 1786.812256,723.961304 1786.106201,705.283142 
	C1786.006470,702.643066 1786.475464,699.985840 1786.589722,697.332520 
	C1786.961182,688.698181 1787.453125,680.062439 1787.475952,671.426086 
	C1787.479858,669.979553 1785.379639,668.527466 1784.251831,667.078003 
	C1782.849243,668.406799 1781.167603,669.554504 1780.144897,671.130005 
	C1779.496216,672.129333 1779.828003,673.765320 1779.682861,675.581177 
	C1768.997192,662.396423 1753.596558,663.902161 1745.038818,670.750122 
	C1736.174072,677.843628 1734.027222,692.651550 1740.375732,701.966919 
	C1743.947021,707.207153 1748.876953,710.495422 1754.897095,711.761230 
	C1764.195923,713.716309 1772.142212,710.725830 1778.700684,702.963684 
	C1779.385010,719.278870 1772.676025,726.211609 1757.620972,724.860229 
	C1753.180908,724.461731 1748.979370,721.801270 1744.564087,720.545349 
	C1742.646851,719.999939 1739.380249,719.532349 1738.612305,720.510254 
	C1736.509399,723.188354 1738.866577,725.186279 1741.291138,726.152405 
	C1746.183350,728.101685 1751.208252,729.717224 1757.019775,731.698364 
M2102.500244,650.029419 
	C2104.899658,662.906067 2107.165039,675.810730 2109.844482,688.628906 
	C2110.241699,690.530518 2112.652100,693.478271 2114.027344,693.421387 
	C2117.529541,693.276672 2117.341553,689.998718 2117.032959,687.259216 
	C2116.903320,686.108582 2116.647461,684.972107 2116.447266,683.829529 
	C2115.623535,679.130798 2114.799072,674.432190 2113.917725,669.407898 
	C2116.343750,668.896790 2118.432129,668.494324 2120.501953,668.013672 
	C2125.984375,666.740845 2131.630615,665.916870 2136.900635,664.041016 
	C2148.072021,660.064636 2153.789062,650.473267 2151.854004,640.048523 
	C2149.743164,628.676025 2141.902344,622.260376 2129.249023,622.987854 
	C2120.697998,623.479492 2112.243652,625.563049 2103.729736,626.824768 
	C2099.594238,627.437622 2098.582275,629.753784 2099.359619,633.550354 
	C2100.423828,638.747803 2101.295898,643.984619 2102.500244,650.029419 
M2050.547607,703.283875 
	C2054.226318,700.809265 2058.102295,698.567017 2061.461426,695.715698 
	C2062.447266,694.879211 2061.965576,692.313660 2062.156250,690.540527 
	C2060.474121,690.796753 2058.592041,690.665955 2057.159180,691.405212 
	C2055.283447,692.372925 2053.900879,694.262085 2052.065918,695.348938 
	C2041.036987,701.882202 2026.942505,696.596741 2025.543213,684.060303 
	C2027.292725,683.725464 2029.054077,683.288269 2030.842163,683.063232 
	C2039.729004,681.944946 2048.628906,680.929871 2057.510986,679.776001 
	C2060.827881,679.345154 2063.580078,678.490662 2063.095459,673.929260 
	C2062.130371,664.843140 2054.894775,656.281677 2045.495850,653.710205 
	C2037.055908,651.401245 2026.948242,655.144165 2021.725830,662.512207 
	C2015.244507,671.656494 2015.081055,684.607300 2021.328735,693.959106 
	C2027.603638,703.351685 2036.876465,706.489990 2050.547607,703.283875 
M1622.157593,697.608765 
	C1616.974854,693.887085 1614.260498,688.958862 1614.451904,682.050659 
	C1616.384155,682.158264 1618.020386,682.155212 1619.631592,682.354675 
	C1629.023071,683.517395 1638.407959,684.731995 1647.796509,685.918945 
	C1650.737671,686.290771 1653.391479,685.783264 1653.788940,682.307617 
	C1655.050659,671.275879 1649.087524,656.044250 1632.448242,655.036987 
	C1622.439697,654.431152 1613.043823,660.620850 1609.229736,670.010742 
	C1604.442139,681.797119 1607.024902,693.964966 1615.901001,701.441101 
	C1623.887451,708.167847 1635.931030,709.071960 1645.273926,703.222778 
	C1646.973389,702.158875 1649.085205,698.983459 1648.593628,697.726074 
	C1647.281738,694.369690 1644.526245,696.300476 1642.365723,697.491089 
	C1635.926392,701.039795 1629.422852,701.327271 1622.157593,697.608765 
M1417.370361,665.095886 
	C1430.326660,661.504944 1437.383789,652.082275 1437.144897,638.693237 
	C1436.878174,623.759216 1424.196533,612.776184 1408.661743,614.025452 
	C1394.096558,615.196716 1383.742432,629.328918 1386.031250,644.913391 
	C1388.022583,658.472168 1402.781006,668.308716 1417.370361,665.095886 
M2276.561035,656.857361 
	C2276.968262,655.333252 2278.017334,653.647461 2277.680664,652.311035 
	C2275.246826,642.655029 2272.962891,632.924805 2269.788818,623.501770 
	C2266.417480,613.491882 2257.848389,609.514771 2247.525146,611.925964 
	C2240.576172,613.549072 2236.464355,618.197632 2233.513184,624.823547 
	C2233.103271,623.682922 2232.865723,623.101746 2232.684570,622.503601 
	C2231.881836,619.856018 2230.991211,616.973572 2227.390869,618.134766 
	C2223.806396,619.290894 2224.865967,622.300537 2225.526367,624.857117 
	C2228.723389,637.231750 2231.923096,649.606262 2235.253662,661.945312 
	C2235.932129,664.458191 2236.944580,667.830872 2240.365479,666.417480 
	C2241.719727,665.857971 2242.828857,662.250122 2242.441406,660.359863 
	C2240.877197,652.727173 2238.594238,645.245300 2236.749268,637.665771 
	C2234.622559,628.928711 2238.839111,621.317322 2246.773926,619.233521 
	C2255.363281,616.977661 2261.498779,620.906738 2264.093750,630.433899 
	C2266.144043,637.960510 2268.030029,645.531982 2270.105957,653.051331 
	C2270.887939,655.883728 2272.004883,658.615845 2276.561035,656.857361 
M1479.504272,667.962036 
	C1473.096802,673.517151 1467.001099,674.247437 1460.419189,670.248535 
	C1455.478149,667.246582 1453.806396,661.570129 1455.513794,653.827637 
	C1457.156738,646.376953 1458.627319,638.885742 1460.416138,631.470825 
	C1461.100708,628.633240 1460.926270,626.234436 1458.001099,625.360840 
	C1454.659302,624.362854 1453.699707,627.115906 1453.130859,629.617493 
	C1451.108276,638.514038 1448.934937,647.389038 1447.325195,656.363037 
	C1445.939331,664.088501 1447.772217,671.201416 1454.743164,675.633179 
	C1461.837646,680.143555 1469.390015,680.715576 1476.801514,675.867493 
	C1477.658813,675.306763 1478.612915,674.894226 1478.281372,675.069702 
	C1479.886353,677.851440 1480.929077,681.868347 1482.641846,682.178040 
	C1486.491821,682.874023 1486.749878,678.829102 1487.383423,675.958374 
	C1490.099976,663.650208 1492.744019,651.325867 1495.517334,639.030518 
	C1496.153931,636.207947 1495.884399,633.520081 1492.769897,633.369568 
	C1491.317627,633.299377 1489.015625,635.659973 1488.363892,637.394165 
	C1487.095093,640.770081 1486.921021,644.538574 1485.927979,648.040894 
	C1484.087158,654.533203 1481.983765,660.951050 1479.504272,667.962036 
M1347.924438,602.564758 
	C1345.172974,594.190613 1342.577148,585.759155 1339.536011,577.491516 
	C1338.940918,575.873901 1336.750366,574.616943 1335.011475,573.793518 
	C1334.532471,573.566772 1332.354126,575.382446 1332.149658,576.482849 
	C1331.839233,578.153748 1332.336182,580.097229 1332.900269,581.788025 
	C1336.479858,592.515930 1340.403809,603.135925 1343.687134,613.951538 
	C1344.680664,617.224609 1344.596069,621.117126 1343.952271,624.526978 
	C1342.970215,629.727417 1341.083008,634.758057 1339.557861,639.854187 
	C1338.796387,642.398804 1338.241211,645.039917 1341.587158,645.985291 
	C1344.607056,646.838562 1346.167969,644.979919 1346.973022,642.209900 
	C1348.179443,638.059875 1349.907715,634.017334 1350.676025,629.794800 
	C1351.765869,623.806824 1354.957886,619.798523 1359.832275,616.317200 
	C1368.899536,609.841431 1377.680664,602.947876 1386.318481,595.906372 
	C1387.610840,594.852844 1388.490112,591.552185 1387.801025,590.164734 
	C1386.293213,587.128662 1383.684448,588.437683 1381.554688,590.122009 
	C1378.161621,592.805359 1374.793213,595.520081 1371.385132,598.184082 
	C1364.912231,603.243652 1358.418701,608.276550 1351.474365,613.677856 
	C1350.164917,609.637146 1349.144165,606.487183 1347.924438,602.564758 
M1810.298950,691.022522 
	C1810.457520,690.036682 1810.660645,689.055725 1810.767700,688.064331 
	C1811.818481,678.337585 1817.150024,673.559814 1826.515015,673.973022 
	C1834.601440,674.329773 1838.945435,679.688354 1838.988281,689.443909 
	C1839.023315,697.437195 1838.807495,705.439392 1839.165283,713.416870 
	C1839.235962,714.994690 1841.412231,716.478210 1842.617554,718.005188 
	C1843.799316,716.542297 1845.964600,715.105408 1846.004150,713.612244 
	C1846.272095,703.462891 1846.398438,693.288635 1845.966553,683.148132 
	C1845.574463,673.945374 1838.074707,667.505127 1828.818481,666.951965 
	C1821.562744,666.518372 1816.041016,669.464844 1811.344971,675.156616 
	C1811.016235,673.965332 1810.828003,673.504517 1810.767212,673.027466 
	C1810.412720,670.237976 1809.673584,667.079346 1806.289307,667.879517 
	C1804.830688,668.224304 1803.212280,671.584839 1803.166260,673.609497 
	C1802.874878,686.425903 1803.024048,699.251953 1802.978149,712.074646 
	C1802.967896,714.940674 1803.260864,717.884583 1806.800903,717.894226 
	C1810.755981,717.905090 1810.141113,714.498535 1810.167969,711.916382 
	C1810.237305,705.255798 1810.219238,698.594238 1810.298950,691.022522 
M1694.844727,708.430054 
	C1702.895996,699.574036 1700.983521,690.436951 1689.940430,685.220459 
	C1685.582153,683.161743 1680.956543,681.569397 1676.871704,679.077515 
	C1675.090698,677.990906 1673.026733,674.787415 1673.476685,673.238647 
	C1674.125732,671.005493 1676.676514,668.886536 1678.932251,667.703613 
	C1680.608521,666.824524 1683.236084,667.043640 1685.206055,667.600830 
	C1688.530518,668.541138 1691.591675,670.420715 1694.919800,671.338135 
	C1696.602295,671.801880 1698.627075,671.023682 1700.497070,670.807068 
	C1699.679565,669.057983 1699.320801,666.466736 1697.955566,665.723145 
	C1694.354980,663.761780 1690.399780,661.729858 1686.432129,661.355713 
	C1681.983398,660.936218 1676.855957,661.234741 1672.923828,663.109070 
	C1663.527832,667.587708 1663.467041,680.061523 1672.538696,685.155151 
	C1677.737671,688.074402 1683.534790,689.948853 1688.646729,692.992065 
	C1690.460205,694.071533 1692.124146,697.343323 1691.886230,699.384827 
	C1691.645874,701.446655 1689.303345,703.885132 1687.254517,704.937561 
	C1685.255859,705.964111 1682.227173,706.167114 1680.070068,705.457336 
	C1675.560181,703.973572 1671.405396,701.436096 1666.935059,699.793030 
	C1665.434448,699.241516 1663.419067,700.090149 1661.639038,700.298767 
	C1662.017090,701.771790 1661.905273,703.808105 1662.849976,704.629578 
	C1671.254517,711.937805 1685.820068,715.279785 1694.844727,708.430054 
M1351.332153,49.247166 
	C1349.224365,45.408455 1346.138550,41.787800 1345.223511,37.683208 
	C1343.589722,30.354637 1343.266235,22.733967 1342.596191,16.968431 
	C1341.926758,22.848816 1341.293091,30.454533 1340.142822,37.981308 
	C1338.832642,46.554638 1333.505127,51.623333 1325.018555,52.984718 
	C1317.818481,54.139736 1310.540894,54.811867 1303.802856,55.635860 
	C1308.908447,56.082657 1314.524902,56.594810 1320.145142,57.061729 
	C1332.102661,58.055122 1338.052002,62.901123 1340.298706,74.654007 
	C1341.630127,81.619186 1341.890869,88.789024 1342.581665,95.377007 
	C1343.021118,90.270737 1343.499146,84.654228 1343.988892,79.038734 
	C1345.258301,64.481682 1351.942017,57.984436 1366.532104,56.990368 
	C1371.983398,56.618950 1377.422607,56.069653 1382.867188,55.601463 
	C1380.231323,54.981796 1377.566772,55.246300 1374.972168,54.932323 
	C1367.120728,53.982212 1358.925171,54.420971 1351.332153,49.247166 
M2276.960205,608.338074 
	C2279.305664,609.346924 2281.651367,610.355774 2285.132568,611.853027 
	C2287.745850,620.318481 2290.652100,630.339661 2293.942383,640.233337 
	C2297.852783,651.993164 2311.009766,649.851501 2317.260498,644.142334 
	C2317.978516,643.486450 2318.349121,641.557617 2317.906006,640.761353 
	C2317.411865,639.872986 2315.806396,639.184937 2314.680176,639.178589 
	C2313.454346,639.171631 2312.256836,640.169373 2310.988770,640.516052 
	C2307.089844,641.581726 2302.808350,642.081299 2301.179688,637.496155 
	C2297.714111,627.739014 2294.885010,617.755981 2291.754639,607.736145 
	C2296.157227,606.398193 2299.917236,605.578308 2303.360840,604.046509 
	C2304.696533,603.452393 2305.316162,601.248840 2306.261963,599.778625 
	C2304.617920,599.139465 2302.854736,597.763672 2301.353760,598.006775 
	C2297.655273,598.605896 2294.077148,599.948669 2290.074951,601.100464 
	C2289.022461,597.810913 2288.031250,594.866028 2287.143066,591.890320 
	C2286.388428,589.362000 2285.398682,586.825562 2282.192627,587.631165 
	C2278.964600,588.442444 2279.133301,591.073547 2279.960449,593.689270 
	C2280.209717,594.478577 2280.387207,595.290588 2280.636475,596.080017 
	C2281.811035,599.803528 2284.018799,603.796326 2277.839600,605.383667 
	C2277.376953,605.502441 2277.215820,606.794617 2276.960205,608.338074 
M2163.987549,633.575928 
	C2163.734375,634.675415 2163.078125,635.859741 2163.289062,636.861633 
	C2166.160156,650.507080 2169.041504,664.153381 2172.264893,677.717590 
	C2172.626709,679.240479 2175.092285,680.263428 2176.582275,681.518188 
	C2177.531006,679.702087 2179.426514,677.786743 2179.248535,676.088867 
	C2178.749268,671.329468 2177.391602,666.660461 2176.377686,661.954590 
	C2173.429443,648.269958 2176.177246,642.055908 2187.819824,634.880493 
	C2189.196533,634.031982 2189.576660,631.566956 2190.418701,629.851257 
	C2188.472656,629.242981 2186.490479,628.075439 2184.591309,628.197449 
	C2182.974365,628.301270 2181.054688,629.562439 2179.966064,630.885193 
	C2177.097656,634.370911 2174.608398,638.168762 2172.092041,641.669922 
	C2171.659668,639.852356 2171.292969,637.538025 2170.544434,635.354553 
	C2169.518555,632.361816 2167.686523,630.809631 2163.987549,633.575928 
M2213.183838,672.398804 
	C2217.208496,673.721741 2219.289062,671.944336 2218.447510,668.084717 
	C2215.480225,654.476257 2212.259521,640.919006 2208.815186,627.424011 
	C2208.418701,625.871338 2206.014404,624.831238 2204.541016,623.553406 
	C2203.630859,625.391235 2201.666992,627.437866 2201.982910,629.032776 
	C2203.948486,638.947998 2206.354980,648.779114 2208.762695,658.601929 
	C2209.860352,663.080261 2211.295654,667.475830 2213.183838,672.398804 
M1714.889893,689.219360 
	C1714.372925,695.494568 1713.885132,701.772400 1713.325928,708.043823 
	C1713.069458,710.918335 1713.228149,713.690247 1716.806885,714.028748 
	C1720.636108,714.390930 1720.794556,711.392273 1720.978394,708.642883 
	C1721.851318,695.575745 1722.859985,682.514832 1723.447388,669.434875 
	C1723.525635,667.695129 1721.787476,664.701416 1720.340576,664.307373 
	C1717.238525,663.462463 1716.190430,666.134766 1716.028564,668.907043 
	C1715.651489,675.363892 1715.290894,681.821655 1714.889893,689.219360 
M1165.231812,178.406281 
	C1161.134399,186.306396 1152.760742,184.368530 1147.732666,186.062881 
	C1151.969482,187.473053 1158.702026,187.893082 1162.404175,191.459244 
	C1166.093384,195.012863 1166.742554,201.722351 1167.935547,204.927811 
	C1169.406372,201.359879 1170.305176,194.556412 1174.184814,191.068756 
	C1178.068604,187.577347 1184.930420,187.398651 1188.863037,186.244476 
	C1170.788696,183.702988 1169.803711,182.664673 1168.573486,161.940308 
	C1167.422363,168.027039 1166.506836,172.867889 1165.231812,178.406281 
M1862.172974,709.179932 
	C1862.540161,711.367920 1862.181763,714.171753 1863.415039,715.624573 
	C1866.685181,719.476929 1865.085571,721.688293 1861.900024,724.184387 
	C1860.855225,725.002991 1860.459839,726.650269 1859.767456,727.918518 
	C1861.270142,727.879639 1863.048096,728.352234 1864.229614,727.716492 
	C1870.582275,724.297668 1871.608643,718.302917 1870.849121,711.928833 
	C1870.635376,710.135559 1869.131226,707.867981 1867.576660,707.070984 
	C1866.432983,706.484680 1864.243286,707.938904 1862.172974,709.179932 
M2329.816162,636.497070 
	C2331.086426,639.199280 2332.914307,640.971680 2336.050293,639.432190 
	C2338.919922,638.023376 2339.847900,635.346741 2338.099609,632.838379 
	C2336.912598,631.135559 2334.345215,629.170837 2332.595947,629.344543 
	C2329.185059,629.683472 2328.445068,632.599854 2329.816162,636.497070 
M2196.962646,607.322388 
	C2197.633301,609.478882 2197.941406,611.891113 2199.179932,613.647034 
	C2199.589111,614.226990 2202.968262,613.653870 2203.948975,612.620667 
	C2204.909424,611.608887 2205.241943,609.020142 2204.628906,607.683899 
	C2202.943848,604.011230 2200.148926,604.360840 2196.962646,607.322388 
M1721.520996,645.037781 
	C1718.478882,644.976685 1716.630371,646.587524 1717.044189,649.488708 
	C1717.270264,651.073059 1718.782104,653.317932 1720.124268,653.661072 
	C1721.457642,654.001953 1724.183838,652.719421 1724.737427,651.461548 
	C1725.775146,649.103516 1725.832520,646.190552 1721.520996,645.037781 
z"/>
<path fill="#020202" opacity="1.000000" stroke="none" 
	d="
M1203.639648,287.976959 
	C1194.631592,286.881653 1186.076660,285.649139 1177.494751,284.649078 
	C1167.922607,283.533630 1158.311646,282.406403 1147.903564,286.618347 
	C1152.851074,288.341492 1156.883911,289.658905 1160.854248,291.143768 
	C1179.419434,298.087097 1195.845703,308.193451 1208.149780,324.066711 
	C1226.977783,348.356323 1225.813843,378.226105 1205.281250,401.156311 
	C1186.446777,422.190186 1162.018433,432.646179 1134.975952,437.968109 
	C1108.314453,443.214996 1081.986084,441.443848 1055.944336,433.887695 
	C1054.405762,433.441254 1052.393066,434.320465 1050.692505,434.867706 
	C1049.805664,435.153107 1049.030396,435.978027 1048.357056,436.701111 
	C1045.222534,440.067230 1040.930176,443.165375 1043.002319,448.610962 
	C1045.043091,453.974060 1050.091919,456.153168 1055.121826,455.766174 
	C1067.193970,454.837402 1079.206055,453.064148 1091.221802,451.476715 
	C1110.494751,448.930389 1129.678345,445.192841 1149.030273,443.871552 
	C1184.697632,441.436279 1211.803833,465.697479 1219.417114,488.675232 
	C1226.992554,511.538940 1222.087036,532.810303 1210.451416,552.813232 
	C1184.097412,598.118835 1133.412231,622.247498 1081.242432,615.510742 
	C1052.302979,611.773804 1025.596436,602.811890 1002.078003,585.237244 
	C988.811584,575.323608 978.035400,563.211975 970.441711,548.433289 
	C959.147339,526.452393 964.453064,510.144226 986.856201,499.901123 
	C1002.767639,492.626099 1019.450867,490.914795 1036.476196,496.087097 
	C1049.057861,499.909424 1055.050415,508.351166 1052.901123,520.698303 
	C1048.659790,545.063965 1057.642822,564.123596 1075.889038,579.416687 
	C1093.764648,594.399170 1114.381714,601.662170 1137.851440,599.025818 
	C1161.359619,596.385254 1175.220093,578.199219 1171.525269,554.748596 
	C1166.071289,520.132019 1144.625122,498.223877 1113.991211,484.097351 
	C1098.806152,477.095001 1082.484131,474.895416 1065.923950,474.051392 
	C1055.951904,473.543121 1045.947021,473.145081 1036.050903,471.931030 
	C1031.945312,471.427338 1027.681396,469.529785 1024.192383,467.209198 
	C1015.225830,461.245361 1013.525513,452.524292 1019.192078,443.402039 
	C1021.284302,440.033905 1023.944336,437.002197 1026.488525,433.935852 
	C1028.907593,431.020325 1031.513550,428.259918 1033.242310,426.322449 
	C1024.006958,419.209961 1013.352173,412.746826 1004.865051,404.144867 
	C978.163147,377.081604 979.421631,341.619720 1006.870667,315.345734 
	C1026.264282,296.782318 1049.986938,287.582367 1075.853760,283.076721 
	C1093.881348,279.936584 1111.997559,280.134552 1130.080078,282.964264 
	C1131.198975,283.139374 1132.335205,283.204559 1133.631348,283.338196 
	C1137.716675,268.841675 1146.425415,257.978027 1158.905151,250.323547 
	C1170.671387,243.106598 1183.584106,239.564072 1197.502319,240.869675 
	C1213.090454,242.331894 1223.204956,255.392990 1220.980713,270.913422 
	C1219.653076,280.177734 1213.561401,286.315918 1203.639648,287.976959 
M1079.652344,319.201141 
	C1070.771729,342.147980 1070.423096,365.624573 1075.584351,389.352722 
	C1077.824219,399.649963 1081.448608,409.475861 1088.377441,417.682526 
	C1097.405884,428.375824 1109.137329,428.653687 1118.255371,418.085052 
	C1121.458496,414.372284 1124.167358,409.986176 1126.118774,405.481659 
	C1136.559937,381.380249 1137.120728,356.471344 1131.307617,331.198242 
	C1129.091431,321.563507 1125.550049,312.443542 1119.161011,304.728027 
	C1109.558960,293.132446 1097.453613,293.055817 1088.039795,304.837341 
	C1084.768921,308.930878 1082.613770,313.915985 1079.652344,319.201141 
z"/>
<path fill="#010101" opacity="1.000000" stroke="none" 
	d="
M441.919769,366.839020 
	C427.224487,426.720062 387.762360,460.927032 330.088531,475.732513 
	C317.512085,478.960968 304.088867,479.841431 291.027802,480.048798 
	C255.377121,480.614807 219.711594,480.246948 184.051941,480.238586 
	C180.588470,480.237793 176.670410,480.902802 175.360641,476.368408 
	C174.183472,472.292999 176.759506,469.820709 179.722061,467.678131 
	C193.535797,457.687469 200.286682,444.285736 200.232010,427.122681 
	C200.052139,370.635315 200.048721,314.147125 200.106613,257.659393 
	C200.123627,241.067261 193.307510,228.143402 180.208664,218.279297 
	C179.016724,217.381699 177.463531,216.582535 176.874603,215.355392 
	C176.004959,213.543320 174.922791,210.923630 175.635132,209.501175 
	C176.453613,207.866730 179.033051,206.489899 181.021454,206.201996 
	C184.612137,205.682098 188.332062,206.054581 191.998001,206.054581 
	C225.658035,206.054611 259.320312,205.809097 292.977600,206.113464 
	C340.929352,206.547089 381.801880,223.550781 413.248322,260.308258 
	C439.445435,290.929901 448.865234,326.589355 441.919769,366.839020 
M355.410614,297.161194 
	C353.602234,291.290863 352.146759,285.283051 349.923004,279.574524 
	C341.292358,257.419037 328.461151,238.676590 306.442291,227.700516 
	C298.834229,223.908005 290.733337,222.044891 281.995697,220.992676 
	C273.116547,302.510559 273.787231,383.318268 282.574280,464.514679 
	C302.271912,462.495209 317.795227,454.069519 330.233368,439.873016 
	C347.776337,419.849915 355.420532,395.665039 358.970062,369.889557 
	C362.297546,345.726379 361.040466,321.729462 355.410614,297.161194 
z"/>
<path fill="#010101" opacity="1.000000" stroke="none" 
	d="
M1304.999756,480.243347 
	C1283.504150,480.243347 1262.508667,480.242920 1241.513062,480.243713 
	C1238.490234,480.243835 1235.226929,480.527893 1234.069092,476.790771 
	C1232.927979,473.107452 1234.509888,470.269958 1237.528809,468.197662 
	C1253.429932,457.282318 1259.475342,441.825439 1258.966797,423.020203 
	C1258.462891,404.374695 1258.698242,385.708099 1258.114746,367.066254 
	C1257.704712,353.969452 1251.132690,343.727325 1241.381836,335.357819 
	C1239.361450,333.623596 1236.863770,332.208008 1235.456787,330.072021 
	C1234.338013,328.373566 1233.964355,325.675873 1234.392456,323.662598 
	C1234.639893,322.498871 1237.133545,321.023621 1238.612427,321.027740 
	C1266.681152,321.105713 1289.961548,308.996552 1311.744629,292.815216 
	C1316.133423,289.555054 1320.906494,286.799713 1325.591675,283.958923 
	C1327.128662,283.027069 1328.907349,282.424194 1330.645386,281.905273 
	C1338.434570,279.579773 1340.622925,281.627441 1338.907227,289.383942 
	C1337.797241,294.401886 1336.870850,299.460419 1336.810913,305.176392 
	C1337.541870,304.163666 1338.229248,303.115845 1339.010498,302.143372 
	C1353.853516,283.666809 1372.830444,277.444153 1395.910645,282.471527 
	C1437.714478,291.577332 1460.456177,319.176270 1469.725708,359.188507 
	C1472.290405,370.259094 1472.492920,381.952118 1473.042236,393.394928 
	C1473.688721,406.861450 1473.290894,420.375488 1473.792114,433.852325 
	C1474.319336,448.030426 1481.676514,458.585480 1492.650635,466.947174 
	C1493.708130,467.752960 1495.303467,468.321136 1495.742065,469.376556 
	C1496.755493,471.815552 1498.106445,474.694916 1497.571289,476.987152 
	C1497.229614,478.450134 1493.781616,480.052216 1491.692017,480.100433 
	C1479.201172,480.388550 1466.700562,480.243347 1454.203125,480.243347 
	C1432.707642,480.243408 1411.212280,480.248047 1389.716797,480.235687 
	C1387.719116,480.234528 1385.711060,480.234619 1383.725708,480.046448 
	C1377.110474,479.419586 1374.222656,474.064880 1378.681641,469.271240 
	C1395.885132,450.777008 1398.960938,427.772980 1399.514404,404.274994 
	C1400.049072,381.571442 1397.415039,359.076599 1389.915405,337.412842 
	C1386.628296,327.917633 1382.532227,318.840393 1375.188477,311.677887 
	C1367.247437,303.932770 1358.406128,303.940094 1350.583130,311.684143 
	C1342.028442,320.152283 1336.335449,330.526825 1332.049561,341.565094 
	C1330.485718,345.592651 1330.802368,350.405273 1330.544678,354.876160 
	C1328.979858,382.028564 1328.300659,409.171204 1334.075684,435.982544 
	C1336.654419,447.955353 1340.563354,459.322906 1350.202515,467.946045 
	C1352.013916,469.566437 1353.395386,473.906158 1352.479980,475.755859 
	C1351.394409,477.948822 1347.645264,479.958038 1344.985229,480.044891 
	C1331.835205,480.474365 1318.663818,480.242188 1304.999756,480.243347 
z"/>
<path fill="#020202" opacity="1.000000" stroke="none" 
	d="
M639.255859,450.259521 
	C590.280151,495.918152 509.850830,488.318268 472.292389,434.751251 
	C443.579315,393.799744 450.877533,337.851440 490.570984,307.225616 
	C529.802246,276.956360 572.799500,271.512695 617.671692,294.437653 
	C626.343689,298.868134 634.347839,305.646729 640.942383,312.903168 
	C659.215759,333.010620 658.766785,361.041290 640.466736,381.324707 
	C620.339355,403.633453 594.782104,411.302368 565.541931,407.365875 
	C557.272827,406.252655 549.217407,403.552032 540.603516,401.468048 
	C544.998718,415.467560 553.130676,426.262207 565.702087,434.090179 
	C590.537598,449.554657 630.717163,438.562347 645.707520,419.870941 
	C647.231384,417.970825 650.506042,416.060364 652.587158,416.411682 
	C654.752197,416.777161 657.036255,419.598297 658.151428,421.889252 
	C658.869995,423.365631 658.190247,426.281708 657.081299,427.760986 
	C651.414307,435.320831 645.403748,442.623108 639.255859,450.259521 
M582.705444,378.066681 
	C584.676636,370.718323 587.565857,363.476196 588.431030,355.999878 
	C590.328979,339.597778 589.001648,323.366028 580.979248,308.459534 
	C572.589172,292.869873 560.040039,292.219055 549.563171,306.472382 
	C542.642456,315.887787 539.403931,326.646851 538.429199,338.028320 
	C537.073486,353.858307 538.451294,369.326813 547.735229,382.994904 
	C557.320496,397.106506 571.596252,396.728760 580.471741,382.235870 
	C581.163025,381.106995 581.704407,379.886261 582.705444,378.066681 
z"/>
<path fill="#020202" opacity="1.000000" stroke="none" 
	d="
M730.186646,283.152527 
	C758.515930,278.522675 785.699219,280.648224 811.729919,292.292725 
	C822.429138,297.078888 831.355042,304.085968 837.195862,314.588348 
	C844.670837,328.029022 841.536621,340.141968 827.781921,346.701385 
	C814.222595,353.167633 800.066895,353.567474 786.311218,346.971802 
	C775.309204,341.696472 770.223022,332.684692 770.636719,320.338959 
	C770.795776,315.590179 770.336914,310.656586 769.151794,306.067444 
	C767.595276,300.040039 763.333374,296.932312 758.205627,296.725677 
	C752.976074,296.514893 748.040283,299.640564 745.836182,305.204315 
	C741.638184,315.801727 743.740723,325.852844 750.896790,334.131744 
	C756.377625,340.472656 762.930725,346.163147 769.843628,350.929352 
	C782.293335,359.513123 795.565857,366.897156 808.107849,375.355988 
	C815.104004,380.074524 821.919189,385.368225 827.778748,391.408813 
	C846.602234,410.814178 846.237366,432.992126 827.152771,452.246765 
	C811.656799,467.880737 792.347717,475.814117 770.895874,478.823761 
	C747.331360,482.129822 724.413330,479.340118 702.469727,470.015594 
	C690.289124,464.839722 679.728699,457.496826 673.310730,445.381165 
	C666.800110,433.090424 669.680237,421.785675 681.927002,415.263977 
	C696.325623,407.596405 711.343628,407.336304 726.029541,414.620026 
	C736.603516,419.864380 741.277161,428.938507 741.192993,440.690094 
	C741.159851,445.319305 741.247803,450.041168 742.118469,454.559357 
	C742.996155,459.113464 745.562317,463.031342 750.637817,463.960449 
	C756.075317,464.955780 760.410461,462.771362 763.642212,458.386902 
	C769.195984,450.852234 769.100342,439.591492 763.370239,430.639374 
	C758.197144,422.557343 750.663940,417.068207 742.588318,412.297729 
	C727.707947,403.507446 712.461609,395.300293 697.923523,385.983032 
	C691.313904,381.747040 685.220276,376.092834 680.293823,369.956940 
	C664.612488,350.425842 667.262451,322.014771 685.494507,304.780182 
	C698.031189,292.929382 713.264832,286.824921 730.186646,283.152527 
z"/>
<path fill="#030303" opacity="1.000000" stroke="none" 
	d="
M2266.212646,375.816345 
	C2260.435059,362.359985 2254.805420,349.255951 2248.852539,335.399048 
	C2242.560059,342.953217 2237.169434,350.525574 2230.656982,356.963043 
	C2222.599121,364.928284 2220.217285,373.818390 2220.473145,385.039703 
	C2221.198242,416.847870 2220.727051,448.683289 2220.726807,480.507996 
	C2220.726807,482.315704 2220.726562,484.123413 2220.726562,486.273621 
	C2211.482422,486.273621 2202.568115,486.273621 2193.291504,486.273621 
	C2193.291504,380.487091 2193.291504,274.635803 2193.285645,168.780762 
	C2193.557617,168.614548 2193.836670,168.308380 2194.114014,168.309998 
	C2221.766846,168.470932 2249.430420,168.279892 2277.065186,169.082336 
	C2284.675293,169.303329 2292.613281,171.517960 2299.681885,174.513580 
	C2317.704834,182.151382 2326.459473,198.437820 2325.677490,219.333893 
	C2325.117920,234.279480 2319.571777,247.256516 2310.689453,258.782379 
	C2297.886475,275.395599 2284.593506,291.634277 2271.335205,307.890350 
	C2269.359863,310.312317 2269.166260,312.103271 2270.376709,314.896545 
	C2293.155029,367.463348 2315.829102,420.075256 2338.520508,472.679626 
	C2339.177490,474.202545 2339.785889,475.746552 2340.643066,477.830780 
	C2332.422363,482.101624 2324.234131,486.355560 2315.667236,490.806396 
	C2299.122070,452.338867 2282.741211,414.253754 2266.212646,375.816345 
M2220.724854,214.500122 
	C2220.724854,253.200180 2220.724854,291.900238 2220.724854,331.848541 
	C2223.047607,329.071045 2224.523438,327.356445 2225.945312,325.597900 
	C2245.727051,301.132660 2265.625000,276.759674 2285.217773,252.143890 
	C2293.200928,242.114182 2297.530762,230.585236 2296.995605,217.473083 
	C2296.510010,205.580719 2290.618652,197.926346 2278.826660,195.926086 
	C2271.830078,194.739212 2264.591064,194.775970 2257.454834,194.666687 
	C2245.355225,194.481384 2233.251221,194.615738 2221.341309,194.615738 
	C2221.021973,195.421097 2220.804443,195.715866 2220.802246,196.012131 
	C2220.761475,201.841370 2220.745850,207.670776 2220.724854,214.500122 
z"/>
<path fill="#020202" opacity="1.000000" stroke="none" 
	d="
M1917.858887,406.863770 
	C1913.868164,420.132477 1910.666626,433.259644 1905.825562,445.751495 
	C1900.460815,459.594238 1891.670044,471.341064 1879.230591,479.972229 
	C1853.548096,497.791870 1803.971313,497.984100 1780.823975,456.944061 
	C1769.574951,436.999481 1764.121948,415.369110 1761.078735,393.026367 
	C1755.771729,354.062988 1755.431152,314.940308 1759.166382,275.838928 
	C1761.754028,248.750595 1766.421509,222.054413 1779.988159,197.852112 
	C1792.912964,174.795166 1812.271118,162.299652 1839.115112,161.904175 
	C1865.547119,161.514771 1885.658081,172.395264 1899.463745,194.906525 
	C1910.448853,212.818665 1915.687134,232.721313 1918.940796,253.176712 
	C1926.055420,297.905029 1925.632324,342.788544 1920.856201,387.700958 
	C1920.188477,393.980896 1918.916870,400.196625 1917.858887,406.863770 
M1893.500977,377.890289 
	C1897.446411,335.594208 1897.656860,293.383575 1889.869873,251.448471 
	C1886.976562,235.866943 1882.541626,220.720367 1873.553955,207.326187 
	C1860.746826,188.239441 1837.709229,182.545303 1820.084473,194.449982 
	C1809.624756,201.515060 1803.589355,212.082626 1799.052368,223.543442 
	C1791.185669,243.415802 1788.317871,264.320862 1786.704956,285.437805 
	C1783.738770,324.271759 1784.076904,363.013550 1791.099609,401.457306 
	C1794.011597,417.397614 1798.443604,432.944733 1807.888794,446.429657 
	C1817.569946,460.251587 1830.668579,467.306580 1847.842529,463.930206 
	C1861.630615,461.219482 1870.540039,451.973236 1876.931885,440.058624 
	C1887.191772,420.933258 1890.853516,400.004181 1893.500977,377.890289 
z"/>
<path fill="#030303" opacity="1.000000" stroke="none" 
	d="
M2006.097168,441.725952 
	C2014.702393,458.231903 2029.343506,463.729645 2046.267578,464.954224 
	C2056.499756,465.694550 2066.621094,464.976074 2075.796387,459.644501 
	C2089.599121,451.623962 2094.911133,438.483368 2096.903076,423.597321 
	C2097.695068,417.678467 2097.882080,411.642761 2097.886963,405.659912 
	C2097.948975,328.680176 2097.927979,251.700333 2097.927979,174.720520 
	C2097.927979,172.745453 2097.927979,170.770370 2097.927979,168.515594 
	C2107.176025,168.515594 2116.092285,168.515594 2125.716797,168.515594 
	C2125.716797,170.314499 2125.716797,172.078064 2125.716797,173.841614 
	C2125.716553,251.654526 2125.736572,329.467438 2125.696533,407.280365 
	C2125.689453,421.159851 2124.322510,434.836243 2119.199219,447.943817 
	C2110.719727,469.638947 2094.957275,482.865387 2072.474121,488.089142 
	C2054.265381,492.319824 2036.096558,491.693817 2018.246460,486.041290 
	C1993.065186,478.067230 1979.073486,460.149414 1974.159302,434.819672 
	C1972.679688,427.193207 1972.099243,419.281494 1972.084961,411.498657 
	C1971.939697,332.019745 1971.996216,252.540512 1971.996338,173.061371 
	C1971.996338,171.604660 1971.996338,170.147934 1971.996338,168.464569 
	C1981.359619,168.464569 1990.278687,168.464569 1999.853149,168.464569 
	C1999.853149,170.529541 1999.853149,172.461411 1999.853027,174.393295 
	C1999.852783,252.039597 1999.876953,329.685913 1999.826416,407.332153 
	C1999.818848,419.080261 2000.715942,430.603729 2006.097168,441.725952 
z"/>
<path fill="#030303" opacity="1.000000" stroke="none" 
	d="
M2667.781738,194.625488 
	C2669.582031,185.593460 2671.295410,176.978592 2672.994629,168.433899 
	C2684.413818,168.433899 2695.378174,168.433899 2706.647949,168.433899 
	C2729.220947,274.348999 2751.766846,380.135468 2774.457520,486.601593 
	C2765.413330,486.601593 2756.976807,486.708099 2748.552246,486.445068 
	C2747.661133,486.417267 2746.338623,484.325439 2746.059570,483.011963 
	C2743.018799,468.699677 2740.176758,454.345123 2737.182617,440.022583 
	C2736.860107,438.480652 2736.246094,436.769318 2735.215820,435.639526 
	C2711.077148,409.171417 2686.863770,382.771515 2662.649902,356.371979 
	C2662.342773,356.036957 2661.855713,355.866852 2661.144287,355.430847 
	C2652.655273,399.198334 2644.212402,442.729004 2635.739502,486.412598 
	C2626.880859,486.412598 2618.250000,486.412598 2609.033936,486.412598 
	C2611.197510,475.569702 2613.312744,464.893097 2615.459229,454.222687 
	C2628.969971,387.058228 2642.482178,319.894073 2656.006836,252.732483 
	C2659.880127,233.497955 2663.797852,214.272339 2667.781738,194.625488 
M2725.841553,387.691284 
	C2726.066650,387.921326 2726.291748,388.151367 2726.517090,388.381348 
	C2726.455566,387.815338 2726.394043,387.249359 2726.366455,385.859741 
	C2726.206299,384.873291 2726.082520,383.879333 2725.880859,382.901459 
	C2715.498535,332.585327 2705.115967,282.269135 2694.713379,231.957153 
	C2693.289307,225.069183 2691.760986,218.202805 2690.193848,210.922668 
	C2689.500732,211.577606 2689.346680,211.651520 2689.327148,211.751541 
	C2682.290039,247.990570 2675.212158,284.221985 2668.365967,320.497101 
	C2667.983398,322.523926 2668.879639,325.463440 2670.255615,327.040100 
	C2678.250488,336.201385 2686.520996,345.124268 2694.786865,354.045837 
	C2705.067383,365.141937 2715.433838,376.158417 2725.841553,387.691284 
z"/>
<path fill="#010101" opacity="1.000000" stroke="none" 
	d="
M893.242798,314.336731 
	C903.764465,308.589691 914.042358,303.198853 924.051270,297.347687 
	C931.072388,293.243195 937.643616,288.375214 944.590637,284.134735 
	C946.949707,282.694733 949.776367,281.812042 952.507751,281.236145 
	C957.425354,280.199158 959.391052,282.355164 958.451233,287.228546 
	C951.044922,325.632812 947.737000,364.386505 949.127441,403.476318 
	C949.678101,418.956909 951.452698,434.332367 956.811340,449.065186 
	C959.356812,456.063873 962.854309,462.365204 968.750061,467.135803 
	C971.558228,469.407990 973.674805,472.798950 971.688599,475.789551 
	C970.179504,478.061829 966.391052,480.033844 963.599670,480.056671 
	C928.947388,480.340454 894.291565,480.304138 859.638245,480.095093 
	C857.465332,480.081970 853.909912,478.322021 853.479797,476.711761 
	C852.895813,474.525269 854.056580,471.151459 855.638306,469.269897 
	C858.276367,466.131958 862.020386,463.955841 864.981812,461.051514 
	C872.798462,453.385376 877.370483,443.896393 877.535339,433.040161 
	C877.868896,411.067139 877.807678,389.075104 877.266663,367.106689 
	C876.930115,353.442749 869.779602,342.931641 859.406982,334.428009 
	C856.148926,331.757080 851.430603,329.478851 853.198242,324.170197 
	C854.900208,319.058716 860.013000,321.300018 863.663086,320.517365 
	C873.386719,318.432434 883.141724,316.493347 893.242798,314.336731 
z"/>
<path fill="#030303" opacity="1.000000" stroke="none" 
	d="
M2848.932617,255.934235 
	C2857.220947,273.399384 2869.595947,287.282928 2882.855225,300.493683 
	C2897.380127,314.965088 2912.080078,329.391113 2922.585938,347.171539 
	C2943.031006,381.774445 2944.884033,417.780090 2927.651611,454.015930 
	C2915.020264,480.576050 2886.254150,494.281494 2856.098633,490.827362 
	C2829.089111,487.733612 2811.707764,471.735535 2797.671631,449.781464 
	C2805.876709,445.191010 2813.801514,440.757477 2822.027100,436.155609 
	C2824.795654,439.564423 2827.406738,442.962280 2830.207031,446.196136 
	C2844.264648,462.429535 2865.936279,467.587799 2885.538818,459.499817 
	C2899.905518,453.572144 2906.037354,441.420715 2908.784180,427.400391 
	C2914.377686,398.848450 2908.817383,372.703491 2889.488281,350.390656 
	C2880.993652,340.584381 2871.766357,331.394348 2862.614502,322.179779 
	C2847.766357,307.229614 2833.688721,291.660461 2824.816162,272.295563 
	C2813.455566,247.499771 2809.955566,221.850891 2820.043213,195.810455 
	C2827.463379,176.655960 2841.677246,164.677765 2862.363037,162.248184 
	C2884.517822,159.646103 2902.170410,167.785767 2914.083496,187.067123 
	C2917.308350,192.286636 2920.114746,197.764664 2923.406982,203.648865 
	C2914.333740,207.439743 2905.677734,211.056320 2897.020508,214.673355 
	C2893.888428,209.612656 2891.232910,204.621765 2887.926758,200.107574 
	C2876.760498,184.861679 2854.676025,186.964371 2846.705322,204.153809 
	C2840.346436,217.866776 2842.012451,232.085358 2845.495361,246.191010 
	C2846.286865,249.395523 2847.690674,252.448730 2848.932617,255.934235 
z"/>
<path fill="#020202" opacity="1.000000" stroke="none" 
	d="
M2465.525879,340.206543 
	C2466.336426,365.848694 2468.164795,390.894531 2475.000732,415.276306 
	C2479.123047,429.979431 2484.949463,443.698730 2496.509277,454.511383 
	C2511.091064,468.150574 2540.599854,468.200836 2553.604980,449.172577 
	C2556.586670,444.809692 2559.445068,440.362610 2562.481934,435.770233 
	C2569.779541,439.886322 2576.982910,443.949280 2584.611328,448.251862 
	C2577.484131,463.250183 2567.554932,475.341461 2552.898193,483.001160 
	C2517.890869,501.295990 2478.496094,489.061615 2459.273193,454.057159 
	C2449.037842,435.418396 2443.952881,415.141815 2441.061279,394.305450 
	C2435.217041,352.191895 2434.855469,309.966370 2440.135254,267.781158 
	C2443.291016,242.565247 2448.973389,217.979065 2462.995605,196.198792 
	C2478.571289,172.005386 2500.847900,160.051147 2529.598633,162.254593 
	C2546.979980,163.586685 2560.987549,172.779785 2572.097168,185.943726 
	C2576.965820,191.712692 2580.794189,198.359589 2585.308350,204.917557 
	C2577.805908,210.147522 2571.156494,214.782867 2564.048584,219.737793 
	C2562.344238,217.126205 2560.779785,214.664871 2559.152100,212.246002 
	C2551.616211,201.045578 2542.603516,191.656204 2528.608643,189.120331 
	C2509.548584,185.666626 2493.199463,194.139801 2483.227295,212.496323 
	C2474.266602,228.990921 2469.672363,246.939178 2468.394531,265.417725 
	C2466.685059,290.136597 2466.396729,314.953705 2465.525879,340.206543 
z"/>
<path fill="#020202" opacity="1.000000" stroke="none" 
	d="
M3057.999512,194.615707 
	C3042.018555,194.615692 3026.537598,194.615692 3010.657227,194.615692 
	C3010.657227,212.983704 3010.657227,231.036057 3010.657227,249.740662 
	C3024.699463,249.740662 3038.896484,249.740662 3053.304443,249.740662 
	C3053.304443,258.160675 3053.304443,265.931885 3053.304443,274.174591 
	C3039.052979,274.174591 3024.971680,274.174591 3010.577148,274.174591 
	C3010.577148,336.195190 3010.577148,397.745667 3010.577148,459.789795 
	C3033.770752,459.789795 3056.845215,459.789795 3080.082031,459.789795 
	C3080.082031,468.890076 3080.082031,477.496368 3080.082031,486.358734 
	C3047.627930,486.358734 3015.396973,486.358734 2982.924805,486.358734 
	C2982.924805,380.283386 2982.924805,274.391541 2982.924805,168.367340 
	C3015.360107,168.367340 3047.499756,168.367340 3079.972412,168.367340 
	C3079.972412,177.001816 3079.972412,185.561905 3079.972412,194.615723 
	C3072.733398,194.615723 3065.616455,194.615723 3057.999512,194.615707 
z"/>
<path fill="#040404" opacity="1.000000" stroke="none" 
	d="
M1636.161133,245.760468 
	C1640.415161,254.233414 1644.516602,262.365021 1648.961792,271.178253 
	C1649.889404,269.629669 1650.563965,268.650787 1651.093140,267.598755 
	C1667.068970,235.835678 1683.090942,204.095444 1698.902100,172.250595 
	C1700.501709,169.028854 1702.313965,168.045593 1705.729614,168.154953 
	C1713.363403,168.399353 1721.010376,168.231369 1729.436646,168.231369 
	C1728.405762,170.454834 1727.660400,172.216705 1726.790771,173.914993 
	C1706.343872,213.848663 1685.834229,253.750488 1665.520752,293.751892 
	C1663.946167,296.852539 1662.998169,300.640411 1662.989136,304.112030 
	C1662.837280,362.933044 1662.880493,421.754547 1662.880371,480.575958 
	C1662.880371,482.383484 1662.880371,484.191010 1662.880371,486.308411 
	C1653.628906,486.308411 1644.706055,486.308411 1635.082275,486.308411 
	C1635.082275,484.544952 1635.082275,482.796509 1635.082275,481.048065 
	C1635.082275,422.226654 1635.127930,363.405121 1634.972046,304.584137 
	C1634.962402,300.948700 1634.046265,296.971375 1632.403076,293.736816 
	C1612.082520,253.738647 1591.546387,213.849915 1571.075439,173.928070 
	C1570.259399,172.336639 1569.537476,170.696899 1568.372681,168.236923 
	C1577.922974,168.236923 1586.808228,168.098831 1595.678589,168.399490 
	C1596.881958,168.440262 1598.389771,170.487976 1599.117676,171.929123 
	C1611.474609,196.395523 1623.730469,220.912979 1636.161133,245.760468 
z"/>
<path fill="#020202" opacity="1.000000" stroke="none" 
	d="
M887.793945,284.300842 
	C869.029602,281.398743 858.343323,265.469818 862.205994,245.826843 
	C866.428345,224.354553 888.057983,206.410721 909.978577,206.078125 
	C931.718628,205.748276 946.075012,223.075317 941.738281,244.409622 
	C936.885498,268.282196 912.674438,286.354065 887.793945,284.300842 
z"/>
<path fill="#9A86FD" opacity="1.000000" stroke="none" 
	d="
M1266.112671,225.878998 
	C1264.773071,210.325104 1264.378906,194.617523 1261.882080,179.251663 
	C1257.666748,153.310242 1246.005127,144.004745 1219.252319,140.227097 
	C1205.299805,138.256927 1191.113525,137.944656 1177.033691,136.872009 
	C1175.939087,136.788635 1174.851562,136.613724 1173.760620,136.481339 
	C1173.749634,135.989777 1173.738647,135.498199 1173.727661,135.006638 
	C1177.040405,135.006638 1180.375000,135.253906 1183.662109,134.963516 
	C1197.385498,133.751190 1211.297729,133.430511 1224.764160,130.831482 
	C1248.772339,126.197945 1258.413452,116.933868 1262.807983,89.342995 
	C1264.970825,75.764191 1265.140991,61.868015 1266.514648,47.609852 
	C1267.180664,47.096031 1267.545044,47.087822 1267.909424,47.079613 
	C1269.281738,62.631035 1269.786621,78.320381 1272.232300,93.701126 
	C1275.787842,116.061600 1287.516113,127.539085 1309.931885,130.813538 
	C1325.835083,133.136612 1341.987183,133.762634 1358.032593,135.093765 
	C1360.080811,135.263702 1362.155518,135.117035 1364.217896,135.117035 
	C1364.237915,135.735321 1364.257812,136.353592 1364.277832,136.971878 
	C1361.285645,136.971878 1358.276978,136.768097 1355.303955,137.006332 
	C1340.574829,138.186539 1325.659424,138.388794 1311.174194,140.975967 
	C1284.240723,145.786514 1274.317749,156.979538 1271.077393,184.253906 
	C1269.510376,197.443665 1268.937988,210.751587 1267.687500,224.602478 
	C1267.010742,225.425644 1266.561768,225.652328 1266.112671,225.878998 
z"/>
<path fill="#9B87FD" opacity="1.000000" stroke="none" 
	d="
M1942.047729,690.021057 
	C1945.221436,676.857483 1948.191162,664.065979 1951.564087,651.381653 
	C1952.185791,649.043762 1954.058472,645.901062 1956.020752,645.296936 
	C1959.960571,644.084229 1960.577759,648.277161 1961.668823,650.864197 
	C1967.681396,665.120911 1973.545776,679.439941 1979.485596,693.727478 
	C1980.048096,695.080627 1980.779785,696.363525 1982.038818,698.899170 
	C1984.556152,689.301514 1986.769287,680.859436 1988.984985,672.418030 
	C1991.263184,663.737488 1993.541992,655.057007 1995.824951,646.377625 
	C1996.521240,643.730225 1997.260254,640.720154 2000.888062,641.722290 
	C2004.314575,642.668945 2003.892212,645.424805 2003.110229,648.262024 
	C1997.810913,667.489868 1992.699707,686.770630 1987.227417,705.948608 
	C1986.611328,708.107666 1984.120117,709.731689 1982.498413,711.603821 
	C1980.810547,709.976135 1978.428101,708.657227 1977.545166,706.671631 
	C1970.723877,691.332275 1964.192505,675.864014 1956.981689,659.061707 
	C1956.110474,662.023010 1955.538574,663.749817 1955.095215,665.509033 
	C1951.440186,680.011597 1947.924561,694.551147 1944.047852,708.993835 
	C1943.454224,711.205444 1941.226562,712.978394 1939.754761,714.954346 
	C1937.912476,713.345032 1935.297974,712.096802 1934.350098,710.069397 
	C1926.598267,693.487427 1919.154175,676.761475 1911.625122,660.075500 
	C1910.804077,658.256042 1909.445557,656.425415 1909.405151,654.576538 
	C1909.361938,652.604675 1910.588257,650.604919 1911.260498,648.617371 
	C1912.940918,649.564270 1915.413452,650.097595 1916.161865,651.531128 
	C1919.083130,657.126465 1921.478149,662.997986 1924.032349,668.782959 
	C1928.836304,679.663147 1933.614868,690.554504 1938.939941,702.659668 
	C1940.168091,697.723694 1941.075439,694.076904 1942.047729,690.021057 
z"/>
<path fill="#9C87FD" opacity="1.000000" stroke="none" 
	d="
M1574.687500,631.153442 
	C1595.504639,640.181885 1603.015137,660.443542 1592.870239,679.292786 
	C1586.264526,691.566406 1571.057373,698.339661 1556.099243,695.723328 
	C1550.545654,694.752014 1544.985840,693.796143 1539.402954,693.020081 
	C1535.442627,692.469543 1533.285156,690.755737 1533.980835,686.442444 
	C1537.019043,667.603577 1539.914551,648.739929 1543.243042,629.952820 
	C1543.518433,628.397888 1546.824829,626.056824 1548.416992,626.278625 
	C1557.100830,627.488403 1565.688843,629.386536 1574.687500,631.153442 
M1585.299927,676.632996 
	C1590.779419,666.166321 1591.096680,655.766663 1583.634277,646.232971 
	C1575.134888,635.374512 1562.357788,635.803772 1550.118896,633.964172 
	C1547.298706,651.625549 1544.592773,668.570923 1541.841064,685.803955 
	C1545.706665,686.560364 1548.938965,687.175232 1552.163818,687.826965 
	C1565.061768,690.433533 1576.696167,689.131897 1585.299927,676.632996 
z"/>
<path fill="#9C87FD" opacity="1.000000" stroke="none" 
	d="
M1756.599121,731.584351 
	C1751.208252,729.717224 1746.183350,728.101685 1741.291138,726.152405 
	C1738.866577,725.186279 1736.509399,723.188354 1738.612305,720.510254 
	C1739.380249,719.532349 1742.646851,719.999939 1744.564087,720.545349 
	C1748.979370,721.801270 1753.180908,724.461731 1757.620972,724.860229 
	C1772.676025,726.211609 1779.385010,719.278870 1778.700684,702.963684 
	C1772.142212,710.725830 1764.195923,713.716309 1754.897095,711.761230 
	C1748.876953,710.495422 1743.947021,707.207153 1740.375732,701.966919 
	C1734.027222,692.651550 1736.174072,677.843628 1745.038818,670.750122 
	C1753.596558,663.902161 1768.997192,662.396423 1779.682861,675.581177 
	C1779.828003,673.765320 1779.496216,672.129333 1780.144897,671.130005 
	C1781.167603,669.554504 1782.849243,668.406799 1784.251831,667.078003 
	C1785.379639,668.527466 1787.479858,669.979553 1787.475952,671.426086 
	C1787.453125,680.062439 1786.961182,688.698181 1786.589722,697.332520 
	C1786.475464,699.985840 1786.006470,702.643066 1786.106201,705.283142 
	C1786.812256,723.961304 1775.055176,733.432312 1756.599121,731.584351 
M1773.265015,701.885742 
	C1780.835449,694.968872 1781.762451,685.945190 1775.667358,678.496826 
	C1770.295044,671.931458 1758.482422,670.171570 1751.674805,674.922302 
	C1744.169189,680.160095 1742.091919,689.970337 1746.828979,697.806824 
	C1751.905273,706.204407 1763.048096,708.125854 1773.265015,701.885742 
z"/>
<path fill="#9C87FD" opacity="1.000000" stroke="none" 
	d="
M2102.375488,649.616943 
	C2101.295898,643.984619 2100.423828,638.747803 2099.359619,633.550354 
	C2098.582275,629.753784 2099.594238,627.437622 2103.729736,626.824768 
	C2112.243652,625.563049 2120.697998,623.479492 2129.249023,622.987854 
	C2141.902344,622.260376 2149.743164,628.676025 2151.854004,640.048523 
	C2153.789062,650.473267 2148.072021,660.064636 2136.900635,664.041016 
	C2131.630615,665.916870 2125.984375,666.740845 2120.501953,668.013672 
	C2118.432129,668.494324 2116.343750,668.896790 2113.917725,669.407898 
	C2114.799072,674.432190 2115.623535,679.130798 2116.447266,683.829529 
	C2116.647461,684.972107 2116.903320,686.108582 2117.032959,687.259216 
	C2117.341553,689.998718 2117.529541,693.276672 2114.027344,693.421387 
	C2112.652100,693.478271 2110.241699,690.530518 2109.844482,688.628906 
	C2107.165039,675.810730 2104.899658,662.906067 2102.375488,649.616943 
M2107.541260,633.712952 
	C2109.144287,643.104004 2110.747314,652.495056 2112.475098,662.615967 
	C2120.396240,660.790283 2127.811523,659.695251 2134.784668,657.308350 
	C2142.373047,654.710693 2145.432617,648.205261 2143.965576,640.598572 
	C2142.663818,633.847351 2137.305176,629.574829 2129.242920,630.105530 
	C2122.175293,630.570740 2115.180664,632.144287 2107.541260,633.712952 
z"/>
<path fill="#9C88FC" opacity="1.000000" stroke="none" 
	d="
M2050.178223,703.440674 
	C2036.876465,706.489990 2027.603638,703.351685 2021.328735,693.959106 
	C2015.081055,684.607300 2015.244507,671.656494 2021.725830,662.512207 
	C2026.948242,655.144165 2037.055908,651.401245 2045.495850,653.710205 
	C2054.894775,656.281677 2062.130371,664.843140 2063.095459,673.929260 
	C2063.580078,678.490662 2060.827881,679.345154 2057.510986,679.776001 
	C2048.628906,680.929871 2039.729004,681.944946 2030.842163,683.063232 
	C2029.054077,683.288269 2027.292725,683.725464 2025.543213,684.060303 
	C2026.942505,696.596741 2041.036987,701.882202 2052.065918,695.348938 
	C2053.900879,694.262085 2055.283447,692.372925 2057.159180,691.405212 
	C2058.592041,690.665955 2060.474121,690.796753 2062.156250,690.540527 
	C2061.965576,692.313660 2062.447266,694.879211 2061.461426,695.715698 
	C2058.102295,698.567017 2054.226318,700.809265 2050.178223,703.440674 
M2025.387573,670.184143 
	C2024.884277,672.642700 2024.380981,675.101257 2023.714111,678.359009 
	C2034.908447,676.863953 2044.951538,675.522644 2054.976562,674.183716 
	C2054.062256,666.668152 2049.250000,661.100098 2043.370972,660.018616 
	C2035.101318,658.497437 2029.886719,661.296692 2025.387573,670.184143 
z"/>
<path fill="#9C88FC" opacity="1.000000" stroke="none" 
	d="
M1622.486206,697.804260 
	C1629.422852,701.327271 1635.926392,701.039795 1642.365723,697.491089 
	C1644.526245,696.300476 1647.281738,694.369690 1648.593628,697.726074 
	C1649.085205,698.983459 1646.973389,702.158875 1645.273926,703.222778 
	C1635.931030,709.071960 1623.887451,708.167847 1615.901001,701.441101 
	C1607.024902,693.964966 1604.442139,681.797119 1609.229736,670.010742 
	C1613.043823,660.620850 1622.439697,654.431152 1632.448242,655.036987 
	C1649.087524,656.044250 1655.050659,671.275879 1653.788940,682.307617 
	C1653.391479,685.783264 1650.737671,686.290771 1647.796509,685.918945 
	C1638.407959,684.731995 1629.023071,683.517395 1619.631592,682.354675 
	C1618.020386,682.155212 1616.384155,682.158264 1614.451904,682.050659 
	C1614.260498,688.958862 1616.974854,693.887085 1622.486206,697.804260 
M1633.136353,678.251282 
	C1637.495239,678.805542 1641.854126,679.359741 1646.242798,679.917786 
	C1646.528687,668.978821 1640.776978,661.699097 1631.606812,661.268555 
	C1625.477905,660.980774 1616.932739,665.617920 1615.587036,676.240112 
	C1621.139526,676.868164 1626.692383,677.496277 1633.136353,678.251282 
z"/>
<path fill="#9C88FD" opacity="1.000000" stroke="none" 
	d="
M1416.961914,665.176270 
	C1402.781006,668.308716 1388.022583,658.472168 1386.031250,644.913391 
	C1383.742432,629.328918 1394.096558,615.196716 1408.661743,614.025452 
	C1424.196533,612.776184 1436.878174,623.759216 1437.144897,638.693237 
	C1437.383789,652.082275 1430.326660,661.504944 1416.961914,665.176270 
M1411.514404,620.846619 
	C1400.830811,621.356873 1393.005615,629.908081 1393.108398,640.959839 
	C1393.198608,650.657776 1401.160767,658.780212 1410.794922,659.002075 
	C1421.015381,659.237427 1429.150879,651.123840 1429.886475,639.961853 
	C1430.542480,630.010315 1422.943481,621.708740 1411.514404,620.846619 
z"/>
<path fill="#9C88FD" opacity="1.000000" stroke="none" 
	d="
M2276.247559,657.066467 
	C2272.004883,658.615845 2270.887939,655.883728 2270.105957,653.051331 
	C2268.030029,645.531982 2266.144043,637.960510 2264.093750,630.433899 
	C2261.498779,620.906738 2255.363281,616.977661 2246.773926,619.233521 
	C2238.839111,621.317322 2234.622559,628.928711 2236.749268,637.665771 
	C2238.594238,645.245300 2240.877197,652.727173 2242.441406,660.359863 
	C2242.828857,662.250122 2241.719727,665.857971 2240.365479,666.417480 
	C2236.944580,667.830872 2235.932129,664.458191 2235.253662,661.945312 
	C2231.923096,649.606262 2228.723389,637.231750 2225.526367,624.857117 
	C2224.865967,622.300537 2223.806396,619.290894 2227.390869,618.134766 
	C2230.991211,616.973572 2231.881836,619.856018 2232.684570,622.503601 
	C2232.865723,623.101746 2233.103271,623.682922 2233.513184,624.823547 
	C2236.464355,618.197632 2240.576172,613.549072 2247.525146,611.925964 
	C2257.848389,609.514771 2266.417480,613.491882 2269.788818,623.501770 
	C2272.962891,632.924805 2275.246826,642.655029 2277.680664,652.311035 
	C2278.017334,653.647461 2276.968262,655.333252 2276.247559,657.066467 
z"/>
<path fill="#9C87FD" opacity="1.000000" stroke="none" 
	d="
M1479.746948,667.680969 
	C1481.983765,660.951050 1484.087158,654.533203 1485.927979,648.040894 
	C1486.921021,644.538574 1487.095093,640.770081 1488.363892,637.394165 
	C1489.015625,635.659973 1491.317627,633.299377 1492.769897,633.369568 
	C1495.884399,633.520081 1496.153931,636.207947 1495.517334,639.030518 
	C1492.744019,651.325867 1490.099976,663.650208 1487.383423,675.958374 
	C1486.749878,678.829102 1486.491821,682.874023 1482.641846,682.178040 
	C1480.929077,681.868347 1479.886353,677.851440 1478.281372,675.069702 
	C1478.612915,674.894226 1477.658813,675.306763 1476.801514,675.867493 
	C1469.390015,680.715576 1461.837646,680.143555 1454.743164,675.633179 
	C1447.772217,671.201416 1445.939331,664.088501 1447.325195,656.363037 
	C1448.934937,647.389038 1451.108276,638.514038 1453.130859,629.617493 
	C1453.699707,627.115906 1454.659302,624.362854 1458.001099,625.360840 
	C1460.926270,626.234436 1461.100708,628.633240 1460.416138,631.470825 
	C1458.627319,638.885742 1457.156738,646.376953 1455.513794,653.827637 
	C1453.806396,661.570129 1455.478149,667.246582 1460.419189,670.248535 
	C1467.001099,674.247437 1473.096802,673.517151 1479.746948,667.680969 
z"/>
<path fill="#9B87FD" opacity="1.000000" stroke="none" 
	d="
M1348.023926,602.951050 
	C1349.144165,606.487183 1350.164917,609.637146 1351.474365,613.677856 
	C1358.418701,608.276550 1364.912231,603.243652 1371.385132,598.184082 
	C1374.793213,595.520081 1378.161621,592.805359 1381.554688,590.122009 
	C1383.684448,588.437683 1386.293213,587.128662 1387.801025,590.164734 
	C1388.490112,591.552185 1387.610840,594.852844 1386.318481,595.906372 
	C1377.680664,602.947876 1368.899536,609.841431 1359.832275,616.317200 
	C1354.957886,619.798523 1351.765869,623.806824 1350.676025,629.794800 
	C1349.907715,634.017334 1348.179443,638.059875 1346.973022,642.209900 
	C1346.167969,644.979919 1344.607056,646.838562 1341.587158,645.985291 
	C1338.241211,645.039917 1338.796387,642.398804 1339.557861,639.854187 
	C1341.083008,634.758057 1342.970215,629.727417 1343.952271,624.526978 
	C1344.596069,621.117126 1344.680664,617.224609 1343.687134,613.951538 
	C1340.403809,603.135925 1336.479858,592.515930 1332.900269,581.788025 
	C1332.336182,580.097229 1331.839233,578.153748 1332.149658,576.482849 
	C1332.354126,575.382446 1334.532471,573.566772 1335.011475,573.793518 
	C1336.750366,574.616943 1338.940918,575.873901 1339.536011,577.491516 
	C1342.577148,585.759155 1345.172974,594.190613 1348.023926,602.951050 
z"/>
<path fill="#9A86FD" opacity="1.000000" stroke="none" 
	d="
M1810.267456,691.477783 
	C1810.219238,698.594238 1810.237305,705.255798 1810.167969,711.916382 
	C1810.141113,714.498535 1810.755981,717.905090 1806.800903,717.894226 
	C1803.260864,717.884583 1802.967896,714.940674 1802.978149,712.074646 
	C1803.024048,699.251953 1802.874878,686.425903 1803.166260,673.609497 
	C1803.212280,671.584839 1804.830688,668.224304 1806.289307,667.879517 
	C1809.673584,667.079346 1810.412720,670.237976 1810.767212,673.027466 
	C1810.828003,673.504517 1811.016235,673.965332 1811.344971,675.156616 
	C1816.041016,669.464844 1821.562744,666.518372 1828.818481,666.951965 
	C1838.074707,667.505127 1845.574463,673.945374 1845.966553,683.148132 
	C1846.398438,693.288635 1846.272095,703.462891 1846.004150,713.612244 
	C1845.964600,715.105408 1843.799316,716.542297 1842.617554,718.005188 
	C1841.412231,716.478210 1839.235962,714.994690 1839.165283,713.416870 
	C1838.807495,705.439392 1839.023315,697.437195 1838.988281,689.443909 
	C1838.945435,679.688354 1834.601440,674.329773 1826.515015,673.973022 
	C1817.150024,673.559814 1811.818481,678.337585 1810.767700,688.064331 
	C1810.660645,689.055725 1810.457520,690.036682 1810.267456,691.477783 
z"/>
<path fill="#9C88FD" opacity="1.000000" stroke="none" 
	d="
M1694.544800,708.654968 
	C1685.820068,715.279785 1671.254517,711.937805 1662.849976,704.629578 
	C1661.905273,703.808105 1662.017090,701.771790 1661.639038,700.298767 
	C1663.419067,700.090149 1665.434448,699.241516 1666.935059,699.793030 
	C1671.405396,701.436096 1675.560181,703.973572 1680.070068,705.457336 
	C1682.227173,706.167114 1685.255859,705.964111 1687.254517,704.937561 
	C1689.303345,703.885132 1691.645874,701.446655 1691.886230,699.384827 
	C1692.124146,697.343323 1690.460205,694.071533 1688.646729,692.992065 
	C1683.534790,689.948853 1677.737671,688.074402 1672.538696,685.155151 
	C1663.467041,680.061523 1663.527832,667.587708 1672.923828,663.109070 
	C1676.855957,661.234741 1681.983398,660.936218 1686.432129,661.355713 
	C1690.399780,661.729858 1694.354980,663.761780 1697.955566,665.723145 
	C1699.320801,666.466736 1699.679565,669.057983 1700.497070,670.807129 
	C1698.627075,671.023682 1696.602295,671.801880 1694.919800,671.338135 
	C1691.591675,670.420715 1688.530518,668.541138 1685.206055,667.600830 
	C1683.236084,667.043640 1680.608521,666.824524 1678.932251,667.703613 
	C1676.676514,668.886536 1674.125732,671.005493 1673.476685,673.238647 
	C1673.026733,674.787415 1675.090698,677.990906 1676.871704,679.077515 
	C1680.956543,681.569397 1685.582153,683.161743 1689.940430,685.220459 
	C1700.983521,690.436951 1702.895996,699.574036 1694.544800,708.654968 
z"/>
<path fill="#9C88FC" opacity="1.000000" stroke="none" 
	d="
M1351.631714,49.463684 
	C1358.925171,54.420971 1367.120728,53.982212 1374.972168,54.932323 
	C1377.566772,55.246300 1380.231323,54.981796 1382.867188,55.601463 
	C1377.422607,56.069653 1371.983398,56.618950 1366.532104,56.990368 
	C1351.942017,57.984436 1345.258301,64.481682 1343.988892,79.038734 
	C1343.499146,84.654228 1343.021118,90.270737 1342.581665,95.377007 
	C1341.890869,88.789024 1341.630127,81.619186 1340.298706,74.654007 
	C1338.052002,62.901123 1332.102661,58.055122 1320.145142,57.061729 
	C1314.524902,56.594810 1308.908447,56.082657 1303.802856,55.635860 
	C1310.540894,54.811867 1317.818481,54.139736 1325.018555,52.984718 
	C1333.505127,51.623333 1338.832642,46.554638 1340.142822,37.981308 
	C1341.293091,30.454533 1341.926758,22.848816 1342.596191,16.968431 
	C1343.266235,22.733967 1343.589722,30.354637 1345.223511,37.683208 
	C1346.138550,41.787800 1349.224365,45.408455 1351.631714,49.463684 
z"/>
<path fill="#9C88FD" opacity="1.000000" stroke="none" 
	d="
M2276.937500,607.939758 
	C2277.215820,606.794617 2277.376953,605.502441 2277.839600,605.383667 
	C2284.018799,603.796326 2281.811035,599.803528 2280.636475,596.080017 
	C2280.387207,595.290588 2280.209717,594.478577 2279.960449,593.689270 
	C2279.133301,591.073547 2278.964600,588.442444 2282.192627,587.631165 
	C2285.398682,586.825562 2286.388428,589.362000 2287.143066,591.890320 
	C2288.031250,594.866028 2289.022461,597.810913 2290.074951,601.100464 
	C2294.077148,599.948669 2297.655273,598.605896 2301.353760,598.006775 
	C2302.854736,597.763672 2304.617920,599.139465 2306.261963,599.778564 
	C2305.316162,601.248840 2304.696533,603.452393 2303.360840,604.046509 
	C2299.917236,605.578308 2296.157227,606.398193 2291.754639,607.736145 
	C2294.885010,617.755981 2297.714111,627.739014 2301.179688,637.496155 
	C2302.808350,642.081299 2307.089844,641.581726 2310.988770,640.516052 
	C2312.256836,640.169373 2313.454346,639.171631 2314.680176,639.178589 
	C2315.806396,639.184937 2317.411865,639.872986 2317.906006,640.761353 
	C2318.349121,641.557617 2317.978516,643.486450 2317.260498,644.142334 
	C2311.009766,649.851501 2297.852783,651.993164 2293.942383,640.233337 
	C2290.652100,630.339661 2287.745850,620.318481 2285.132568,611.853027 
	C2281.651367,610.355774 2279.305664,609.346924 2276.937500,607.939758 
z"/>
<path fill="#9C88FC" opacity="1.000000" stroke="none" 
	d="
M2164.253662,633.290588 
	C2167.686523,630.809631 2169.518555,632.361816 2170.544434,635.354553 
	C2171.292969,637.538025 2171.659668,639.852356 2172.092041,641.669922 
	C2174.608398,638.168762 2177.097656,634.370911 2179.966064,630.885193 
	C2181.054688,629.562439 2182.974365,628.301270 2184.591309,628.197449 
	C2186.490479,628.075439 2188.472656,629.242981 2190.418701,629.851318 
	C2189.576660,631.566956 2189.196533,634.031982 2187.819824,634.880493 
	C2176.177246,642.055908 2173.429443,648.269958 2176.377686,661.954590 
	C2177.391602,666.660461 2178.749268,671.329468 2179.248535,676.088867 
	C2179.426514,677.786743 2177.531006,679.702087 2176.582275,681.518188 
	C2175.092285,680.263428 2172.626709,679.240479 2172.264893,677.717590 
	C2169.041504,664.153381 2166.160156,650.507080 2163.289062,636.861633 
	C2163.078125,635.859741 2163.734375,634.675415 2164.253662,633.290588 
z"/>
<path fill="#9C87FD" opacity="1.000000" stroke="none" 
	d="
M2212.880859,672.153870 
	C2211.295654,667.475830 2209.860352,663.080261 2208.762695,658.601929 
	C2206.354980,648.779114 2203.948486,638.947998 2201.982910,629.032776 
	C2201.666992,627.437866 2203.630859,625.391235 2204.541016,623.553467 
	C2206.014404,624.831238 2208.418701,625.871338 2208.815186,627.424011 
	C2212.259521,640.919006 2215.480225,654.476257 2218.447510,668.084717 
	C2219.289062,671.944336 2217.208496,673.721741 2212.880859,672.153870 
z"/>
<path fill="#9B87FD" opacity="1.000000" stroke="none" 
	d="
M1714.906738,688.749207 
	C1715.290894,681.821655 1715.651489,675.363892 1716.028564,668.907043 
	C1716.190430,666.134766 1717.238525,663.462463 1720.340576,664.307373 
	C1721.787476,664.701416 1723.525635,667.695129 1723.447388,669.434875 
	C1722.859985,682.514832 1721.851318,695.575745 1720.978394,708.642883 
	C1720.794556,711.392273 1720.636108,714.390930 1716.806885,714.028748 
	C1713.228149,713.690247 1713.069458,710.918335 1713.325928,708.043823 
	C1713.885132,701.772400 1714.372925,695.494568 1714.906738,688.749207 
z"/>
<path fill="#9E8BFC" opacity="1.000000" stroke="none" 
	d="
M1165.411621,178.057526 
	C1166.506836,172.867889 1167.422363,168.027039 1168.573486,161.940308 
	C1169.803711,182.664673 1170.788696,183.702988 1188.863037,186.244476 
	C1184.930420,187.398651 1178.068604,187.577347 1174.184814,191.068756 
	C1170.305176,194.556412 1169.406372,201.359879 1167.935547,204.927811 
	C1166.742554,201.722351 1166.093384,195.012863 1162.404175,191.459244 
	C1158.702026,187.893082 1151.969482,187.473053 1147.732666,186.062881 
	C1152.760742,184.368530 1161.134399,186.306396 1165.411621,178.057526 
z"/>
<path fill="#9C88FC" opacity="1.000000" stroke="none" 
	d="
M1862.346313,708.831909 
	C1864.243286,707.938904 1866.432983,706.484680 1867.576660,707.070984 
	C1869.131226,707.867981 1870.635376,710.135559 1870.849121,711.928833 
	C1871.608643,718.302917 1870.582275,724.297668 1864.229614,727.716492 
	C1863.048096,728.352234 1861.270142,727.879639 1859.767456,727.918518 
	C1860.459839,726.650269 1860.855225,725.002991 1861.900024,724.184387 
	C1865.085571,721.688293 1866.685181,719.476929 1863.415039,715.624573 
	C1862.181763,714.171753 1862.540161,711.367920 1862.346313,708.831909 
z"/>
<path fill="#9E8BFC" opacity="1.000000" stroke="none" 
	d="
M2329.662598,636.139893 
	C2328.445068,632.599854 2329.185059,629.683472 2332.595947,629.344543 
	C2334.345215,629.170837 2336.912598,631.135559 2338.099609,632.838379 
	C2339.847900,635.346741 2338.919922,638.023376 2336.050293,639.432190 
	C2332.914307,640.971680 2331.086426,639.199280 2329.662598,636.139893 
z"/>
<path fill="#9C87FD" opacity="1.000000" stroke="none" 
	d="
M2197.153320,607.005310 
	C2200.148926,604.360840 2202.943848,604.011230 2204.628906,607.683899 
	C2205.241943,609.020142 2204.909424,611.608887 2203.948975,612.620667 
	C2202.968262,613.653870 2199.589111,614.226990 2199.179932,613.647034 
	C2197.941406,611.891113 2197.633301,609.478882 2197.153320,607.005310 
z"/>
<path fill="#9C87FD" opacity="1.000000" stroke="none" 
	d="
M1721.929443,645.068237 
	C1725.832520,646.190552 1725.775146,649.103516 1724.737427,651.461548 
	C1724.183838,652.719421 1721.457642,654.001953 1720.124268,653.661072 
	C1718.782104,653.317932 1717.270264,651.073059 1717.044189,649.488708 
	C1716.630371,646.587524 1718.478882,644.976685 1721.929443,645.068237 
z"/>
<path fill="#CEC3FE" opacity="1.000000" stroke="none" 
	d="
M1266.050171,226.352783 
	C1266.561768,225.652328 1267.010742,225.425644 1267.676025,225.064667 
	C1267.892212,230.858322 1267.892212,236.786285 1267.892212,242.714249 
	C1267.411621,242.742874 1266.931030,242.771500 1266.450439,242.800125 
	C1266.296265,237.475601 1266.141968,232.151093 1266.050171,226.352783 
z"/>
<path fill="#CEC3FE" opacity="1.000000" stroke="none" 
	d="
M1267.968018,46.607731 
	C1267.545044,47.087822 1267.180664,47.096031 1266.548950,47.156658 
	C1266.281616,41.523937 1266.281616,35.838799 1266.281616,30.153658 
	C1266.863281,30.156893 1267.444946,30.160128 1268.026611,30.163364 
	C1268.026611,35.487526 1268.026611,40.811687 1267.968018,46.607731 
z"/>
<path fill="#FDFDFD" opacity="1.000000" stroke="none" 
	d="
M1079.800781,318.847534 
	C1082.613770,313.915985 1084.768921,308.930878 1088.039795,304.837341 
	C1097.453613,293.055817 1109.558960,293.132446 1119.161011,304.728027 
	C1125.550049,312.443542 1129.091431,321.563507 1131.307617,331.198242 
	C1137.120728,356.471344 1136.559937,381.380249 1126.118774,405.481659 
	C1124.167358,409.986176 1121.458496,414.372284 1118.255371,418.085052 
	C1109.137329,428.653687 1097.405884,428.375824 1088.377441,417.682526 
	C1081.448608,409.475861 1077.824219,399.649963 1075.584351,389.352722 
	C1070.423096,365.624573 1070.771729,342.147980 1079.800781,318.847534 
z"/>
<path fill="#FEFEFE" opacity="1.000000" stroke="none" 
	d="
M355.561890,297.549255 
	C361.040466,321.729462 362.297546,345.726379 358.970062,369.889557 
	C355.420532,395.665039 347.776337,419.849915 330.233368,439.873016 
	C317.795227,454.069519 302.271912,462.495209 282.574280,464.514679 
	C273.787231,383.318268 273.116547,302.510559 281.995697,220.992676 
	C290.733337,222.044891 298.834229,223.908005 306.442291,227.700516 
	C328.461151,238.676590 341.292358,257.419037 349.923004,279.574524 
	C352.146759,285.283051 353.602234,291.290863 355.561890,297.549255 
z"/>
<path fill="#FDFDFD" opacity="1.000000" stroke="none" 
	d="
M582.510437,378.387451 
	C581.704407,379.886261 581.163025,381.106995 580.471741,382.235870 
	C571.596252,396.728760 557.320496,397.106506 547.735229,382.994904 
	C538.451294,369.326813 537.073486,353.858307 538.429199,338.028320 
	C539.403931,326.646851 542.642456,315.887787 549.563171,306.472382 
	C560.040039,292.219055 572.589172,292.869873 580.979248,308.459534 
	C589.001648,323.366028 590.328979,339.597778 588.431030,355.999878 
	C587.565857,363.476196 584.676636,370.718323 582.510437,378.387451 
z"/>
<path fill="#FEFEFE" opacity="1.000000" stroke="none" 
	d="
M2220.724854,214.000137 
	C2220.745850,207.670776 2220.761475,201.841370 2220.802246,196.012131 
	C2220.804443,195.715866 2221.021973,195.421097 2221.341309,194.615738 
	C2233.251221,194.615738 2245.355225,194.481384 2257.454834,194.666687 
	C2264.591064,194.775970 2271.830078,194.739212 2278.826660,195.926086 
	C2290.618652,197.926346 2296.510010,205.580719 2296.995605,217.473083 
	C2297.530762,230.585236 2293.200928,242.114182 2285.217773,252.143890 
	C2265.625000,276.759674 2245.727051,301.132660 2225.945312,325.597900 
	C2224.523438,327.356445 2223.047607,329.071045 2220.724854,331.848541 
	C2220.724854,291.900238 2220.724854,253.200180 2220.724854,214.000137 
z"/>
<path fill="#FEFEFE" opacity="1.000000" stroke="none" 
	d="
M1893.418457,378.333618 
	C1890.853516,400.004181 1887.191772,420.933258 1876.931885,440.058624 
	C1870.540039,451.973236 1861.630615,461.219482 1847.842529,463.930206 
	C1830.668579,467.306580 1817.569946,460.251587 1807.888794,446.429657 
	C1798.443604,432.944733 1794.011597,417.397614 1791.099609,401.457306 
	C1784.076904,363.013550 1783.738770,324.271759 1786.704956,285.437805 
	C1788.317871,264.320862 1791.185669,243.415802 1799.052368,223.543442 
	C1803.589355,212.082626 1809.624756,201.515060 1820.084473,194.449982 
	C1837.709229,182.545303 1860.746826,188.239441 1873.553955,207.326187 
	C1882.541626,220.720367 1886.976562,235.866943 1889.869873,251.448471 
	C1897.656860,293.383575 1897.446411,335.594208 1893.418457,378.333618 
z"/>
<path fill="#FCFCFC" opacity="1.000000" stroke="none" 
	d="
M2725.763184,387.209229 
	C2715.433838,376.158417 2705.067383,365.141937 2694.786865,354.045837 
	C2686.520996,345.124268 2678.250488,336.201385 2670.255615,327.040100 
	C2668.879639,325.463440 2667.983398,322.523926 2668.365967,320.497101 
	C2675.212158,284.221985 2682.290039,247.990570 2689.327148,211.751541 
	C2689.346680,211.651520 2689.500732,211.577606 2690.193848,210.922668 
	C2691.760986,218.202805 2693.289307,225.069183 2694.713379,231.957153 
	C2705.115967,282.269135 2715.498535,332.585327 2725.880859,382.901459 
	C2726.082520,383.879333 2726.206299,384.873291 2726.207520,386.403595 
	C2726.048828,386.947449 2725.763184,387.209259 2725.763184,387.209229 
z"/>
<path fill="#FCFCFC" opacity="1.000000" stroke="none" 
	d="
M2726.190918,386.815430 
	C2726.394043,387.249359 2726.455566,387.815338 2726.517090,388.381348 
	C2726.291748,388.151367 2726.066650,387.921326 2725.802246,387.450256 
	C2725.763184,387.209259 2726.048828,386.947449 2726.190918,386.815430 
z"/>
<path fill="#FEFEFF" opacity="1.000000" stroke="none" 
	d="
M1585.118652,676.955566 
	C1576.696167,689.131897 1565.061768,690.433533 1552.163818,687.826965 
	C1548.938965,687.175232 1545.706665,686.560364 1541.841064,685.803955 
	C1544.592773,668.570923 1547.298706,651.625549 1550.118896,633.964172 
	C1562.357788,635.803772 1575.134888,635.374512 1583.634277,646.232971 
	C1591.096680,655.766663 1590.779419,666.166321 1585.118652,676.955566 
z"/>
<path fill="#FDFDFF" opacity="1.000000" stroke="none" 
	d="
M1772.940796,702.069580 
	C1763.048096,708.125854 1751.905273,706.204407 1746.828979,697.806824 
	C1742.091919,689.970337 1744.169189,680.160095 1751.674805,674.922302 
	C1758.482422,670.171570 1770.295044,671.931458 1775.667358,678.496826 
	C1781.762451,685.945190 1780.835449,694.968872 1772.940796,702.069580 
z"/>
<path fill="#FDFDFF" opacity="1.000000" stroke="none" 
	d="
M2107.847656,633.470581 
	C2115.180664,632.144287 2122.175293,630.570740 2129.242920,630.105530 
	C2137.305176,629.574829 2142.663818,633.847351 2143.965576,640.598572 
	C2145.432617,648.205261 2142.373047,654.710693 2134.784668,657.308350 
	C2127.811523,659.695251 2120.396240,660.790283 2112.475098,662.615967 
	C2110.747314,652.495056 2109.144287,643.104004 2107.847656,633.470581 
z"/>
<path fill="#FCFCFE" opacity="1.000000" stroke="none" 
	d="
M2025.558228,669.836670 
	C2029.886719,661.296692 2035.101318,658.497437 2043.370972,660.018616 
	C2049.250000,661.100098 2054.062256,666.668152 2054.976562,674.183716 
	C2044.951538,675.522644 2034.908447,676.863953 2023.714111,678.359009 
	C2024.380981,675.101257 2024.884277,672.642700 2025.558228,669.836670 
z"/>
<path fill="#FCFCFE" opacity="1.000000" stroke="none" 
	d="
M1632.690796,678.187805 
	C1626.692383,677.496277 1621.139526,676.868164 1615.587036,676.240112 
	C1616.932739,665.617920 1625.477905,660.980774 1631.606812,661.268555 
	C1640.776978,661.699097 1646.528687,668.978821 1646.242798,679.917786 
	C1641.854126,679.359741 1637.495239,678.805542 1632.690796,678.187805 
z"/>
<path fill="#FDFDFF" opacity="1.000000" stroke="none" 
	d="
M1411.954102,620.849365 
	C1422.943481,621.708740 1430.542480,630.010315 1429.886475,639.961853 
	C1429.150879,651.123840 1421.015381,659.237427 1410.794922,659.002075 
	C1401.160767,658.780212 1393.198608,650.657776 1393.108398,640.959839 
	C1393.005615,629.908081 1400.830811,621.356873 1411.954102,620.849365 
z"/>
</svg>