<svg xmlns="http://www.w3.org/2000/svg" xmlns:xlink="http://www.w3.org/1999/xlink" width="1080" zoomAndPan="magnify" viewBox="0 0 810 809.999993" height="1080" preserveAspectRatio="xMidYMid meet" version="1.0"><defs><clipPath id="5a28ff2045"><path d="M 189.039062 189.039062 L 621 189.039062 L 621 621 L 189.039062 621 Z M 189.039062 189.039062 " clip-rule="nonzero"/></clipPath></defs><g clip-path="url(#5a28ff2045)"><path fill="#9883fd" d="M 620.957031 405 L 509.53125 418.828125 L 613.648438 460.878906 L 502.441406 445.335938 L 592.023438 513.03125 L 488.664062 469.144531 L 557.707031 557.707031 L 469.144531 488.664062 L 513.03125 592.023438 L 445.335938 502.441406 L 460.867188 613.648438 L 418.828125 509.53125 L 405 620.957031 L 391.167969 509.53125 L 349.121094 613.648438 L 364.664062 502.441406 L 296.96875 592.023438 L 340.855469 488.664062 L 252.292969 557.707031 L 321.335938 469.144531 L 217.976562 513.03125 L 307.558594 445.335938 L 196.347656 460.867188 L 300.464844 418.828125 L 189.039062 405 L 300.464844 391.167969 L 196.347656 349.121094 L 307.558594 364.664062 L 217.976562 296.96875 L 321.335938 340.855469 L 252.292969 252.292969 L 340.855469 321.335938 L 296.96875 217.976562 L 364.664062 307.558594 L 349.128906 196.347656 L 391.167969 300.464844 L 405 189.039062 L 418.828125 300.464844 L 460.878906 196.347656 L 445.335938 307.558594 L 513.03125 217.976562 L 469.144531 321.335938 L 557.707031 252.292969 L 488.664062 340.855469 L 592.023438 296.96875 L 502.441406 364.664062 L 613.648438 349.128906 L 509.53125 391.167969 Z M 620.957031 405 " fill-opacity="1" fill-rule="nonzero"/></g></svg>