<svg xmlns="http://www.w3.org/2000/svg" xmlns:xlink="http://www.w3.org/1999/xlink" width="1080" zoomAndPan="magnify" viewBox="0 0 810 809.999993" height="1080" preserveAspectRatio="xMidYMid meet" version="1.0"><defs><clipPath id="12e01afb08"><path d="M 170.652344 143.257812 L 655 143.257812 L 655 626.984375 L 170.652344 626.984375 Z M 170.652344 143.257812 " clip-rule="nonzero"/></clipPath><clipPath id="9f60f8de60"><path d="M 125.808594 204 L 266 204 L 266 345 L 125.808594 345 Z M 125.808594 204 " clip-rule="nonzero"/></clipPath><clipPath id="0b0172c690"><path d="M 472 455 L 684.101562 455 L 684.101562 666.734375 L 472 666.734375 Z M 472 455 " clip-rule="nonzero"/></clipPath></defs><g clip-path="url(#12e01afb08)"><path fill="#6557a6" d="M 412.570312 626.460938 C 406.285156 396.238281 401.1875 391.140625 170.964844 384.855469 C 401.1875 378.566406 406.285156 373.46875 412.570312 143.246094 C 418.859375 373.46875 423.960938 378.566406 654.179688 384.855469 C 423.960938 391.140625 418.859375 396.238281 412.570312 626.460938 " fill-opacity="1" fill-rule="nonzero"/></g><g clip-path="url(#9f60f8de60)"><path fill="#6557a6" d="M 195.613281 344.0625 C 193.796875 277.664062 192.328125 276.195312 125.929688 274.386719 C 192.328125 272.570312 193.796875 271.101562 195.613281 204.703125 C 197.421875 271.101562 198.890625 272.570312 265.289062 274.386719 C 198.890625 276.195312 197.421875 277.664062 195.613281 344.0625 " fill-opacity="1" fill-rule="nonzero"/></g><g clip-path="url(#0b0172c690)"><path fill="#6557a6" d="M 578.25 455.019531 C 581.003906 555.886719 583.238281 558.125 684.105469 560.875 C 583.238281 563.628906 581.003906 565.863281 578.25 666.730469 C 575.492188 565.863281 573.261719 563.628906 472.390625 560.875 C 573.261719 558.125 575.492188 555.886719 578.25 455.019531 " fill-opacity="1" fill-rule="nonzero"/></g></svg>