<svg xmlns="http://www.w3.org/2000/svg" xmlns:xlink="http://www.w3.org/1999/xlink" width="1080" zoomAndPan="magnify" viewBox="0 0 810 809.999993" height="1080" preserveAspectRatio="xMidYMid meet" version="1.0"><defs><clipPath id="2af71211e7"><path d="M 170.652344 183.011719 L 655 183.011719 L 655 666.75 L 170.652344 666.75 Z M 170.652344 183.011719 " clip-rule="nonzero"/></clipPath><clipPath id="becebb3351"><path d="M 125.808594 465 L 266 465 L 266 606 L 125.808594 606 Z M 125.808594 465 " clip-rule="nonzero"/></clipPath><clipPath id="81982be51a"><path d="M 472 143.257812 L 684.101562 143.257812 L 684.101562 355 L 472 355 Z M 472 143.257812 " clip-rule="nonzero"/></clipPath></defs><g clip-path="url(#2af71211e7)"><path fill="#6557a6" d="M 412.570312 183.535156 C 406.285156 413.753906 401.1875 418.855469 170.964844 425.140625 C 401.1875 431.429688 406.285156 436.527344 412.570312 666.75 C 418.859375 436.527344 423.960938 431.429688 654.179688 425.140625 C 423.960938 418.855469 418.859375 413.753906 412.570312 183.535156 " fill-opacity="1" fill-rule="nonzero"/></g><g clip-path="url(#becebb3351)"><path fill="#6557a6" d="M 195.613281 465.933594 C 193.796875 532.332031 192.328125 533.800781 125.929688 535.609375 C 192.328125 537.425781 193.796875 538.894531 195.613281 605.292969 C 197.421875 538.894531 198.890625 537.425781 265.289062 535.609375 C 198.890625 533.800781 197.421875 532.332031 195.613281 465.933594 " fill-opacity="1" fill-rule="nonzero"/></g><g clip-path="url(#81982be51a)"><path fill="#6557a6" d="M 578.25 354.976562 C 581.003906 254.109375 583.238281 251.871094 684.105469 249.121094 C 583.238281 246.363281 581.003906 244.132812 578.25 143.265625 C 575.492188 244.132812 573.261719 246.363281 472.390625 249.121094 C 573.261719 251.871094 575.492188 254.109375 578.25 354.976562 " fill-opacity="1" fill-rule="nonzero"/></g></svg>